<svg xmlns="http://www.w3.org/2000/svg" xmlns:xlink="http://www.w3.org/1999/xlink" contentStyleType="text/css" height="267px" preserveAspectRatio="none" style="width:378px;height:267px;background:#FFFFFF;" version="1.1" viewBox="0 0 378 267" width="378px" zoomAndPan="magnify"><defs/><g><line style="stroke:#181818;stroke-width:0.5;stroke-dasharray:5.0,5.0;" x1="35" x2="35" y1="36.2969" y2="260.2266"/><line style="stroke:#181818;stroke-width:0.5;stroke-dasharray:5.0,5.0;" x1="178.7285" x2="178.7285" y1="36.2969" y2="260.2266"/><line style="stroke:#181818;stroke-width:0.5;stroke-dasharray:5.0,5.0;" x1="259.0518" x2="259.0518" y1="36.2969" y2="260.2266"/><line style="stroke:#181818;stroke-width:0.5;stroke-dasharray:5.0,5.0;" x1="337.4961" x2="337.4961" y1="36.2969" y2="260.2266"/><rect fill="#E2E2F0" height="30.2969" rx="2.5" ry="2.5" style="stroke:#181818;stroke-width:0.5;" width="60.4707" x="5" y="5"/><text fill="#000000" font-family="sans-serif" font-size="14" lengthAdjust="spacing" textLength="46.4707" x="12" y="24.9951">CLEAN</text><rect fill="#E2E2F0" height="30.2969" rx="2.5" ry="2.5" style="stroke:#181818;stroke-width:0.5;" width="69.3232" x="144.7285" y="5"/><text fill="#000000" font-family="sans-serif" font-size="14" lengthAdjust="spacing" textLength="55.3232" x="151.7285" y="24.9951">CREATE</text><rect fill="#E2E2F0" height="30.2969" rx="2.5" ry="2.5" style="stroke:#181818;stroke-width:0.5;" width="70.4443" x="224.0518" y="5"/><text fill="#000000" font-family="sans-serif" font-size="14" lengthAdjust="spacing" textLength="56.4443" x="231.0518" y="24.9951">UPDATE</text><rect fill="#E2E2F0" height="30.2969" rx="2.5" ry="2.5" style="stroke:#181818;stroke-width:0.5;" width="67.6689" x="304.4961" y="5"/><text fill="#000000" font-family="sans-serif" font-size="14" lengthAdjust="spacing" textLength="53.6689" x="311.4961" y="24.9951">DELETE</text><polygon fill="#181818" points="247.2739,63.4297,257.2739,67.4297,247.2739,71.4297,251.2739,67.4297" style="stroke:#181818;stroke-width:1.0;"/><line style="stroke:#181818;stroke-width:1.0;stroke-dasharray:2.0,2.0;" x1="35.2354" x2="253.2739" y1="67.4297" y2="67.4297"/><text fill="#000000" font-family="sans-serif" font-size="13" lengthAdjust="spacing" textLength="53.5171" x="42.2354" y="62.3638">setattr()</text><polygon fill="#181818" points="326.3306,92.5625,336.3306,96.5625,326.3306,100.5625,330.3306,96.5625" style="stroke:#181818;stroke-width:1.0;"/><line style="stroke:#181818;stroke-width:1.0;stroke-dasharray:2.0,2.0;" x1="35.2354" x2="332.3306" y1="96.5625" y2="96.5625"/><text fill="#000000" font-family="sans-serif" font-size="13" lengthAdjust="spacing" textLength="51.0986" x="42.2354" y="91.4966">delete()</text><polygon fill="#181818" points="326.3306,121.6953,336.3306,125.6953,326.3306,129.6953,330.3306,125.6953" style="stroke:#181818;stroke-width:1.0;"/><line style="stroke:#181818;stroke-width:1.0;stroke-dasharray:2.0,2.0;" x1="179.3901" x2="332.3306" y1="125.6953" y2="125.6953"/><text fill="#000000" font-family="sans-serif" font-size="13" lengthAdjust="spacing" textLength="51.0986" x="186.3901" y="120.6294">delete()</text><polygon fill="#181818" points="326.3306,150.8281,336.3306,154.8281,326.3306,158.8281,330.3306,154.8281" style="stroke:#181818;stroke-width:1.0;"/><line style="stroke:#181818;stroke-width:1.0;stroke-dasharray:2.0,2.0;" x1="259.2739" x2="332.3306" y1="154.8281" y2="154.8281"/><text fill="#000000" font-family="sans-serif" font-size="13" lengthAdjust="spacing" textLength="51.0986" x="266.2739" y="149.7622">delete()</text><polygon fill="#181818" points="46.2354,179.9609,36.2354,183.9609,46.2354,187.9609,42.2354,183.9609" style="stroke:#181818;stroke-width:1.0;"/><line style="stroke:#181818;stroke-width:1.0;stroke-dasharray:2.0,2.0;" x1="40.2354" x2="178.3901" y1="183.9609" y2="183.9609"/><text fill="#000000" font-family="sans-serif" font-size="13" lengthAdjust="spacing" textLength="120.1548" x="52.2354" y="178.895">flush()/invalidate()</text><polygon fill="#181818" points="46.2354,209.0938,36.2354,213.0938,46.2354,217.0938,42.2354,213.0938" style="stroke:#181818;stroke-width:1.0;"/><line style="stroke:#181818;stroke-width:1.0;stroke-dasharray:2.0,2.0;" x1="40.2354" x2="258.2739" y1="213.0938" y2="213.0938"/><text fill="#000000" font-family="sans-serif" font-size="13" lengthAdjust="spacing" textLength="120.1548" x="52.2354" y="208.0278">flush()/invalidate()</text><polygon fill="#181818" points="46.2354,238.2266,36.2354,242.2266,46.2354,246.2266,42.2354,242.2266" style="stroke:#181818;stroke-width:1.0;"/><line style="stroke:#181818;stroke-width:1.0;stroke-dasharray:2.0,2.0;" x1="40.2354" x2="337.3306" y1="242.2266" y2="242.2266"/><text fill="#000000" font-family="sans-serif" font-size="13" lengthAdjust="spacing" textLength="120.1548" x="52.2354" y="237.1606">flush()/invalidate()</text><!--SRC=[oyXCILL8oyylISgluE8gI2mgoKpEB4ZCAr5mzd5rz4CL2N9r37554GeDS44NSd7rSGKASO7rA-Zgsa4LALWf5AUM99QK56be8ab2b0CbKr9pKajIGN9WQt18GiqYg1DYWPL2MavfSOQ6fdvcNbbYJcPA8heXUDL1RI2e3W00]--></g></svg>