<svg xmlns="http://www.w3.org/2000/svg" xmlns:xlink="http://www.w3.org/1999/xlink" contentStyleType="text/css" height="395px" preserveAspectRatio="none" style="width:405px;height:395px;background:#FFFFFF;" version="1.1" viewBox="0 0 405 395" width="405px" zoomAndPan="magnify"><defs/><g><!--cluster trilium_alchemy--><g id="cluster_trilium_alchemy"><path d="M8.5,6 L134.7686,6 A3.75,3.75 0 0 1 137.2686,8.5 L144.2686,28.2969 L395.5,28.2969 A2.5,2.5 0 0 1 398,30.7969 L398,385.5 A2.5,2.5 0 0 1 395.5,388 L8.5,388 A2.5,2.5 0 0 1 6,385.5 L6,8.5 A2.5,2.5 0 0 1 8.5,6 " fill="none" style="stroke:#000000;stroke-width:1.5;"/><line style="stroke:#000000;stroke-width:1.5;" x1="6" x2="144.2686" y1="28.2969" y2="28.2969"/><text fill="#000000" font-family="sans-serif" font-size="14" font-weight="bold" lengthAdjust="spacing" textLength="125.2686" x="10" y="20.9951">trilium_alchemy</text></g><!--cluster core--><g id="cluster_core"><rect fill="none" height="315" rx="2.5" ry="2.5" style="stroke:#181818;stroke-width:1.0;" width="344" x="30" y="49"/><path d="M74.3164,49 L74.3164,58.2969 L64.3164,68.2969 L30,68.2969 " fill="none" style="stroke:#181818;stroke-width:1.0;"/><text fill="#000000" font-family="sans-serif" font-size="14" font-weight="bold" lengthAdjust="spacing" textLength="34.3164" x="33" y="62.9951">core</text></g><!--class Entity--><g id="elem_Entity"><rect codeLine="3" fill="#F1F1F1" height="48" id="Entity" rx="2.5" ry="2.5" style="stroke:#181818;stroke-width:0.5;" width="72.8721" x="157.5" y="84"/><ellipse cx="172.5" cy="100" fill="#ADD1B2" rx="11" ry="11" style="stroke:#181818;stroke-width:1.0;"/><path d="M175.4688,105.6406 Q174.8906,105.9375 174.25,106.0781 Q173.6094,106.2344 172.9063,106.2344 Q170.4063,106.2344 169.0781,104.5938 Q167.7656,102.9375 167.7656,99.8125 Q167.7656,96.6875 169.0781,95.0313 Q170.4063,93.375 172.9063,93.375 Q173.6094,93.375 174.25,93.5313 Q174.9063,93.6875 175.4688,93.9844 L175.4688,96.7031 Q174.8438,96.125 174.25,95.8594 Q173.6563,95.5781 173.0313,95.5781 Q171.6875,95.5781 171,96.6563 Q170.3125,97.7188 170.3125,99.8125 Q170.3125,101.9063 171,102.9844 Q171.6875,104.0469 173.0313,104.0469 Q173.6563,104.0469 174.25,103.7813 Q174.8438,103.5 175.4688,102.9219 L175.4688,105.6406 Z " fill="#000000"/><text fill="#000000" font-family="sans-serif" font-size="14" lengthAdjust="spacing" textLength="40.8721" x="186.5" y="104.8467">Entity</text><line style="stroke:#181818;stroke-width:0.5;" x1="158.5" x2="229.3721" y1="116" y2="116"/><line style="stroke:#181818;stroke-width:0.5;" x1="158.5" x2="229.3721" y1="124" y2="124"/></g><!--class Note--><g id="elem_Note"><rect codeLine="6" fill="#F1F1F1" height="48" id="Note" rx="2.5" ry="2.5" style="stroke:#181818;stroke-width:0.5;" width="65.1406" x="46.5" y="192"/><ellipse cx="61.5" cy="208" fill="#ADD1B2" rx="11" ry="11" style="stroke:#181818;stroke-width:1.0;"/><path d="M64.4688,213.6406 Q63.8906,213.9375 63.25,214.0781 Q62.6094,214.2344 61.9063,214.2344 Q59.4063,214.2344 58.0781,212.5938 Q56.7656,210.9375 56.7656,207.8125 Q56.7656,204.6875 58.0781,203.0313 Q59.4063,201.375 61.9063,201.375 Q62.6094,201.375 63.25,201.5313 Q63.9063,201.6875 64.4688,201.9844 L64.4688,204.7031 Q63.8438,204.125 63.25,203.8594 Q62.6563,203.5781 62.0313,203.5781 Q60.6875,203.5781 60,204.6563 Q59.3125,205.7188 59.3125,207.8125 Q59.3125,209.9063 60,210.9844 Q60.6875,212.0469 62.0313,212.0469 Q62.6563,212.0469 63.25,211.7813 Q63.8438,211.5 64.4688,210.9219 L64.4688,213.6406 Z " fill="#000000"/><text fill="#000000" font-family="sans-serif" font-size="14" lengthAdjust="spacing" textLength="33.1406" x="75.5" y="212.8467">Note</text><line style="stroke:#181818;stroke-width:0.5;" x1="47.5" x2="110.6406" y1="224" y2="224"/><line style="stroke:#181818;stroke-width:0.5;" x1="47.5" x2="110.6406" y1="232" y2="232"/></g><!--class Attribute--><g id="elem_Attribute"><rect codeLine="9" fill="#F1F1F1" height="48" id="Attribute" rx="2.5" ry="2.5" style="stroke:#181818;stroke-width:0.5;" width="94.0635" x="147" y="192"/><ellipse cx="162" cy="208" fill="#ADD1B2" rx="11" ry="11" style="stroke:#181818;stroke-width:1.0;"/><path d="M164.9688,213.6406 Q164.3906,213.9375 163.75,214.0781 Q163.1094,214.2344 162.4063,214.2344 Q159.9063,214.2344 158.5781,212.5938 Q157.2656,210.9375 157.2656,207.8125 Q157.2656,204.6875 158.5781,203.0313 Q159.9063,201.375 162.4063,201.375 Q163.1094,201.375 163.75,201.5313 Q164.4063,201.6875 164.9688,201.9844 L164.9688,204.7031 Q164.3438,204.125 163.75,203.8594 Q163.1563,203.5781 162.5313,203.5781 Q161.1875,203.5781 160.5,204.6563 Q159.8125,205.7188 159.8125,207.8125 Q159.8125,209.9063 160.5,210.9844 Q161.1875,212.0469 162.5313,212.0469 Q163.1563,212.0469 163.75,211.7813 Q164.3438,211.5 164.9688,210.9219 L164.9688,213.6406 Z " fill="#000000"/><text fill="#000000" font-family="sans-serif" font-size="14" lengthAdjust="spacing" textLength="62.0635" x="176" y="212.8467">Attribute</text><line style="stroke:#181818;stroke-width:0.5;" x1="148" x2="240.0635" y1="224" y2="224"/><line style="stroke:#181818;stroke-width:0.5;" x1="148" x2="240.0635" y1="232" y2="232"/></g><!--class Label--><g id="elem_Label"><rect codeLine="12" fill="#F1F1F1" height="48" id="Label" rx="2.5" ry="2.5" style="stroke:#181818;stroke-width:0.5;" width="69.7686" x="102" y="300"/><ellipse cx="117" cy="316" fill="#ADD1B2" rx="11" ry="11" style="stroke:#181818;stroke-width:1.0;"/><path d="M119.9688,321.6406 Q119.3906,321.9375 118.75,322.0781 Q118.1094,322.2344 117.4063,322.2344 Q114.9063,322.2344 113.5781,320.5938 Q112.2656,318.9375 112.2656,315.8125 Q112.2656,312.6875 113.5781,311.0313 Q114.9063,309.375 117.4063,309.375 Q118.1094,309.375 118.75,309.5313 Q119.4063,309.6875 119.9688,309.9844 L119.9688,312.7031 Q119.3438,312.125 118.75,311.8594 Q118.1563,311.5781 117.5313,311.5781 Q116.1875,311.5781 115.5,312.6563 Q114.8125,313.7188 114.8125,315.8125 Q114.8125,317.9063 115.5,318.9844 Q116.1875,320.0469 117.5313,320.0469 Q118.1563,320.0469 118.75,319.7813 Q119.3438,319.5 119.9688,318.9219 L119.9688,321.6406 Z " fill="#000000"/><text fill="#000000" font-family="sans-serif" font-size="14" lengthAdjust="spacing" textLength="37.7686" x="131" y="320.8467">Label</text><line style="stroke:#181818;stroke-width:0.5;" x1="103" x2="170.7686" y1="332" y2="332"/><line style="stroke:#181818;stroke-width:0.5;" x1="103" x2="170.7686" y1="340" y2="340"/></g><!--class Relation--><g id="elem_Relation"><rect codeLine="15" fill="#F1F1F1" height="48" id="Relation" rx="2.5" ry="2.5" style="stroke:#181818;stroke-width:0.5;" width="89.627" x="207" y="300"/><ellipse cx="222" cy="316" fill="#ADD1B2" rx="11" ry="11" style="stroke:#181818;stroke-width:1.0;"/><path d="M224.9688,321.6406 Q224.3906,321.9375 223.75,322.0781 Q223.1094,322.2344 222.4063,322.2344 Q219.9063,322.2344 218.5781,320.5938 Q217.2656,318.9375 217.2656,315.8125 Q217.2656,312.6875 218.5781,311.0313 Q219.9063,309.375 222.4063,309.375 Q223.1094,309.375 223.75,309.5313 Q224.4063,309.6875 224.9688,309.9844 L224.9688,312.7031 Q224.3438,312.125 223.75,311.8594 Q223.1563,311.5781 222.5313,311.5781 Q221.1875,311.5781 220.5,312.6563 Q219.8125,313.7188 219.8125,315.8125 Q219.8125,317.9063 220.5,318.9844 Q221.1875,320.0469 222.5313,320.0469 Q223.1563,320.0469 223.75,319.7813 Q224.3438,319.5 224.9688,318.9219 L224.9688,321.6406 Z " fill="#000000"/><text fill="#000000" font-family="sans-serif" font-size="14" lengthAdjust="spacing" textLength="57.627" x="236" y="320.8467">Relation</text><line style="stroke:#181818;stroke-width:0.5;" x1="208" x2="295.627" y1="332" y2="332"/><line style="stroke:#181818;stroke-width:0.5;" x1="208" x2="295.627" y1="340" y2="340"/></g><!--class Branch--><g id="elem_Branch"><rect codeLine="18" fill="#F1F1F1" height="48" id="Branch" rx="2.5" ry="2.5" style="stroke:#181818;stroke-width:0.5;" width="81.3828" x="276.5" y="192"/><ellipse cx="291.5" cy="208" fill="#ADD1B2" rx="11" ry="11" style="stroke:#181818;stroke-width:1.0;"/><path d="M294.4688,213.6406 Q293.8906,213.9375 293.25,214.0781 Q292.6094,214.2344 291.9063,214.2344 Q289.4063,214.2344 288.0781,212.5938 Q286.7656,210.9375 286.7656,207.8125 Q286.7656,204.6875 288.0781,203.0313 Q289.4063,201.375 291.9063,201.375 Q292.6094,201.375 293.25,201.5313 Q293.9063,201.6875 294.4688,201.9844 L294.4688,204.7031 Q293.8438,204.125 293.25,203.8594 Q292.6563,203.5781 292.0313,203.5781 Q290.6875,203.5781 290,204.6563 Q289.3125,205.7188 289.3125,207.8125 Q289.3125,209.9063 290,210.9844 Q290.6875,212.0469 292.0313,212.0469 Q292.6563,212.0469 293.25,211.7813 Q293.8438,211.5 294.4688,210.9219 L294.4688,213.6406 Z " fill="#000000"/><text fill="#000000" font-family="sans-serif" font-size="14" lengthAdjust="spacing" textLength="49.3828" x="305.5" y="212.8467">Branch</text><line style="stroke:#181818;stroke-width:0.5;" x1="277.5" x2="356.8828" y1="224" y2="224"/><line style="stroke:#181818;stroke-width:0.5;" x1="277.5" x2="356.8828" y1="232" y2="232"/></g><!--reverse link Entity to Note--><g id="link_Entity_Note"><path codeLine="21" d="M155.8145,144.1993 C136.6545,161.8593 123.55,173.94 104.3,191.68 " fill="none" id="Entity-backto-Note" style="stroke:#181818;stroke-width:1.0;"/><polygon fill="none" points="169.05,132,151.7481,139.7875,159.881,148.6111,169.05,132" style="stroke:#181818;stroke-width:1.0;"/></g><!--reverse link Entity to Attribute--><g id="link_Entity_Attribute"><path codeLine="22" d="M194,150 C194,167.66 194,173.94 194,191.68 " fill="none" id="Entity-backto-Attribute" style="stroke:#181818;stroke-width:1.0;"/><polygon fill="none" points="194,132,188,150,200,150,194,132" style="stroke:#181818;stroke-width:1.0;"/></g><!--reverse link Entity to Branch--><g id="link_Entity_Branch"><path codeLine="23" d="M234.3246,143.7515 C254.8146,161.4115 269.36,173.94 289.94,191.68 " fill="none" id="Entity-backto-Branch" style="stroke:#181818;stroke-width:1.0;"/><polygon fill="none" points="220.69,132,230.4075,148.2963,238.2418,139.2066,220.69,132" style="stroke:#181818;stroke-width:1.0;"/></g><!--reverse link Attribute to Label--><g id="link_Attribute_Label"><path codeLine="24" d="M173.1096,255.8557 C163.6196,273.5157 159.08,281.94 149.54,299.68 " fill="none" id="Attribute-backto-Label" style="stroke:#181818;stroke-width:1.0;"/><polygon fill="none" points="181.63,240,167.8244,253.0155,178.3948,258.6958,181.63,240" style="stroke:#181818;stroke-width:1.0;"/></g><!--reverse link Attribute to Relation--><g id="link_Attribute_Relation"><path codeLine="25" d="M215.2281,255.7919 C224.8881,273.4519 229.53,281.94 239.24,299.68 " fill="none" id="Attribute-backto-Relation" style="stroke:#181818;stroke-width:1.0;"/><polygon fill="none" points="206.59,240,209.9642,258.6712,220.4921,252.9125,206.59,240" style="stroke:#181818;stroke-width:1.0;"/></g><!--SRC=[PSv12i8m40NGVKun5wWd20K5NOaBBo3JOMY3aqJIwQ9exsv9jOLq-pxy_rz8JsmPD3bnWt-WKCT-F51C3DPU4dgkQtWR01BiUpW7TJfccCogjwXSsb7dqcRO1rTiM4gyiw2w64e_9GpKRVhRjv-gogi5hQE5BpKpRg-ovozx_hynqnS0]--></g></svg>