<svg xmlns="http://www.w3.org/2000/svg" xmlns:xlink="http://www.w3.org/1999/xlink" contentStyleType="text/css" height="147px" preserveAspectRatio="none" style="width:1282px;height:147px;background:#FFFFFF;" version="1.1" viewBox="0 0 1282 147" width="1282px" zoomAndPan="magnify"><defs/><g><line style="stroke:#C0C0C0;stroke-width:1.0;" x1="0" x2="0" y1="6" y2="145.3047"/><line style="stroke:#C0C0C0;stroke-width:1.0;" x1="16" x2="16" y1="6" y2="145.3047"/><line style="stroke:#C0C0C0;stroke-width:1.0;" x1="32" x2="32" y1="6" y2="145.3047"/><line style="stroke:#C0C0C0;stroke-width:1.0;" x1="48" x2="48" y1="6" y2="145.3047"/><line style="stroke:#C0C0C0;stroke-width:1.0;" x1="64" x2="64" y1="6" y2="145.3047"/><line style="stroke:#C0C0C0;stroke-width:1.0;" x1="80" x2="80" y1="6" y2="145.3047"/><line style="stroke:#C0C0C0;stroke-width:1.0;" x1="96" x2="96" y1="6" y2="145.3047"/><line style="stroke:#C0C0C0;stroke-width:1.0;" x1="112" x2="112" y1="6" y2="145.3047"/><line style="stroke:#C0C0C0;stroke-width:1.0;" x1="128" x2="128" y1="6" y2="145.3047"/><line style="stroke:#C0C0C0;stroke-width:1.0;" x1="144" x2="144" y1="6" y2="145.3047"/><line style="stroke:#C0C0C0;stroke-width:1.0;" x1="160" x2="160" y1="6" y2="145.3047"/><line style="stroke:#C0C0C0;stroke-width:1.0;" x1="176" x2="176" y1="6" y2="145.3047"/><line style="stroke:#C0C0C0;stroke-width:1.0;" x1="192" x2="192" y1="6" y2="145.3047"/><line style="stroke:#C0C0C0;stroke-width:1.0;" x1="208" x2="208" y1="6" y2="145.3047"/><line style="stroke:#C0C0C0;stroke-width:1.0;" x1="224" x2="224" y1="6" y2="145.3047"/><line style="stroke:#C0C0C0;stroke-width:1.0;" x1="240" x2="240" y1="6" y2="145.3047"/><line style="stroke:#C0C0C0;stroke-width:1.0;" x1="256" x2="256" y1="6" y2="145.3047"/><line style="stroke:#C0C0C0;stroke-width:1.0;" x1="272" x2="272" y1="6" y2="145.3047"/><line style="stroke:#C0C0C0;stroke-width:1.0;" x1="288" x2="288" y1="6" y2="145.3047"/><line style="stroke:#C0C0C0;stroke-width:1.0;" x1="304" x2="304" y1="6" y2="145.3047"/><line style="stroke:#C0C0C0;stroke-width:1.0;" x1="320" x2="320" y1="6" y2="145.3047"/><line style="stroke:#C0C0C0;stroke-width:1.0;" x1="336" x2="336" y1="6" y2="145.3047"/><line style="stroke:#C0C0C0;stroke-width:1.0;" x1="352" x2="352" y1="6" y2="145.3047"/><line style="stroke:#C0C0C0;stroke-width:1.0;" x1="368" x2="368" y1="6" y2="145.3047"/><line style="stroke:#C0C0C0;stroke-width:1.0;" x1="384" x2="384" y1="6" y2="145.3047"/><line style="stroke:#C0C0C0;stroke-width:1.0;" x1="400" x2="400" y1="6" y2="145.3047"/><line style="stroke:#C0C0C0;stroke-width:1.0;" x1="416" x2="416" y1="6" y2="145.3047"/><line style="stroke:#C0C0C0;stroke-width:1.0;" x1="432" x2="432" y1="6" y2="145.3047"/><line style="stroke:#C0C0C0;stroke-width:1.0;" x1="448" x2="448" y1="6" y2="145.3047"/><line style="stroke:#C0C0C0;stroke-width:1.0;" x1="464" x2="464" y1="6" y2="145.3047"/><line style="stroke:#C0C0C0;stroke-width:1.0;" x1="480" x2="480" y1="6" y2="145.3047"/><line style="stroke:#C0C0C0;stroke-width:1.0;" x1="496" x2="496" y1="6" y2="145.3047"/><line style="stroke:#C0C0C0;stroke-width:1.0;" x1="512" x2="512" y1="6" y2="145.3047"/><line style="stroke:#C0C0C0;stroke-width:1.0;" x1="528" x2="528" y1="6" y2="145.3047"/><line style="stroke:#C0C0C0;stroke-width:1.0;" x1="544" x2="544" y1="6" y2="145.3047"/><line style="stroke:#C0C0C0;stroke-width:1.0;" x1="560" x2="560" y1="6" y2="145.3047"/><line style="stroke:#C0C0C0;stroke-width:1.0;" x1="576" x2="576" y1="6" y2="145.3047"/><line style="stroke:#C0C0C0;stroke-width:1.0;" x1="592" x2="592" y1="6" y2="145.3047"/><line style="stroke:#C0C0C0;stroke-width:1.0;" x1="608" x2="608" y1="6" y2="145.3047"/><line style="stroke:#C0C0C0;stroke-width:1.0;" x1="624" x2="624" y1="6" y2="145.3047"/><line style="stroke:#C0C0C0;stroke-width:1.0;" x1="640" x2="640" y1="6" y2="145.3047"/><line style="stroke:#C0C0C0;stroke-width:1.0;" x1="656" x2="656" y1="6" y2="145.3047"/><line style="stroke:#C0C0C0;stroke-width:1.0;" x1="672" x2="672" y1="6" y2="145.3047"/><line style="stroke:#C0C0C0;stroke-width:1.0;" x1="688" x2="688" y1="6" y2="145.3047"/><line style="stroke:#C0C0C0;stroke-width:1.0;" x1="704" x2="704" y1="6" y2="145.3047"/><line style="stroke:#C0C0C0;stroke-width:1.0;" x1="720" x2="720" y1="6" y2="145.3047"/><line style="stroke:#C0C0C0;stroke-width:1.0;" x1="736" x2="736" y1="6" y2="145.3047"/><line style="stroke:#C0C0C0;stroke-width:1.0;" x1="752" x2="752" y1="6" y2="145.3047"/><line style="stroke:#C0C0C0;stroke-width:1.0;" x1="768" x2="768" y1="6" y2="145.3047"/><line style="stroke:#C0C0C0;stroke-width:1.0;" x1="784" x2="784" y1="6" y2="145.3047"/><line style="stroke:#C0C0C0;stroke-width:1.0;" x1="800" x2="800" y1="6" y2="145.3047"/><line style="stroke:#C0C0C0;stroke-width:1.0;" x1="816" x2="816" y1="6" y2="145.3047"/><line style="stroke:#C0C0C0;stroke-width:1.0;" x1="832" x2="832" y1="6" y2="145.3047"/><line style="stroke:#C0C0C0;stroke-width:1.0;" x1="848" x2="848" y1="6" y2="145.3047"/><line style="stroke:#C0C0C0;stroke-width:1.0;" x1="864" x2="864" y1="6" y2="145.3047"/><line style="stroke:#C0C0C0;stroke-width:1.0;" x1="880" x2="880" y1="6" y2="145.3047"/><line style="stroke:#C0C0C0;stroke-width:1.0;" x1="896" x2="896" y1="6" y2="145.3047"/><line style="stroke:#C0C0C0;stroke-width:1.0;" x1="912" x2="912" y1="6" y2="145.3047"/><line style="stroke:#C0C0C0;stroke-width:1.0;" x1="928" x2="928" y1="6" y2="145.3047"/><line style="stroke:#C0C0C0;stroke-width:1.0;" x1="944" x2="944" y1="6" y2="145.3047"/><line style="stroke:#C0C0C0;stroke-width:1.0;" x1="960" x2="960" y1="6" y2="145.3047"/><line style="stroke:#C0C0C0;stroke-width:1.0;" x1="976" x2="976" y1="6" y2="145.3047"/><line style="stroke:#C0C0C0;stroke-width:1.0;" x1="992" x2="992" y1="6" y2="145.3047"/><line style="stroke:#C0C0C0;stroke-width:1.0;" x1="1008" x2="1008" y1="6" y2="145.3047"/><line style="stroke:#C0C0C0;stroke-width:1.0;" x1="1024" x2="1024" y1="6" y2="145.3047"/><line style="stroke:#C0C0C0;stroke-width:1.0;" x1="1040" x2="1040" y1="6" y2="145.3047"/><line style="stroke:#C0C0C0;stroke-width:1.0;" x1="1056" x2="1056" y1="6" y2="145.3047"/><line style="stroke:#C0C0C0;stroke-width:1.0;" x1="1072" x2="1072" y1="6" y2="145.3047"/><line style="stroke:#C0C0C0;stroke-width:1.0;" x1="1088" x2="1088" y1="6" y2="145.3047"/><line style="stroke:#C0C0C0;stroke-width:1.0;" x1="1104" x2="1104" y1="6" y2="145.3047"/><line style="stroke:#C0C0C0;stroke-width:1.0;" x1="1120" x2="1120" y1="6" y2="145.3047"/><line style="stroke:#C0C0C0;stroke-width:1.0;" x1="1136" x2="1136" y1="6" y2="145.3047"/><line style="stroke:#C0C0C0;stroke-width:1.0;" x1="1152" x2="1152" y1="6" y2="145.3047"/><line style="stroke:#C0C0C0;stroke-width:1.0;" x1="1168" x2="1168" y1="6" y2="145.3047"/><line style="stroke:#C0C0C0;stroke-width:1.0;" x1="1184" x2="1184" y1="6" y2="145.3047"/><line style="stroke:#C0C0C0;stroke-width:1.0;" x1="1200" x2="1200" y1="6" y2="145.3047"/><line style="stroke:#C0C0C0;stroke-width:1.0;" x1="1216" x2="1216" y1="6" y2="145.3047"/><line style="stroke:#C0C0C0;stroke-width:1.0;" x1="1232" x2="1232" y1="6" y2="145.3047"/><line style="stroke:#C0C0C0;stroke-width:1.0;" x1="1248" x2="1248" y1="6" y2="145.3047"/><line style="stroke:#C0C0C0;stroke-width:1.0;" x1="1264" x2="1264" y1="6" y2="145.3047"/><line style="stroke:#C0C0C0;stroke-width:1.0;" x1="1280" x2="1280" y1="6" y2="145.3047"/><text fill="#000000" font-family="sans-serif" font-size="10" lengthAdjust="spacing" textLength="6.3623" x="4.8188" y="9.2822">1</text><text fill="#000000" font-family="sans-serif" font-size="10" lengthAdjust="spacing" textLength="6.3623" x="20.8188" y="9.2822">2</text><text fill="#000000" font-family="sans-serif" font-size="10" lengthAdjust="spacing" textLength="6.3623" x="36.8188" y="9.2822">3</text><text fill="#000000" font-family="sans-serif" font-size="10" lengthAdjust="spacing" textLength="6.3623" x="52.8188" y="9.2822">4</text><text fill="#000000" font-family="sans-serif" font-size="10" lengthAdjust="spacing" textLength="6.3623" x="68.8188" y="9.2822">5</text><text fill="#000000" font-family="sans-serif" font-size="10" lengthAdjust="spacing" textLength="6.3623" x="84.8188" y="9.2822">6</text><text fill="#000000" font-family="sans-serif" font-size="10" lengthAdjust="spacing" textLength="6.3623" x="100.8188" y="9.2822">7</text><text fill="#000000" font-family="sans-serif" font-size="10" lengthAdjust="spacing" textLength="6.3623" x="116.8188" y="9.2822">8</text><text fill="#000000" font-family="sans-serif" font-size="10" lengthAdjust="spacing" textLength="6.3623" x="132.8188" y="9.2822">9</text><text fill="#000000" font-family="sans-serif" font-size="10" lengthAdjust="spacing" textLength="12.7246" x="145.6377" y="9.2822">10</text><text fill="#000000" font-family="sans-serif" font-size="10" lengthAdjust="spacing" textLength="12.7246" x="161.6377" y="9.2822">11</text><text fill="#000000" font-family="sans-serif" font-size="10" lengthAdjust="spacing" textLength="12.7246" x="177.6377" y="9.2822">12</text><text fill="#000000" font-family="sans-serif" font-size="10" lengthAdjust="spacing" textLength="12.7246" x="193.6377" y="9.2822">13</text><text fill="#000000" font-family="sans-serif" font-size="10" lengthAdjust="spacing" textLength="12.7246" x="209.6377" y="9.2822">14</text><text fill="#000000" font-family="sans-serif" font-size="10" lengthAdjust="spacing" textLength="12.7246" x="225.6377" y="9.2822">15</text><text fill="#000000" font-family="sans-serif" font-size="10" lengthAdjust="spacing" textLength="12.7246" x="241.6377" y="9.2822">16</text><text fill="#000000" font-family="sans-serif" font-size="10" lengthAdjust="spacing" textLength="12.7246" x="257.6377" y="9.2822">17</text><text fill="#000000" font-family="sans-serif" font-size="10" lengthAdjust="spacing" textLength="12.7246" x="273.6377" y="9.2822">18</text><text fill="#000000" font-family="sans-serif" font-size="10" lengthAdjust="spacing" textLength="12.7246" x="289.6377" y="9.2822">19</text><text fill="#000000" font-family="sans-serif" font-size="10" lengthAdjust="spacing" textLength="12.7246" x="305.6377" y="9.2822">20</text><text fill="#000000" font-family="sans-serif" font-size="10" lengthAdjust="spacing" textLength="12.7246" x="321.6377" y="9.2822">21</text><text fill="#000000" font-family="sans-serif" font-size="10" lengthAdjust="spacing" textLength="12.7246" x="337.6377" y="9.2822">22</text><text fill="#000000" font-family="sans-serif" font-size="10" lengthAdjust="spacing" textLength="12.7246" x="353.6377" y="9.2822">23</text><text fill="#000000" font-family="sans-serif" font-size="10" lengthAdjust="spacing" textLength="12.7246" x="369.6377" y="9.2822">24</text><text fill="#000000" font-family="sans-serif" font-size="10" lengthAdjust="spacing" textLength="12.7246" x="385.6377" y="9.2822">25</text><text fill="#000000" font-family="sans-serif" font-size="10" lengthAdjust="spacing" textLength="12.7246" x="401.6377" y="9.2822">26</text><text fill="#000000" font-family="sans-serif" font-size="10" lengthAdjust="spacing" textLength="12.7246" x="417.6377" y="9.2822">27</text><text fill="#000000" font-family="sans-serif" font-size="10" lengthAdjust="spacing" textLength="12.7246" x="433.6377" y="9.2822">28</text><text fill="#000000" font-family="sans-serif" font-size="10" lengthAdjust="spacing" textLength="12.7246" x="449.6377" y="9.2822">29</text><text fill="#000000" font-family="sans-serif" font-size="10" lengthAdjust="spacing" textLength="12.7246" x="465.6377" y="9.2822">30</text><text fill="#000000" font-family="sans-serif" font-size="10" lengthAdjust="spacing" textLength="12.7246" x="481.6377" y="9.2822">31</text><text fill="#000000" font-family="sans-serif" font-size="10" lengthAdjust="spacing" textLength="12.7246" x="497.6377" y="9.2822">32</text><text fill="#000000" font-family="sans-serif" font-size="10" lengthAdjust="spacing" textLength="12.7246" x="513.6377" y="9.2822">33</text><text fill="#000000" font-family="sans-serif" font-size="10" lengthAdjust="spacing" textLength="12.7246" x="529.6377" y="9.2822">34</text><text fill="#000000" font-family="sans-serif" font-size="10" lengthAdjust="spacing" textLength="12.7246" x="545.6377" y="9.2822">35</text><text fill="#000000" font-family="sans-serif" font-size="10" lengthAdjust="spacing" textLength="12.7246" x="561.6377" y="9.2822">36</text><text fill="#000000" font-family="sans-serif" font-size="10" lengthAdjust="spacing" textLength="12.7246" x="577.6377" y="9.2822">37</text><text fill="#000000" font-family="sans-serif" font-size="10" lengthAdjust="spacing" textLength="12.7246" x="593.6377" y="9.2822">38</text><text fill="#000000" font-family="sans-serif" font-size="10" lengthAdjust="spacing" textLength="12.7246" x="609.6377" y="9.2822">39</text><text fill="#000000" font-family="sans-serif" font-size="10" lengthAdjust="spacing" textLength="12.7246" x="625.6377" y="9.2822">40</text><text fill="#000000" font-family="sans-serif" font-size="10" lengthAdjust="spacing" textLength="12.7246" x="641.6377" y="9.2822">41</text><text fill="#000000" font-family="sans-serif" font-size="10" lengthAdjust="spacing" textLength="12.7246" x="657.6377" y="9.2822">42</text><text fill="#000000" font-family="sans-serif" font-size="10" lengthAdjust="spacing" textLength="12.7246" x="673.6377" y="9.2822">43</text><text fill="#000000" font-family="sans-serif" font-size="10" lengthAdjust="spacing" textLength="12.7246" x="689.6377" y="9.2822">44</text><text fill="#000000" font-family="sans-serif" font-size="10" lengthAdjust="spacing" textLength="12.7246" x="705.6377" y="9.2822">45</text><text fill="#000000" font-family="sans-serif" font-size="10" lengthAdjust="spacing" textLength="12.7246" x="721.6377" y="9.2822">46</text><text fill="#000000" font-family="sans-serif" font-size="10" lengthAdjust="spacing" textLength="12.7246" x="737.6377" y="9.2822">47</text><text fill="#000000" font-family="sans-serif" font-size="10" lengthAdjust="spacing" textLength="12.7246" x="753.6377" y="9.2822">48</text><text fill="#000000" font-family="sans-serif" font-size="10" lengthAdjust="spacing" textLength="12.7246" x="769.6377" y="9.2822">49</text><text fill="#000000" font-family="sans-serif" font-size="10" lengthAdjust="spacing" textLength="12.7246" x="785.6377" y="9.2822">50</text><text fill="#000000" font-family="sans-serif" font-size="10" lengthAdjust="spacing" textLength="12.7246" x="801.6377" y="9.2822">51</text><text fill="#000000" font-family="sans-serif" font-size="10" lengthAdjust="spacing" textLength="12.7246" x="817.6377" y="9.2822">52</text><text fill="#000000" font-family="sans-serif" font-size="10" lengthAdjust="spacing" textLength="12.7246" x="833.6377" y="9.2822">53</text><text fill="#000000" font-family="sans-serif" font-size="10" lengthAdjust="spacing" textLength="12.7246" x="849.6377" y="9.2822">54</text><text fill="#000000" font-family="sans-serif" font-size="10" lengthAdjust="spacing" textLength="12.7246" x="865.6377" y="9.2822">55</text><text fill="#000000" font-family="sans-serif" font-size="10" lengthAdjust="spacing" textLength="12.7246" x="881.6377" y="9.2822">56</text><text fill="#000000" font-family="sans-serif" font-size="10" lengthAdjust="spacing" textLength="12.7246" x="897.6377" y="9.2822">57</text><text fill="#000000" font-family="sans-serif" font-size="10" lengthAdjust="spacing" textLength="12.7246" x="913.6377" y="9.2822">58</text><text fill="#000000" font-family="sans-serif" font-size="10" lengthAdjust="spacing" textLength="12.7246" x="929.6377" y="9.2822">59</text><text fill="#000000" font-family="sans-serif" font-size="10" lengthAdjust="spacing" textLength="12.7246" x="945.6377" y="9.2822">60</text><text fill="#000000" font-family="sans-serif" font-size="10" lengthAdjust="spacing" textLength="12.7246" x="961.6377" y="9.2822">61</text><text fill="#000000" font-family="sans-serif" font-size="10" lengthAdjust="spacing" textLength="12.7246" x="977.6377" y="9.2822">62</text><text fill="#000000" font-family="sans-serif" font-size="10" lengthAdjust="spacing" textLength="12.7246" x="993.6377" y="9.2822">63</text><text fill="#000000" font-family="sans-serif" font-size="10" lengthAdjust="spacing" textLength="12.7246" x="1009.6377" y="9.2822">64</text><text fill="#000000" font-family="sans-serif" font-size="10" lengthAdjust="spacing" textLength="12.7246" x="1025.6377" y="9.2822">65</text><text fill="#000000" font-family="sans-serif" font-size="10" lengthAdjust="spacing" textLength="12.7246" x="1041.6377" y="9.2822">66</text><text fill="#000000" font-family="sans-serif" font-size="10" lengthAdjust="spacing" textLength="12.7246" x="1057.6377" y="9.2822">67</text><text fill="#000000" font-family="sans-serif" font-size="10" lengthAdjust="spacing" textLength="12.7246" x="1073.6377" y="9.2822">68</text><text fill="#000000" font-family="sans-serif" font-size="10" lengthAdjust="spacing" textLength="12.7246" x="1089.6377" y="9.2822">69</text><text fill="#000000" font-family="sans-serif" font-size="10" lengthAdjust="spacing" textLength="12.7246" x="1105.6377" y="9.2822">70</text><text fill="#000000" font-family="sans-serif" font-size="10" lengthAdjust="spacing" textLength="12.7246" x="1121.6377" y="9.2822">71</text><text fill="#000000" font-family="sans-serif" font-size="10" lengthAdjust="spacing" textLength="12.7246" x="1137.6377" y="9.2822">72</text><text fill="#000000" font-family="sans-serif" font-size="10" lengthAdjust="spacing" textLength="12.7246" x="1153.6377" y="9.2822">73</text><text fill="#000000" font-family="sans-serif" font-size="10" lengthAdjust="spacing" textLength="12.7246" x="1169.6377" y="9.2822">74</text><text fill="#000000" font-family="sans-serif" font-size="10" lengthAdjust="spacing" textLength="12.7246" x="1185.6377" y="9.2822">75</text><text fill="#000000" font-family="sans-serif" font-size="10" lengthAdjust="spacing" textLength="12.7246" x="1201.6377" y="9.2822">76</text><text fill="#000000" font-family="sans-serif" font-size="10" lengthAdjust="spacing" textLength="12.7246" x="1217.6377" y="9.2822">77</text><text fill="#000000" font-family="sans-serif" font-size="10" lengthAdjust="spacing" textLength="12.7246" x="1233.6377" y="9.2822">78</text><text fill="#000000" font-family="sans-serif" font-size="10" lengthAdjust="spacing" textLength="12.7246" x="1249.6377" y="9.2822">79</text><text fill="#000000" font-family="sans-serif" font-size="10" lengthAdjust="spacing" textLength="12.7246" x="1265.6377" y="9.2822">80</text><line style="stroke:#181818;stroke-width:1.5;" x1="151" x2="151" y1="30.8047" y2="41.207"/><line style="stroke:#181818;stroke-width:1.5;" x1="151" x2="159" y1="41.207" y2="41.207"/><polygon fill="#181818" points="155,37.207,155,41.207,155,45.207,159,41.207" style="stroke:#181818;stroke-width:1.5;"/><line style="stroke:#181818;stroke-width:1.5;" x1="311" x2="311" y1="47.6094" y2="78.4883"/><line style="stroke:#181818;stroke-width:1.5;" x1="311" x2="319" y1="78.4883" y2="78.4883"/><polygon fill="#181818" points="315,74.4883,315,78.4883,315,82.4883,319,78.4883" style="stroke:#181818;stroke-width:1.5;"/><line style="stroke:#181818;stroke-width:1.5;" x1="631" x2="631" y1="84.8906" y2="112.0977"/><line style="stroke:#181818;stroke-width:1.5;" x1="631" x2="639" y1="112.0977" y2="112.0977"/><polygon fill="#181818" points="635,108.0977,635,112.0977,635,116.0977,639,112.0977" style="stroke:#181818;stroke-width:1.5;"/><line style="stroke:#181818;stroke-width:1.5;" x1="152" x2="152" y1="101.6953" y2="112.0977"/><line style="stroke:#181818;stroke-width:1.5;" x1="152" x2="639" y1="112.0977" y2="112.0977"/><polygon fill="#181818" points="635,108.0977,635,112.0977,635,116.0977,639,112.0977" style="stroke:#181818;stroke-width:1.5;"/><line style="stroke:#181818;stroke-width:1.5;" x1="1111" x2="1111" y1="118.5" y2="128.9023"/><line style="stroke:#181818;stroke-width:1.5;" x1="1111" x2="1119" y1="128.9023" y2="128.9023"/><polygon fill="#181818" points="1115,124.9023,1115,128.9023,1115,132.9023,1119,128.9023" style="stroke:#181818;stroke-width:1.5;"/><rect fill="#E2E2F0" height="12.8047" style="stroke:none;stroke-width:1.0;" width="156" x="2" y="18"/><line style="stroke:#181818;stroke-width:1.0;" x1="2" x2="158" y1="18" y2="18"/><line style="stroke:#181818;stroke-width:1.0;" x1="2" x2="158" y1="30.8047" y2="30.8047"/><line style="stroke:#181818;stroke-width:1.0;" x1="2" x2="2" y1="18" y2="30.8047"/><line style="stroke:#181818;stroke-width:1.0;" x1="158" x2="158" y1="18" y2="30.8047"/><path d="M160,49.6094 L160,70.0859 L480.9355,70.0859 L480.9355,59.6094 L470.9355,49.6094 L160,49.6094 " fill="#FEFFDD" style="stroke:#181818;stroke-width:0.5;"/><path d="M470.9355,49.6094 L470.9355,59.6094 L480.9355,59.6094 L470.9355,49.6094 " fill="#FEFFDD" style="stroke:#181818;stroke-width:0.5;"/><text fill="#000000" font-family="sans-serif" font-size="9" lengthAdjust="spacing" textLength="299.9355" x="166" y="62.9634">Note.to_folder(), Note.from_folder(), Note.to_file(), Note.from_file()</text><rect fill="#E2E2F0" height="12.8047" style="stroke:none;stroke-width:1.0;" width="156" x="162" y="34.8047"/><line style="stroke:#181818;stroke-width:1.0;" x1="162" x2="318" y1="34.8047" y2="34.8047"/><line style="stroke:#181818;stroke-width:1.0;" x1="162" x2="318" y1="47.6094" y2="47.6094"/><line style="stroke:#181818;stroke-width:1.0;" x1="162" x2="162" y1="34.8047" y2="47.6094"/><line style="stroke:#181818;stroke-width:1.0;" x1="318" x2="318" y1="34.8047" y2="47.6094"/><rect fill="#E2E2F0" height="12.8047" style="stroke:none;stroke-width:1.0;" width="316" x="322" y="72.0859"/><line style="stroke:#181818;stroke-width:1.0;" x1="322" x2="638" y1="72.0859" y2="72.0859"/><line style="stroke:#181818;stroke-width:1.0;" x1="322" x2="638" y1="84.8906" y2="84.8906"/><line style="stroke:#181818;stroke-width:1.0;" x1="322" x2="322" y1="72.0859" y2="84.8906"/><line style="stroke:#181818;stroke-width:1.0;" x1="638" x2="638" y1="72.0859" y2="84.8906"/><rect fill="#E2E2F0" height="12.8047" style="stroke:none;stroke-width:1.0;" width="156" x="2" y="88.8906"/><line style="stroke:#181818;stroke-width:1.0;" x1="2" x2="158" y1="88.8906" y2="88.8906"/><line style="stroke:#181818;stroke-width:1.0;" x1="2" x2="158" y1="101.6953" y2="101.6953"/><line style="stroke:#181818;stroke-width:1.0;" x1="2" x2="2" y1="88.8906" y2="101.6953"/><line style="stroke:#181818;stroke-width:1.0;" x1="158" x2="158" y1="88.8906" y2="101.6953"/><rect fill="#E2E2F0" height="12.8047" style="stroke:none;stroke-width:1.0;" width="476" x="642" y="105.6953"/><line style="stroke:#181818;stroke-width:1.0;" x1="642" x2="1118" y1="105.6953" y2="105.6953"/><line style="stroke:#181818;stroke-width:1.0;" x1="642" x2="1118" y1="118.5" y2="118.5"/><line style="stroke:#181818;stroke-width:1.0;" x1="642" x2="642" y1="105.6953" y2="118.5"/><line style="stroke:#181818;stroke-width:1.0;" x1="1118" x2="1118" y1="105.6953" y2="118.5"/><rect fill="#E2E2F0" height="12.8047" style="stroke:none;stroke-width:1.0;" width="156" x="1122" y="122.5"/><line style="stroke:#181818;stroke-width:1.0;" x1="1122" x2="1278" y1="122.5" y2="122.5"/><line style="stroke:#181818;stroke-width:1.0;" x1="1122" x2="1278" y1="135.3047" y2="135.3047"/><line style="stroke:#181818;stroke-width:1.0;" x1="1122" x2="1122" y1="122.5" y2="135.3047"/><line style="stroke:#181818;stroke-width:1.0;" x1="1278" x2="1278" y1="122.5" y2="135.3047"/><text fill="#000000" font-family="sans-serif" font-size="11" lengthAdjust="spacing" textLength="116.2788" x="6" y="28.2104">Filesystem note spec</text><text fill="#000000" font-family="sans-serif" font-size="11" lengthAdjust="spacing" textLength="132.897" x="166" y="45.0151">Low-level filesystem API</text><text fill="#000000" font-family="sans-serif" font-size="11" lengthAdjust="spacing" textLength="103.1895" x="326" y="82.2964">Filesystem session</text><text fill="#000000" font-family="sans-serif" font-size="11" lengthAdjust="spacing" textLength="80.3999" x="6" y="99.1011">Virtual session</text><text fill="#000000" font-family="sans-serif" font-size="11" lengthAdjust="spacing" textLength="127.7085" x="646" y="115.9058">Session sync capability</text><text fill="#000000" font-family="sans-serif" font-size="11" lengthAdjust="spacing" textLength="47.0615" x="1126" y="132.7104">Sync CLI</text><!--SRC=[PLB1Ji904BtFLymH4Y4KZHWEHaLDG50ZoiKOihHJt6Ixs-nEqVwzszQsKdlPp9ltPjwRzCgniBmNcXdWKqQ4iJ6yCzy0x_TIaSiTKuBQCA5BAVn0uV0zTjkgKCAnms24aSYTbopDrq3HWHJ6hVZwUTx8H2gxgdBspZ2R1D1_ZxuUijd6HaLaU_sJ2ecjIRfOmV9xEfmI0T9HQViuY2FdfD5jZBgkF8sR91jfEHFgM73mO5VIXbzN3NIv3Z4KgTX99Jclf0LOIqvRIK6TBUSjPnig-NzqS_31PND6QExv2zR6u2XOqIoNGyV-dqPbhWPA2m1N_eA_FyQpyk_RQea7icN4O3WUZS-6azvQCAufnT44Ws0QN4o32Rwzph1ezw6tch-YCvaD2IFfsCfTnbxVXuKu27p9DCk4flYKabxSFjG0tcblrUY4DCDYise9vsU36rbijDu9RbPmIx7857j5Q2AfzrE__Nvm0KkXzvdO-zcaOMRyN9lxtle7]--></g></svg>