<?xml version="1.0" encoding="us-ascii" standalone="no"?><svg xmlns="http://www.w3.org/2000/svg" xmlns:xlink="http://www.w3.org/1999/xlink" contentStyleType="text/css" height="395px" preserveAspectRatio="none" style="width:401px;height:395px;background:#FFFFFF;" version="1.1" viewBox="0 0 401 395" width="401px" zoomAndPan="magnify"><defs/><g><!--cluster trilium_alchemy--><g id="cluster_trilium_alchemy"><path d="M8.5,6 L130.5,6 A3.75,3.75 0 0 1 133,8.5 L140,28.2969 L391.5,28.2969 A2.5,2.5 0 0 1 394,30.7969 L394,385.5 A2.5,2.5 0 0 1 391.5,388 L8.5,388 A2.5,2.5 0 0 1 6,385.5 L6,8.5 A2.5,2.5 0 0 1 8.5,6 " fill="none" style="stroke:#000000;stroke-width:1.5;"/><line style="stroke:#000000;stroke-width:1.5;" x1="6" x2="140" y1="28.2969" y2="28.2969"/><text fill="#000000" font-family="sans-serif" font-size="14" font-weight="bold" lengthAdjust="spacing" textLength="121" x="10" y="20.9951">trilium_alchemy</text></g><!--cluster core--><g id="cluster_core"><rect fill="none" height="315" rx="2.5" ry="2.5" style="stroke:#181818;stroke-width:1.0;" width="340" x="30" y="49"/><path d="M76,49 L76,58.2969 L66,68.2969 L30,68.2969 " fill="none" style="stroke:#181818;stroke-width:1.0;"/><text fill="#000000" font-family="sans-serif" font-size="14" font-weight="bold" lengthAdjust="spacing" textLength="36" x="33" y="62.9951">core</text></g><!--class Entity--><g id="elem_Entity"><rect codeLine="3" fill="#F1F1F1" height="48" id="Entity" rx="2.5" ry="2.5" style="stroke:#181818;stroke-width:0.5;" width="70" x="157" y="84"/><ellipse cx="172" cy="100" fill="#ADD1B2" rx="11" ry="11" style="stroke:#181818;stroke-width:1.0;"/><path d="M174.9688,105.6406 Q174.3906,105.9375 173.75,106.0781 Q173.1094,106.2344 172.4063,106.2344 Q169.9063,106.2344 168.5781,104.5938 Q167.2656,102.9375 167.2656,99.8125 Q167.2656,96.6875 168.5781,95.0313 Q169.9063,93.375 172.4063,93.375 Q173.1094,93.375 173.75,93.5313 Q174.4063,93.6875 174.9688,93.9844 L174.9688,96.7031 Q174.3438,96.125 173.75,95.8594 Q173.1563,95.5781 172.5313,95.5781 Q171.1875,95.5781 170.5,96.6563 Q169.8125,97.7188 169.8125,99.8125 Q169.8125,101.9063 170.5,102.9844 Q171.1875,104.0469 172.5313,104.0469 Q173.1563,104.0469 173.75,103.7813 Q174.3438,103.5 174.9688,102.9219 L174.9688,105.6406 Z " fill="#000000"/><text fill="#000000" font-family="sans-serif" font-size="14" lengthAdjust="spacing" textLength="38" x="186" y="104.8467">Entity</text><line style="stroke:#181818;stroke-width:0.5;" x1="158" x2="226" y1="116" y2="116"/><line style="stroke:#181818;stroke-width:0.5;" x1="158" x2="226" y1="124" y2="124"/></g><!--class Note--><g id="elem_Note"><rect codeLine="6" fill="#F1F1F1" height="48" id="Note" rx="2.5" ry="2.5" style="stroke:#181818;stroke-width:0.5;" width="65" x="46.5" y="192"/><ellipse cx="61.5" cy="208" fill="#ADD1B2" rx="11" ry="11" style="stroke:#181818;stroke-width:1.0;"/><path d="M64.4688,213.6406 Q63.8906,213.9375 63.25,214.0781 Q62.6094,214.2344 61.9063,214.2344 Q59.4063,214.2344 58.0781,212.5938 Q56.7656,210.9375 56.7656,207.8125 Q56.7656,204.6875 58.0781,203.0313 Q59.4063,201.375 61.9063,201.375 Q62.6094,201.375 63.25,201.5313 Q63.9063,201.6875 64.4688,201.9844 L64.4688,204.7031 Q63.8438,204.125 63.25,203.8594 Q62.6563,203.5781 62.0313,203.5781 Q60.6875,203.5781 60,204.6563 Q59.3125,205.7188 59.3125,207.8125 Q59.3125,209.9063 60,210.9844 Q60.6875,212.0469 62.0313,212.0469 Q62.6563,212.0469 63.25,211.7813 Q63.8438,211.5 64.4688,210.9219 L64.4688,213.6406 Z " fill="#000000"/><text fill="#000000" font-family="sans-serif" font-size="14" lengthAdjust="spacing" textLength="33" x="75.5" y="212.8467">Note</text><line style="stroke:#181818;stroke-width:0.5;" x1="47.5" x2="110.5" y1="224" y2="224"/><line style="stroke:#181818;stroke-width:0.5;" x1="47.5" x2="110.5" y1="232" y2="232"/></g><!--class Attribute--><g id="elem_Attribute"><rect codeLine="9" fill="#F1F1F1" height="48" id="Attribute" rx="2.5" ry="2.5" style="stroke:#181818;stroke-width:0.5;" width="91" x="146.5" y="192"/><ellipse cx="161.5" cy="208" fill="#ADD1B2" rx="11" ry="11" style="stroke:#181818;stroke-width:1.0;"/><path d="M164.4688,213.6406 Q163.8906,213.9375 163.25,214.0781 Q162.6094,214.2344 161.9063,214.2344 Q159.4063,214.2344 158.0781,212.5938 Q156.7656,210.9375 156.7656,207.8125 Q156.7656,204.6875 158.0781,203.0313 Q159.4063,201.375 161.9063,201.375 Q162.6094,201.375 163.25,201.5313 Q163.9063,201.6875 164.4688,201.9844 L164.4688,204.7031 Q163.8438,204.125 163.25,203.8594 Q162.6563,203.5781 162.0313,203.5781 Q160.6875,203.5781 160,204.6563 Q159.3125,205.7188 159.3125,207.8125 Q159.3125,209.9063 160,210.9844 Q160.6875,212.0469 162.0313,212.0469 Q162.6563,212.0469 163.25,211.7813 Q163.8438,211.5 164.4688,210.9219 L164.4688,213.6406 Z " fill="#000000"/><text fill="#000000" font-family="sans-serif" font-size="14" lengthAdjust="spacing" textLength="59" x="175.5" y="212.8467">Attribute</text><line style="stroke:#181818;stroke-width:0.5;" x1="147.5" x2="236.5" y1="224" y2="224"/><line style="stroke:#181818;stroke-width:0.5;" x1="147.5" x2="236.5" y1="232" y2="232"/></g><!--class Label--><g id="elem_Label"><rect codeLine="12" fill="#F1F1F1" height="48" id="Label" rx="2.5" ry="2.5" style="stroke:#181818;stroke-width:0.5;" width="68" x="102" y="300"/><ellipse cx="117" cy="316" fill="#ADD1B2" rx="11" ry="11" style="stroke:#181818;stroke-width:1.0;"/><path d="M119.9688,321.6406 Q119.3906,321.9375 118.75,322.0781 Q118.1094,322.2344 117.4063,322.2344 Q114.9063,322.2344 113.5781,320.5938 Q112.2656,318.9375 112.2656,315.8125 Q112.2656,312.6875 113.5781,311.0313 Q114.9063,309.375 117.4063,309.375 Q118.1094,309.375 118.75,309.5313 Q119.4063,309.6875 119.9688,309.9844 L119.9688,312.7031 Q119.3438,312.125 118.75,311.8594 Q118.1563,311.5781 117.5313,311.5781 Q116.1875,311.5781 115.5,312.6563 Q114.8125,313.7188 114.8125,315.8125 Q114.8125,317.9063 115.5,318.9844 Q116.1875,320.0469 117.5313,320.0469 Q118.1563,320.0469 118.75,319.7813 Q119.3438,319.5 119.9688,318.9219 L119.9688,321.6406 Z " fill="#000000"/><text fill="#000000" font-family="sans-serif" font-size="14" lengthAdjust="spacing" textLength="36" x="131" y="320.8467">Label</text><line style="stroke:#181818;stroke-width:0.5;" x1="103" x2="169" y1="332" y2="332"/><line style="stroke:#181818;stroke-width:0.5;" x1="103" x2="169" y1="340" y2="340"/></g><!--class Relation--><g id="elem_Relation"><rect codeLine="15" fill="#F1F1F1" height="48" id="Relation" rx="2.5" ry="2.5" style="stroke:#181818;stroke-width:0.5;" width="88" x="205" y="300"/><ellipse cx="220" cy="316" fill="#ADD1B2" rx="11" ry="11" style="stroke:#181818;stroke-width:1.0;"/><path d="M222.9688,321.6406 Q222.3906,321.9375 221.75,322.0781 Q221.1094,322.2344 220.4063,322.2344 Q217.9063,322.2344 216.5781,320.5938 Q215.2656,318.9375 215.2656,315.8125 Q215.2656,312.6875 216.5781,311.0313 Q217.9063,309.375 220.4063,309.375 Q221.1094,309.375 221.75,309.5313 Q222.4063,309.6875 222.9688,309.9844 L222.9688,312.7031 Q222.3438,312.125 221.75,311.8594 Q221.1563,311.5781 220.5313,311.5781 Q219.1875,311.5781 218.5,312.6563 Q217.8125,313.7188 217.8125,315.8125 Q217.8125,317.9063 218.5,318.9844 Q219.1875,320.0469 220.5313,320.0469 Q221.1563,320.0469 221.75,319.7813 Q222.3438,319.5 222.9688,318.9219 L222.9688,321.6406 Z " fill="#000000"/><text fill="#000000" font-family="sans-serif" font-size="14" lengthAdjust="spacing" textLength="56" x="234" y="320.8467">Relation</text><line style="stroke:#181818;stroke-width:0.5;" x1="206" x2="292" y1="332" y2="332"/><line style="stroke:#181818;stroke-width:0.5;" x1="206" x2="292" y1="340" y2="340"/></g><!--class Branch--><g id="elem_Branch"><rect codeLine="18" fill="#F1F1F1" height="48" id="Branch" rx="2.5" ry="2.5" style="stroke:#181818;stroke-width:0.5;" width="81" x="272.5" y="192"/><ellipse cx="287.5" cy="208" fill="#ADD1B2" rx="11" ry="11" style="stroke:#181818;stroke-width:1.0;"/><path d="M290.4688,213.6406 Q289.8906,213.9375 289.25,214.0781 Q288.6094,214.2344 287.9063,214.2344 Q285.4063,214.2344 284.0781,212.5938 Q282.7656,210.9375 282.7656,207.8125 Q282.7656,204.6875 284.0781,203.0313 Q285.4063,201.375 287.9063,201.375 Q288.6094,201.375 289.25,201.5313 Q289.9063,201.6875 290.4688,201.9844 L290.4688,204.7031 Q289.8438,204.125 289.25,203.8594 Q288.6563,203.5781 288.0313,203.5781 Q286.6875,203.5781 286,204.6563 Q285.3125,205.7188 285.3125,207.8125 Q285.3125,209.9063 286,210.9844 Q286.6875,212.0469 288.0313,212.0469 Q288.6563,212.0469 289.25,211.7813 Q289.8438,211.5 290.4688,210.9219 L290.4688,213.6406 Z " fill="#000000"/><text fill="#000000" font-family="sans-serif" font-size="14" lengthAdjust="spacing" textLength="49" x="301.5" y="212.8467">Branch</text><line style="stroke:#181818;stroke-width:0.5;" x1="273.5" x2="352.5" y1="224" y2="224"/><line style="stroke:#181818;stroke-width:0.5;" x1="273.5" x2="352.5" y1="232" y2="232"/></g><!--reverse link Entity to Note--><g id="link_Entity_Note"><path codeLine="21" d="M152.76,145.81 C136.53,161.04 118.19,178.24 103.86,191.68 " fill="none" id="Entity-backto-Note" style="stroke:#181818;stroke-width:1.0;"/><polygon fill="none" points="148.1,140.58,167.48,132,157.68,150.79,148.1,140.58" style="stroke:#181818;stroke-width:1.0;"/></g><!--reverse link Entity to Attribute--><g id="link_Entity_Attribute"><path codeLine="22" d="M192,152.02 C192,165.58 192,180.04 192,191.68 " fill="none" id="Entity-backto-Attribute" style="stroke:#181818;stroke-width:1.0;"/><polygon fill="none" points="185,152,192,132,199,152,185,152" style="stroke:#181818;stroke-width:1.0;"/></g><!--reverse link Entity to Branch--><g id="link_Entity_Branch"><path codeLine="23" d="M233.48,145.34 C250.99,160.68 270.88,178.1 286.38,191.68 " fill="none" id="Entity-backto-Branch" style="stroke:#181818;stroke-width:1.0;"/><polygon fill="none" points="228.69,150.44,218.26,132,237.91,139.91,228.69,150.44" style="stroke:#181818;stroke-width:1.0;"/></g><!--reverse link Attribute to Label--><g id="link_Attribute_Label"><path codeLine="24" d="M170.29,258.09 C162.84,272.2 154.76,287.48 148.32,299.68 " fill="none" id="Attribute-backto-Label" style="stroke:#181818;stroke-width:1.0;"/><polygon fill="none" points="164.32,254.41,179.85,240,176.7,260.95,164.32,254.41" style="stroke:#181818;stroke-width:1.0;"/></g><!--reverse link Attribute to Relation--><g id="link_Attribute_Relation"><path codeLine="25" d="M214.1,258.09 C221.68,272.2 229.9,287.48 236.46,299.68 " fill="none" id="Attribute-backto-Relation" style="stroke:#181818;stroke-width:1.0;"/><polygon fill="none" points="207.68,260.93,204.37,240,220.01,254.3,207.68,260.93" style="stroke:#181818;stroke-width:1.0;"/></g><!--SRC=[PP5TJy8m58Rl-olE9LoCR1ELB8Ge8YPpAE7BItFeZj3OjQHhIOZotor381ctpzk-xvES3V9lN15O8wHmnITAlgPYr-BQ47IxGuC5zNhmmm2unBA4PsM5tLLWpyxqJLkgiqVhIvVkEiXmIR8E9oJH2gtgl6zGyVM5_kztVuEWMgsXysYD7siyl5XLl7AvnYSRjcSFf7B6nXALdOyos98f3vfHAmxZcrOKDZueXzH9Y688EybjEmdlOJoOmI5liiRBE8DIEyC9Sb4ULtn1awMuHPWuBrbG0kyRKkdWzGIy_5OOhGfIbgMBqUN1NJle2mjJCbu55YCse2zqqleVNET2hHAOpuP1XsMeLixVDW5Ix4dxNhFpsVGF]--></g></svg>