<svg xmlns="http://www.w3.org/2000/svg" xmlns:xlink="http://www.w3.org/1999/xlink" contentStyleType="text/css" height="395px" preserveAspectRatio="none" style="width:439px;height:395px;background:#FFFFFF;" version="1.1" viewBox="0 0 439 395" width="439px" zoomAndPan="magnify"><defs/><g><!--cluster trilium_alchemy--><g id="cluster_trilium_alchemy"><path d="M8.5,6 L134.7686,6 A3.75,3.75 0 0 1 137.2686,8.5 L144.2686,28.2969 L429.5,28.2969 A2.5,2.5 0 0 1 432,30.7969 L432,385.5 A2.5,2.5 0 0 1 429.5,388 L8.5,388 A2.5,2.5 0 0 1 6,385.5 L6,8.5 A2.5,2.5 0 0 1 8.5,6 " fill="none" style="stroke:#000000;stroke-width:1.5;"/><line style="stroke:#000000;stroke-width:1.5;" x1="6" x2="144.2686" y1="28.2969" y2="28.2969"/><text fill="#000000" font-family="sans-serif" font-size="14" font-weight="bold" lengthAdjust="spacing" textLength="125.2686" x="10" y="20.9951">trilium_alchemy</text></g><!--cluster core--><g id="cluster_core"><rect fill="none" height="315" rx="2.5" ry="2.5" style="stroke:#181818;stroke-width:1.0;" width="378" x="30" y="49"/><path d="M74.3164,49 L74.3164,58.2969 L64.3164,68.2969 L30,68.2969 " fill="none" style="stroke:#181818;stroke-width:1.0;"/><text fill="#000000" font-family="sans-serif" font-size="14" font-weight="bold" lengthAdjust="spacing" textLength="34.3164" x="33" y="62.9951">core</text></g><!--class BaseEntity--><g id="elem_BaseEntity"><rect codeLine="3" fill="#F1F1F1" height="48" id="BaseEntity" rx="2.5" ry="2.5" style="stroke:#181818;stroke-width:0.5;" width="106.9629" x="157.5" y="84"/><ellipse cx="172.5" cy="100" fill="#ADD1B2" rx="11" ry="11" style="stroke:#181818;stroke-width:1.0;"/><path d="M175.4688,105.6406 Q174.8906,105.9375 174.25,106.0781 Q173.6094,106.2344 172.9063,106.2344 Q170.4063,106.2344 169.0781,104.5938 Q167.7656,102.9375 167.7656,99.8125 Q167.7656,96.6875 169.0781,95.0313 Q170.4063,93.375 172.9063,93.375 Q173.6094,93.375 174.25,93.5313 Q174.9063,93.6875 175.4688,93.9844 L175.4688,96.7031 Q174.8438,96.125 174.25,95.8594 Q173.6563,95.5781 173.0313,95.5781 Q171.6875,95.5781 171,96.6563 Q170.3125,97.7188 170.3125,99.8125 Q170.3125,101.9063 171,102.9844 Q171.6875,104.0469 173.0313,104.0469 Q173.6563,104.0469 174.25,103.7813 Q174.8438,103.5 175.4688,102.9219 L175.4688,105.6406 Z " fill="#000000"/><text fill="#000000" font-family="sans-serif" font-size="14" lengthAdjust="spacing" textLength="74.9629" x="186.5" y="104.8467">BaseEntity</text><line style="stroke:#181818;stroke-width:0.5;" x1="158.5" x2="263.4629" y1="116" y2="116"/><line style="stroke:#181818;stroke-width:0.5;" x1="158.5" x2="263.4629" y1="124" y2="124"/></g><!--class Note--><g id="elem_Note"><rect codeLine="6" fill="#F1F1F1" height="48" id="Note" rx="2.5" ry="2.5" style="stroke:#181818;stroke-width:0.5;" width="65.1406" x="46.5" y="192"/><ellipse cx="61.5" cy="208" fill="#ADD1B2" rx="11" ry="11" style="stroke:#181818;stroke-width:1.0;"/><path d="M64.4688,213.6406 Q63.8906,213.9375 63.25,214.0781 Q62.6094,214.2344 61.9063,214.2344 Q59.4063,214.2344 58.0781,212.5938 Q56.7656,210.9375 56.7656,207.8125 Q56.7656,204.6875 58.0781,203.0313 Q59.4063,201.375 61.9063,201.375 Q62.6094,201.375 63.25,201.5313 Q63.9063,201.6875 64.4688,201.9844 L64.4688,204.7031 Q63.8438,204.125 63.25,203.8594 Q62.6563,203.5781 62.0313,203.5781 Q60.6875,203.5781 60,204.6563 Q59.3125,205.7188 59.3125,207.8125 Q59.3125,209.9063 60,210.9844 Q60.6875,212.0469 62.0313,212.0469 Q62.6563,212.0469 63.25,211.7813 Q63.8438,211.5 64.4688,210.9219 L64.4688,213.6406 Z " fill="#000000"/><text fill="#000000" font-family="sans-serif" font-size="14" lengthAdjust="spacing" textLength="33.1406" x="75.5" y="212.8467">Note</text><line style="stroke:#181818;stroke-width:0.5;" x1="47.5" x2="110.6406" y1="224" y2="224"/><line style="stroke:#181818;stroke-width:0.5;" x1="47.5" x2="110.6406" y1="232" y2="232"/></g><!--class BaseAttribute--><g id="elem_BaseAttribute"><rect codeLine="9" fill="#F1F1F1" height="48" id="BaseAttribute" rx="2.5" ry="2.5" style="stroke:#181818;stroke-width:0.5;" width="128.1543" x="147" y="192"/><ellipse cx="162" cy="208" fill="#ADD1B2" rx="11" ry="11" style="stroke:#181818;stroke-width:1.0;"/><path d="M164.9688,213.6406 Q164.3906,213.9375 163.75,214.0781 Q163.1094,214.2344 162.4063,214.2344 Q159.9063,214.2344 158.5781,212.5938 Q157.2656,210.9375 157.2656,207.8125 Q157.2656,204.6875 158.5781,203.0313 Q159.9063,201.375 162.4063,201.375 Q163.1094,201.375 163.75,201.5313 Q164.4063,201.6875 164.9688,201.9844 L164.9688,204.7031 Q164.3438,204.125 163.75,203.8594 Q163.1563,203.5781 162.5313,203.5781 Q161.1875,203.5781 160.5,204.6563 Q159.8125,205.7188 159.8125,207.8125 Q159.8125,209.9063 160.5,210.9844 Q161.1875,212.0469 162.5313,212.0469 Q163.1563,212.0469 163.75,211.7813 Q164.3438,211.5 164.9688,210.9219 L164.9688,213.6406 Z " fill="#000000"/><text fill="#000000" font-family="sans-serif" font-size="14" lengthAdjust="spacing" textLength="96.1543" x="176" y="212.8467">BaseAttribute</text><line style="stroke:#181818;stroke-width:0.5;" x1="148" x2="274.1543" y1="224" y2="224"/><line style="stroke:#181818;stroke-width:0.5;" x1="148" x2="274.1543" y1="232" y2="232"/></g><!--class Label--><g id="elem_Label"><rect codeLine="12" fill="#F1F1F1" height="48" id="Label" rx="2.5" ry="2.5" style="stroke:#181818;stroke-width:0.5;" width="69.7686" x="118" y="300"/><ellipse cx="133" cy="316" fill="#ADD1B2" rx="11" ry="11" style="stroke:#181818;stroke-width:1.0;"/><path d="M135.9688,321.6406 Q135.3906,321.9375 134.75,322.0781 Q134.1094,322.2344 133.4063,322.2344 Q130.9063,322.2344 129.5781,320.5938 Q128.2656,318.9375 128.2656,315.8125 Q128.2656,312.6875 129.5781,311.0313 Q130.9063,309.375 133.4063,309.375 Q134.1094,309.375 134.75,309.5313 Q135.4063,309.6875 135.9688,309.9844 L135.9688,312.7031 Q135.3438,312.125 134.75,311.8594 Q134.1563,311.5781 133.5313,311.5781 Q132.1875,311.5781 131.5,312.6563 Q130.8125,313.7188 130.8125,315.8125 Q130.8125,317.9063 131.5,318.9844 Q132.1875,320.0469 133.5313,320.0469 Q134.1563,320.0469 134.75,319.7813 Q135.3438,319.5 135.9688,318.9219 L135.9688,321.6406 Z " fill="#000000"/><text fill="#000000" font-family="sans-serif" font-size="14" lengthAdjust="spacing" textLength="37.7686" x="147" y="320.8467">Label</text><line style="stroke:#181818;stroke-width:0.5;" x1="119" x2="186.7686" y1="332" y2="332"/><line style="stroke:#181818;stroke-width:0.5;" x1="119" x2="186.7686" y1="340" y2="340"/></g><!--class Relation--><g id="elem_Relation"><rect codeLine="15" fill="#F1F1F1" height="48" id="Relation" rx="2.5" ry="2.5" style="stroke:#181818;stroke-width:0.5;" width="89.627" x="223" y="300"/><ellipse cx="238" cy="316" fill="#ADD1B2" rx="11" ry="11" style="stroke:#181818;stroke-width:1.0;"/><path d="M240.9688,321.6406 Q240.3906,321.9375 239.75,322.0781 Q239.1094,322.2344 238.4063,322.2344 Q235.9063,322.2344 234.5781,320.5938 Q233.2656,318.9375 233.2656,315.8125 Q233.2656,312.6875 234.5781,311.0313 Q235.9063,309.375 238.4063,309.375 Q239.1094,309.375 239.75,309.5313 Q240.4063,309.6875 240.9688,309.9844 L240.9688,312.7031 Q240.3438,312.125 239.75,311.8594 Q239.1563,311.5781 238.5313,311.5781 Q237.1875,311.5781 236.5,312.6563 Q235.8125,313.7188 235.8125,315.8125 Q235.8125,317.9063 236.5,318.9844 Q237.1875,320.0469 238.5313,320.0469 Q239.1563,320.0469 239.75,319.7813 Q240.3438,319.5 240.9688,318.9219 L240.9688,321.6406 Z " fill="#000000"/><text fill="#000000" font-family="sans-serif" font-size="14" lengthAdjust="spacing" textLength="57.627" x="252" y="320.8467">Relation</text><line style="stroke:#181818;stroke-width:0.5;" x1="224" x2="311.627" y1="332" y2="332"/><line style="stroke:#181818;stroke-width:0.5;" x1="224" x2="311.627" y1="340" y2="340"/></g><!--class Branch--><g id="elem_Branch"><rect codeLine="18" fill="#F1F1F1" height="48" id="Branch" rx="2.5" ry="2.5" style="stroke:#181818;stroke-width:0.5;" width="81.3828" x="310.5" y="192"/><ellipse cx="325.5" cy="208" fill="#ADD1B2" rx="11" ry="11" style="stroke:#181818;stroke-width:1.0;"/><path d="M328.4688,213.6406 Q327.8906,213.9375 327.25,214.0781 Q326.6094,214.2344 325.9063,214.2344 Q323.4063,214.2344 322.0781,212.5938 Q320.7656,210.9375 320.7656,207.8125 Q320.7656,204.6875 322.0781,203.0313 Q323.4063,201.375 325.9063,201.375 Q326.6094,201.375 327.25,201.5313 Q327.9063,201.6875 328.4688,201.9844 L328.4688,204.7031 Q327.8438,204.125 327.25,203.8594 Q326.6563,203.5781 326.0313,203.5781 Q324.6875,203.5781 324,204.6563 Q323.3125,205.7188 323.3125,207.8125 Q323.3125,209.9063 324,210.9844 Q324.6875,212.0469 326.0313,212.0469 Q326.6563,212.0469 327.25,211.7813 Q327.8438,211.5 328.4688,210.9219 L328.4688,213.6406 Z " fill="#000000"/><text fill="#000000" font-family="sans-serif" font-size="14" lengthAdjust="spacing" textLength="49.3828" x="339.5" y="212.8467">Branch</text><line style="stroke:#181818;stroke-width:0.5;" x1="311.5" x2="390.8828" y1="224" y2="224"/><line style="stroke:#181818;stroke-width:0.5;" x1="311.5" x2="390.8828" y1="232" y2="232"/></g><!--reverse link BaseEntity to Note--><g id="link_BaseEntity_Note"><path codeLine="21" d="M168.3256,143.271 C146.3356,160.931 130.13,173.94 108.04,191.68 " fill="none" id="BaseEntity-backto-Note" style="stroke:#181818;stroke-width:1.0;"/><polygon fill="none" points="182.36,132,164.5686,138.5928,172.0825,147.9491,182.36,132" style="stroke:#181818;stroke-width:1.0;"/></g><!--reverse link BaseEntity to BaseAttribute--><g id="link_BaseEntity_BaseAttribute"><path codeLine="22" d="M211,150 C211,167.66 211,173.94 211,191.68 " fill="none" id="BaseEntity-backto-BaseAttribute" style="stroke:#181818;stroke-width:1.0;"/><polygon fill="none" points="211,132,205,150,217,150,211,132" style="stroke:#181818;stroke-width:1.0;"/></g><!--reverse link BaseEntity to Branch--><g id="link_BaseEntity_Branch"><path codeLine="23" d="M255.7296,142.8668 C279.0496,160.5268 296.77,173.94 320.2,191.68 " fill="none" id="BaseEntity-backto-Branch" style="stroke:#181818;stroke-width:1.0;"/><polygon fill="none" points="241.38,132,252.1074,147.65,259.3519,138.0836,241.38,132" style="stroke:#181818;stroke-width:1.0;"/></g><!--reverse link BaseAttribute to Label--><g id="link_BaseAttribute_Label"><path codeLine="24" d="M189.7719,255.7919 C180.1119,273.4519 175.47,281.94 165.76,299.68 " fill="none" id="BaseAttribute-backto-Label" style="stroke:#181818;stroke-width:1.0;"/><polygon fill="none" points="198.41,240,184.5079,252.9125,195.0358,258.6712,198.41,240" style="stroke:#181818;stroke-width:1.0;"/></g><!--reverse link BaseAttribute to Relation--><g id="link_BaseAttribute_Relation"><path codeLine="25" d="M231.8904,255.8557 C241.3804,273.5157 245.92,281.94 255.46,299.68 " fill="none" id="BaseAttribute-backto-Relation" style="stroke:#181818;stroke-width:1.0;"/><polygon fill="none" points="223.37,240,226.6052,258.6958,237.1756,253.0155,223.37,240" style="stroke:#181818;stroke-width:1.0;"/></g><!--SRC=[RP7BRi8m44Nt_efPmY8HGQYW2A6MbrIQj1MlRJMOALXrREGuaQAMVwyJIjC2stiyznx91-GVk2EmHaYH9Mye-PwImkVQ4FJxKuC93GRmoG2un3I58QOqKLROeWgFx9SyQqkNMVdwmRhoJNOD8zoGl0pd9D4AhQwQ32g-hzC_7lqlpwlMRyJ_16xnglO7rAOLg_nkexCbEx9xKbl6NYKgkueZoCcafNxWjrljZjzjBD32WWxGwa8GX44l3BgmMewWn4tMY1-NaEhCS8AjI4yZxhx9PfWZp3Fdcb08BmTIi_7JEO29oeNHAY5bsMmTrm_kEjvGb8l6cS0wPcDwnqnQTy7rLgXTwDQdNez5g7QP-_eGIB6HThscS6pn3G00]--></g></svg>