<svg xmlns="http://www.w3.org/2000/svg" xmlns:xlink="http://www.w3.org/1999/xlink" contentStyleType="text/css" height="175px" preserveAspectRatio="none" style="width:578px;height:175px;background:#FFFFFF;" version="1.1" viewBox="0 0 578 175" width="578px" zoomAndPan="magnify"><defs/><g><line style="stroke:#C0C0C0;stroke-width:1.0;" x1="0" x2="0" y1="6" y2="173.125"/><line style="stroke:#C0C0C0;stroke-width:1.0;" x1="16" x2="16" y1="6" y2="173.125"/><line style="stroke:#C0C0C0;stroke-width:1.0;" x1="32" x2="32" y1="6" y2="173.125"/><line style="stroke:#C0C0C0;stroke-width:1.0;" x1="48" x2="48" y1="6" y2="173.125"/><line style="stroke:#C0C0C0;stroke-width:1.0;" x1="64" x2="64" y1="6" y2="173.125"/><line style="stroke:#C0C0C0;stroke-width:1.0;" x1="80" x2="80" y1="6" y2="173.125"/><line style="stroke:#C0C0C0;stroke-width:1.0;" x1="96" x2="96" y1="6" y2="173.125"/><line style="stroke:#C0C0C0;stroke-width:1.0;" x1="112" x2="112" y1="6" y2="173.125"/><line style="stroke:#C0C0C0;stroke-width:1.0;" x1="128" x2="128" y1="6" y2="173.125"/><line style="stroke:#C0C0C0;stroke-width:1.0;" x1="144" x2="144" y1="6" y2="173.125"/><line style="stroke:#C0C0C0;stroke-width:1.0;" x1="160" x2="160" y1="6" y2="173.125"/><line style="stroke:#C0C0C0;stroke-width:1.0;" x1="176" x2="176" y1="6" y2="173.125"/><line style="stroke:#C0C0C0;stroke-width:1.0;" x1="192" x2="192" y1="6" y2="173.125"/><line style="stroke:#C0C0C0;stroke-width:1.0;" x1="208" x2="208" y1="6" y2="173.125"/><line style="stroke:#C0C0C0;stroke-width:1.0;" x1="224" x2="224" y1="6" y2="173.125"/><line style="stroke:#C0C0C0;stroke-width:1.0;" x1="240" x2="240" y1="6" y2="173.125"/><line style="stroke:#C0C0C0;stroke-width:1.0;" x1="256" x2="256" y1="6" y2="173.125"/><line style="stroke:#C0C0C0;stroke-width:1.0;" x1="272" x2="272" y1="6" y2="173.125"/><line style="stroke:#C0C0C0;stroke-width:1.0;" x1="288" x2="288" y1="6" y2="173.125"/><line style="stroke:#C0C0C0;stroke-width:1.0;" x1="304" x2="304" y1="6" y2="173.125"/><line style="stroke:#C0C0C0;stroke-width:1.0;" x1="320" x2="320" y1="6" y2="173.125"/><line style="stroke:#C0C0C0;stroke-width:1.0;" x1="336" x2="336" y1="6" y2="173.125"/><line style="stroke:#C0C0C0;stroke-width:1.0;" x1="352" x2="352" y1="6" y2="173.125"/><line style="stroke:#C0C0C0;stroke-width:1.0;" x1="368" x2="368" y1="6" y2="173.125"/><line style="stroke:#C0C0C0;stroke-width:1.0;" x1="384" x2="384" y1="6" y2="173.125"/><line style="stroke:#C0C0C0;stroke-width:1.0;" x1="400" x2="400" y1="6" y2="173.125"/><line style="stroke:#C0C0C0;stroke-width:1.0;" x1="416" x2="416" y1="6" y2="173.125"/><line style="stroke:#C0C0C0;stroke-width:1.0;" x1="432" x2="432" y1="6" y2="173.125"/><line style="stroke:#C0C0C0;stroke-width:1.0;" x1="448" x2="448" y1="6" y2="173.125"/><line style="stroke:#C0C0C0;stroke-width:1.0;" x1="464" x2="464" y1="6" y2="173.125"/><line style="stroke:#C0C0C0;stroke-width:1.0;" x1="480" x2="480" y1="6" y2="173.125"/><line style="stroke:#C0C0C0;stroke-width:1.0;" x1="496" x2="496" y1="6" y2="173.125"/><line style="stroke:#C0C0C0;stroke-width:1.0;" x1="512" x2="512" y1="6" y2="173.125"/><line style="stroke:#C0C0C0;stroke-width:1.0;" x1="528" x2="528" y1="6" y2="173.125"/><line style="stroke:#C0C0C0;stroke-width:1.0;" x1="544" x2="544" y1="6" y2="173.125"/><line style="stroke:#C0C0C0;stroke-width:1.0;" x1="560" x2="560" y1="6" y2="173.125"/><line style="stroke:#C0C0C0;stroke-width:1.0;" x1="576" x2="576" y1="6" y2="173.125"/><text fill="#000000" font-family="sans-serif" font-size="10" lengthAdjust="spacing" textLength="6.3623" x="4.8188" y="9.2822">1</text><text fill="#000000" font-family="sans-serif" font-size="10" lengthAdjust="spacing" textLength="6.3623" x="20.8188" y="9.2822">2</text><text fill="#000000" font-family="sans-serif" font-size="10" lengthAdjust="spacing" textLength="6.3623" x="36.8188" y="9.2822">3</text><text fill="#000000" font-family="sans-serif" font-size="10" lengthAdjust="spacing" textLength="6.3623" x="52.8188" y="9.2822">4</text><text fill="#000000" font-family="sans-serif" font-size="10" lengthAdjust="spacing" textLength="6.3623" x="68.8188" y="9.2822">5</text><text fill="#000000" font-family="sans-serif" font-size="10" lengthAdjust="spacing" textLength="6.3623" x="84.8188" y="9.2822">6</text><text fill="#000000" font-family="sans-serif" font-size="10" lengthAdjust="spacing" textLength="6.3623" x="100.8188" y="9.2822">7</text><text fill="#000000" font-family="sans-serif" font-size="10" lengthAdjust="spacing" textLength="6.3623" x="116.8188" y="9.2822">8</text><text fill="#000000" font-family="sans-serif" font-size="10" lengthAdjust="spacing" textLength="6.3623" x="132.8188" y="9.2822">9</text><text fill="#000000" font-family="sans-serif" font-size="10" lengthAdjust="spacing" textLength="12.7246" x="145.6377" y="9.2822">10</text><text fill="#000000" font-family="sans-serif" font-size="10" lengthAdjust="spacing" textLength="12.7246" x="161.6377" y="9.2822">11</text><text fill="#000000" font-family="sans-serif" font-size="10" lengthAdjust="spacing" textLength="12.7246" x="177.6377" y="9.2822">12</text><text fill="#000000" font-family="sans-serif" font-size="10" lengthAdjust="spacing" textLength="12.7246" x="193.6377" y="9.2822">13</text><text fill="#000000" font-family="sans-serif" font-size="10" lengthAdjust="spacing" textLength="12.7246" x="209.6377" y="9.2822">14</text><text fill="#000000" font-family="sans-serif" font-size="10" lengthAdjust="spacing" textLength="12.7246" x="225.6377" y="9.2822">15</text><text fill="#000000" font-family="sans-serif" font-size="10" lengthAdjust="spacing" textLength="12.7246" x="241.6377" y="9.2822">16</text><text fill="#000000" font-family="sans-serif" font-size="10" lengthAdjust="spacing" textLength="12.7246" x="257.6377" y="9.2822">17</text><text fill="#000000" font-family="sans-serif" font-size="10" lengthAdjust="spacing" textLength="12.7246" x="273.6377" y="9.2822">18</text><text fill="#000000" font-family="sans-serif" font-size="10" lengthAdjust="spacing" textLength="12.7246" x="289.6377" y="9.2822">19</text><text fill="#000000" font-family="sans-serif" font-size="10" lengthAdjust="spacing" textLength="12.7246" x="305.6377" y="9.2822">20</text><text fill="#000000" font-family="sans-serif" font-size="10" lengthAdjust="spacing" textLength="12.7246" x="321.6377" y="9.2822">21</text><text fill="#000000" font-family="sans-serif" font-size="10" lengthAdjust="spacing" textLength="12.7246" x="337.6377" y="9.2822">22</text><text fill="#000000" font-family="sans-serif" font-size="10" lengthAdjust="spacing" textLength="12.7246" x="353.6377" y="9.2822">23</text><text fill="#000000" font-family="sans-serif" font-size="10" lengthAdjust="spacing" textLength="12.7246" x="369.6377" y="9.2822">24</text><text fill="#000000" font-family="sans-serif" font-size="10" lengthAdjust="spacing" textLength="12.7246" x="385.6377" y="9.2822">25</text><text fill="#000000" font-family="sans-serif" font-size="10" lengthAdjust="spacing" textLength="12.7246" x="401.6377" y="9.2822">26</text><text fill="#000000" font-family="sans-serif" font-size="10" lengthAdjust="spacing" textLength="12.7246" x="417.6377" y="9.2822">27</text><text fill="#000000" font-family="sans-serif" font-size="10" lengthAdjust="spacing" textLength="12.7246" x="433.6377" y="9.2822">28</text><text fill="#000000" font-family="sans-serif" font-size="10" lengthAdjust="spacing" textLength="12.7246" x="449.6377" y="9.2822">29</text><text fill="#000000" font-family="sans-serif" font-size="10" lengthAdjust="spacing" textLength="12.7246" x="465.6377" y="9.2822">30</text><text fill="#000000" font-family="sans-serif" font-size="10" lengthAdjust="spacing" textLength="12.7246" x="481.6377" y="9.2822">31</text><text fill="#000000" font-family="sans-serif" font-size="10" lengthAdjust="spacing" textLength="12.7246" x="497.6377" y="9.2822">32</text><text fill="#000000" font-family="sans-serif" font-size="10" lengthAdjust="spacing" textLength="12.7246" x="513.6377" y="9.2822">33</text><text fill="#000000" font-family="sans-serif" font-size="10" lengthAdjust="spacing" textLength="12.7246" x="529.6377" y="9.2822">34</text><text fill="#000000" font-family="sans-serif" font-size="10" lengthAdjust="spacing" textLength="12.7246" x="545.6377" y="9.2822">35</text><text fill="#000000" font-family="sans-serif" font-size="10" lengthAdjust="spacing" textLength="12.7246" x="561.6377" y="9.2822">36</text><line style="stroke:#181818;stroke-width:1.5;" x1="23" x2="23" y1="30.8047" y2="61.6836"/><line style="stroke:#181818;stroke-width:1.5;" x1="23" x2="31" y1="61.6836" y2="61.6836"/><polygon fill="#181818" points="27,57.6836,27,61.6836,27,65.6836,31,61.6836" style="stroke:#181818;stroke-width:1.5;"/><line style="stroke:#181818;stroke-width:1.5;" x1="55" x2="55" y1="68.0859" y2="98.9648"/><line style="stroke:#181818;stroke-width:1.5;" x1="55" x2="63" y1="98.9648" y2="98.9648"/><polygon fill="#181818" points="59,94.9648,59,98.9648,59,102.9648,63,98.9648" style="stroke:#181818;stroke-width:1.5;"/><line style="stroke:#181818;stroke-width:1.5;" x1="87" x2="87" y1="105.3672" y2="136.2461"/><line style="stroke:#181818;stroke-width:1.5;" x1="87" x2="95" y1="136.2461" y2="136.2461"/><polygon fill="#181818" points="91,132.2461,91,136.2461,91,140.2461,95,136.2461" style="stroke:#181818;stroke-width:1.5;"/><path d="M0,32.8047 L0,53.2813 L507.7251,53.2813 L507.7251,42.8047 L497.7251,32.8047 L0,32.8047 " fill="#FEFFDD" style="stroke:#181818;stroke-width:0.5;"/><path d="M497.7251,32.8047 L497.7251,42.8047 L507.7251,42.8047 L497.7251,32.8047 " fill="#FEFFDD" style="stroke:#181818;stroke-width:0.5;"/><text fill="#000000" font-family="sans-serif" font-size="9" lengthAdjust="spacing" textLength="486.7251" x="6" y="46.1587">Synchronizes a given note with a given template, useful if template changes were made after note creation</text><rect fill="#E2E2F0" height="12.8047" style="stroke:none;stroke-width:1.0;" width="28" x="2" y="18"/><line style="stroke:#181818;stroke-width:1.0;" x1="2" x2="30" y1="18" y2="18"/><line style="stroke:#181818;stroke-width:1.0;" x1="2" x2="30" y1="30.8047" y2="30.8047"/><line style="stroke:#181818;stroke-width:1.0;" x1="2" x2="2" y1="18" y2="30.8047"/><line style="stroke:#181818;stroke-width:1.0;" x1="30" x2="30" y1="18" y2="30.8047"/><path d="M32,70.0859 L32,90.5625 L253.3291,90.5625 L253.3291,80.0859 L243.3291,70.0859 L32,70.0859 " fill="#FEFFDD" style="stroke:#181818;stroke-width:0.5;"/><path d="M243.3291,70.0859 L243.3291,80.0859 L253.3291,80.0859 L243.3291,70.0859 " fill="#FEFFDD" style="stroke:#181818;stroke-width:0.5;"/><text fill="#000000" font-family="sans-serif" font-size="9" lengthAdjust="spacing" textLength="200.3291" x="38" y="83.4399">Invoke template re-sync from command line</text><rect fill="#E2E2F0" height="12.8047" style="stroke:none;stroke-width:1.0;" width="28" x="34" y="55.2813"/><line style="stroke:#181818;stroke-width:1.0;" x1="34" x2="62" y1="55.2813" y2="55.2813"/><line style="stroke:#181818;stroke-width:1.0;" x1="34" x2="62" y1="68.0859" y2="68.0859"/><line style="stroke:#181818;stroke-width:1.0;" x1="34" x2="34" y1="55.2813" y2="68.0859"/><line style="stroke:#181818;stroke-width:1.0;" x1="62" x2="62" y1="55.2813" y2="68.0859"/><path d="M64,107.3672 L64,127.8438 L385.2036,127.8438 L385.2036,117.3672 L375.2036,107.3672 L64,107.3672 " fill="#FEFFDD" style="stroke:#181818;stroke-width:0.5;"/><path d="M375.2036,107.3672 L375.2036,117.3672 L385.2036,117.3672 L375.2036,107.3672 " fill="#FEFFDD" style="stroke:#181818;stroke-width:0.5;"/><text fill="#000000" font-family="sans-serif" font-size="9" lengthAdjust="spacing" textLength="300.2036" x="70" y="120.7212">Invoke backup and export/import functionality from command line</text><rect fill="#E2E2F0" height="12.8047" style="stroke:none;stroke-width:1.0;" width="28" x="66" y="92.5625"/><line style="stroke:#181818;stroke-width:1.0;" x1="66" x2="94" y1="92.5625" y2="92.5625"/><line style="stroke:#181818;stroke-width:1.0;" x1="66" x2="94" y1="105.3672" y2="105.3672"/><line style="stroke:#181818;stroke-width:1.0;" x1="66" x2="66" y1="92.5625" y2="105.3672"/><line style="stroke:#181818;stroke-width:1.0;" x1="94" x2="94" y1="92.5625" y2="105.3672"/><path d="M96,144.6484 L96,165.125 L425.25,165.125 L425.25,154.6484 L415.25,144.6484 L96,144.6484 " fill="#FEFFDD" style="stroke:#181818;stroke-width:0.5;"/><path d="M415.25,144.6484 L415.25,154.6484 L425.25,154.6484 L415.25,144.6484 " fill="#FEFFDD" style="stroke:#181818;stroke-width:0.5;"/><text fill="#000000" font-family="sans-serif" font-size="9" lengthAdjust="spacing" textLength="308.25" x="102" y="158.0024">Manage extensions, themes, etc from a local folder or Git repository</text><rect fill="#E2E2F0" height="12.8047" style="stroke:none;stroke-width:1.0;" width="476" x="98" y="129.8438"/><line style="stroke:#181818;stroke-width:1.0;" x1="98" x2="574" y1="129.8438" y2="129.8438"/><line style="stroke:#181818;stroke-width:1.0;" x1="98" x2="574" y1="142.6484" y2="142.6484"/><line style="stroke:#181818;stroke-width:1.0;" x1="98" x2="98" y1="129.8438" y2="142.6484"/><line style="stroke:#181818;stroke-width:1.0;" x1="574" x2="574" y1="129.8438" y2="142.6484"/><text fill="#000000" font-family="sans-serif" font-size="11" lengthAdjust="spacing" textLength="116.9771" x="34" y="28.2104">Template re-sync API</text><text fill="#000000" font-family="sans-serif" font-size="11" lengthAdjust="spacing" textLength="75.3135" x="66" y="65.4917">Initial CLI tool</text><text fill="#000000" font-family="sans-serif" font-size="11" lengthAdjust="spacing" textLength="126.6128" x="98" y="102.7729">CLI tool enhancements</text><text fill="#000000" font-family="sans-serif" font-size="11" lengthAdjust="spacing" textLength="175.8765" x="102" y="140.0542">CLI tool extension management</text><!--SRC=[ZLDDRnf13BtFh_0naK8AD2eHXoejQIieg54XkKHHP7QzCChiU3NZ9T1VN-_2yg56QlOoMZ_RxyspvoOA1bcW5u70cEPOjEe_OvOs9SYOPSvhOnvdb1SEXI1GAsvy0b_kXa-04HvbXpm7ge0dS1WbGXTIt4JZMMlcBCAv0Vscch8CxEqVYe2mi2loK2UzMbdk8qtJ2oWZPQK3c-rZa2pHBxJybG91ZgeJCw6mRPC4Gh7i3VcqZgZueRTYqS5WF0HXTblXYRFFTelyH_JGh_Y53W8Q3xB0EIISvwXSpdew9ct8WBpgJIWdB_70V1fz3_qSavUoW8gBrWK7-M3pwe2iz4brPNHMDkyLjHRoKOlKG8-BMiUHk0RTI_lOVblRfAu-j8iN84ljfYV9pY44nudQdx5BTKmSu8VLVQE2enKEcsE1_snJw_FffCpft1hun4xpXiFxnCFLZBbHvjs-tpazxoTZM56eVUbSTjlTgylUsHG5fbH0kmUTJhzptU_qu7usW0e-DsUJuGmYbo4XI6sKOETbDOnpCy8Lmk_IYysf3xyAygFRdqq0llcLrNTGgJEZXyaXuTDLwwkj68CgWOU9kQKCIoTQaN1g_QAlxDzRrsQihw1Ky_kwOMR0sZTi59l-1G00]--></g></svg>