<svg xmlns="http://www.w3.org/2000/svg" xmlns:xlink="http://www.w3.org/1999/xlink" contentStyleType="text/css" height="395px" preserveAspectRatio="none" style="width:657px;height:395px;background:#FFFFFF;" version="1.1" viewBox="0 0 657 395" width="657px" zoomAndPan="magnify"><defs/><g><!--cluster trilium_alchemy--><g id="cluster_trilium_alchemy"><path d="M8.5,6 L134.7686,6 A3.75,3.75 0 0 1 137.2686,8.5 L144.2686,28.2969 L647.5,28.2969 A2.5,2.5 0 0 1 650,30.7969 L650,385.5 A2.5,2.5 0 0 1 647.5,388 L8.5,388 A2.5,2.5 0 0 1 6,385.5 L6,8.5 A2.5,2.5 0 0 1 8.5,6 " fill="none" style="stroke:#000000;stroke-width:1.5;"/><line style="stroke:#000000;stroke-width:1.5;" x1="6" x2="144.2686" y1="28.2969" y2="28.2969"/><text fill="#000000" font-family="sans-serif" font-size="14" font-weight="bold" lengthAdjust="spacing" textLength="125.2686" x="10" y="20.9951">trilium_alchemy</text></g><!--cluster core--><g id="cluster_core"><rect fill="none" height="315" rx="2.5" ry="2.5" style="stroke:#181818;stroke-width:1.0;" width="596" x="30" y="49"/><path d="M74.3164,49 L74.3164,58.2969 L64.3164,68.2969 L30,68.2969 " fill="none" style="stroke:#181818;stroke-width:1.0;"/><text fill="#000000" font-family="sans-serif" font-size="14" font-weight="bold" lengthAdjust="spacing" textLength="34.3164" x="33" y="62.9951">core</text></g><!--class BaseEntity--><g id="elem_BaseEntity"><rect codeLine="3" fill="#F1F1F1" height="48" id="BaseEntity" rx="2.5" ry="2.5" style="stroke:#181818;stroke-width:0.5;" width="106.9629" x="375.5" y="84"/><ellipse cx="390.5" cy="100" fill="#ADD1B2" rx="11" ry="11" style="stroke:#181818;stroke-width:1.0;"/><path d="M393.4688,105.6406 Q392.8906,105.9375 392.25,106.0781 Q391.6094,106.2344 390.9063,106.2344 Q388.4063,106.2344 387.0781,104.5938 Q385.7656,102.9375 385.7656,99.8125 Q385.7656,96.6875 387.0781,95.0313 Q388.4063,93.375 390.9063,93.375 Q391.6094,93.375 392.25,93.5313 Q392.9063,93.6875 393.4688,93.9844 L393.4688,96.7031 Q392.8438,96.125 392.25,95.8594 Q391.6563,95.5781 391.0313,95.5781 Q389.6875,95.5781 389,96.6563 Q388.3125,97.7188 388.3125,99.8125 Q388.3125,101.9063 389,102.9844 Q389.6875,104.0469 391.0313,104.0469 Q391.6563,104.0469 392.25,103.7813 Q392.8438,103.5 393.4688,102.9219 L393.4688,105.6406 Z " fill="#000000"/><text fill="#000000" font-family="sans-serif" font-size="14" lengthAdjust="spacing" textLength="74.9629" x="404.5" y="104.8467">BaseEntity</text><line style="stroke:#181818;stroke-width:0.5;" x1="376.5" x2="481.4629" y1="116" y2="116"/><line style="stroke:#181818;stroke-width:0.5;" x1="376.5" x2="481.4629" y1="124" y2="124"/></g><!--class Note--><g id="elem_Note"><rect codeLine="6" fill="#F1F1F1" height="48" id="Note" rx="2.5" ry="2.5" style="stroke:#181818;stroke-width:0.5;" width="65.1406" x="264.5" y="192"/><ellipse cx="279.5" cy="208" fill="#ADD1B2" rx="11" ry="11" style="stroke:#181818;stroke-width:1.0;"/><path d="M282.4688,213.6406 Q281.8906,213.9375 281.25,214.0781 Q280.6094,214.2344 279.9063,214.2344 Q277.4063,214.2344 276.0781,212.5938 Q274.7656,210.9375 274.7656,207.8125 Q274.7656,204.6875 276.0781,203.0313 Q277.4063,201.375 279.9063,201.375 Q280.6094,201.375 281.25,201.5313 Q281.9063,201.6875 282.4688,201.9844 L282.4688,204.7031 Q281.8438,204.125 281.25,203.8594 Q280.6563,203.5781 280.0313,203.5781 Q278.6875,203.5781 278,204.6563 Q277.3125,205.7188 277.3125,207.8125 Q277.3125,209.9063 278,210.9844 Q278.6875,212.0469 280.0313,212.0469 Q280.6563,212.0469 281.25,211.7813 Q281.8438,211.5 282.4688,210.9219 L282.4688,213.6406 Z " fill="#000000"/><text fill="#000000" font-family="sans-serif" font-size="14" lengthAdjust="spacing" textLength="33.1406" x="293.5" y="212.8467">Note</text><line style="stroke:#181818;stroke-width:0.5;" x1="265.5" x2="328.6406" y1="224" y2="224"/><line style="stroke:#181818;stroke-width:0.5;" x1="265.5" x2="328.6406" y1="232" y2="232"/></g><!--class BaseDeclarativeNote--><g id="elem_BaseDeclarativeNote"><rect codeLine="9" fill="#F1F1F1" height="48" id="BaseDeclarativeNote" rx="2.5" ry="2.5" style="stroke:#181818;stroke-width:0.5;" width="179.4033" x="84.5" y="300"/><ellipse cx="99.5" cy="316" fill="#ADD1B2" rx="11" ry="11" style="stroke:#181818;stroke-width:1.0;"/><path d="M102.4688,321.6406 Q101.8906,321.9375 101.25,322.0781 Q100.6094,322.2344 99.9063,322.2344 Q97.4063,322.2344 96.0781,320.5938 Q94.7656,318.9375 94.7656,315.8125 Q94.7656,312.6875 96.0781,311.0313 Q97.4063,309.375 99.9063,309.375 Q100.6094,309.375 101.25,309.5313 Q101.9063,309.6875 102.4688,309.9844 L102.4688,312.7031 Q101.8438,312.125 101.25,311.8594 Q100.6563,311.5781 100.0313,311.5781 Q98.6875,311.5781 98,312.6563 Q97.3125,313.7188 97.3125,315.8125 Q97.3125,317.9063 98,318.9844 Q98.6875,320.0469 100.0313,320.0469 Q100.6563,320.0469 101.25,319.7813 Q101.8438,319.5 102.4688,318.9219 L102.4688,321.6406 Z " fill="#000000"/><text fill="#000000" font-family="sans-serif" font-size="14" lengthAdjust="spacing" textLength="147.4033" x="113.5" y="320.8467">BaseDeclarativeNote</text><line style="stroke:#181818;stroke-width:0.5;" x1="85.5" x2="262.9033" y1="332" y2="332"/><line style="stroke:#181818;stroke-width:0.5;" x1="85.5" x2="262.9033" y1="340" y2="340"/></g><!--class BaseDeclarativeMixin--><g id="elem_BaseDeclarativeMixin"><rect codeLine="12" fill="#F1F1F1" height="48" id="BaseDeclarativeMixin" rx="2.5" ry="2.5" style="stroke:#181818;stroke-width:0.5;" width="183.2793" x="46.5" y="192"/><ellipse cx="61.5" cy="208" fill="#ADD1B2" rx="11" ry="11" style="stroke:#181818;stroke-width:1.0;"/><path d="M64.4688,213.6406 Q63.8906,213.9375 63.25,214.0781 Q62.6094,214.2344 61.9063,214.2344 Q59.4063,214.2344 58.0781,212.5938 Q56.7656,210.9375 56.7656,207.8125 Q56.7656,204.6875 58.0781,203.0313 Q59.4063,201.375 61.9063,201.375 Q62.6094,201.375 63.25,201.5313 Q63.9063,201.6875 64.4688,201.9844 L64.4688,204.7031 Q63.8438,204.125 63.25,203.8594 Q62.6563,203.5781 62.0313,203.5781 Q60.6875,203.5781 60,204.6563 Q59.3125,205.7188 59.3125,207.8125 Q59.3125,209.9063 60,210.9844 Q60.6875,212.0469 62.0313,212.0469 Q62.6563,212.0469 63.25,211.7813 Q63.8438,211.5 64.4688,210.9219 L64.4688,213.6406 Z " fill="#000000"/><text fill="#000000" font-family="sans-serif" font-size="14" lengthAdjust="spacing" textLength="151.2793" x="75.5" y="212.8467">BaseDeclarativeMixin</text><line style="stroke:#181818;stroke-width:0.5;" x1="47.5" x2="228.7793" y1="224" y2="224"/><line style="stroke:#181818;stroke-width:0.5;" x1="47.5" x2="228.7793" y1="232" y2="232"/></g><!--class BaseAttribute--><g id="elem_BaseAttribute"><rect codeLine="15" fill="#F1F1F1" height="48" id="BaseAttribute" rx="2.5" ry="2.5" style="stroke:#181818;stroke-width:0.5;" width="128.1543" x="365" y="192"/><ellipse cx="380" cy="208" fill="#ADD1B2" rx="11" ry="11" style="stroke:#181818;stroke-width:1.0;"/><path d="M382.9688,213.6406 Q382.3906,213.9375 381.75,214.0781 Q381.1094,214.2344 380.4063,214.2344 Q377.9063,214.2344 376.5781,212.5938 Q375.2656,210.9375 375.2656,207.8125 Q375.2656,204.6875 376.5781,203.0313 Q377.9063,201.375 380.4063,201.375 Q381.1094,201.375 381.75,201.5313 Q382.4063,201.6875 382.9688,201.9844 L382.9688,204.7031 Q382.3438,204.125 381.75,203.8594 Q381.1563,203.5781 380.5313,203.5781 Q379.1875,203.5781 378.5,204.6563 Q377.8125,205.7188 377.8125,207.8125 Q377.8125,209.9063 378.5,210.9844 Q379.1875,212.0469 380.5313,212.0469 Q381.1563,212.0469 381.75,211.7813 Q382.3438,211.5 382.9688,210.9219 L382.9688,213.6406 Z " fill="#000000"/><text fill="#000000" font-family="sans-serif" font-size="14" lengthAdjust="spacing" textLength="96.1543" x="394" y="212.8467">BaseAttribute</text><line style="stroke:#181818;stroke-width:0.5;" x1="366" x2="492.1543" y1="224" y2="224"/><line style="stroke:#181818;stroke-width:0.5;" x1="366" x2="492.1543" y1="232" y2="232"/></g><!--class Label--><g id="elem_Label"><rect codeLine="18" fill="#F1F1F1" height="48" id="Label" rx="2.5" ry="2.5" style="stroke:#181818;stroke-width:0.5;" width="69.7686" x="336" y="300"/><ellipse cx="351" cy="316" fill="#ADD1B2" rx="11" ry="11" style="stroke:#181818;stroke-width:1.0;"/><path d="M353.9688,321.6406 Q353.3906,321.9375 352.75,322.0781 Q352.1094,322.2344 351.4063,322.2344 Q348.9063,322.2344 347.5781,320.5938 Q346.2656,318.9375 346.2656,315.8125 Q346.2656,312.6875 347.5781,311.0313 Q348.9063,309.375 351.4063,309.375 Q352.1094,309.375 352.75,309.5313 Q353.4063,309.6875 353.9688,309.9844 L353.9688,312.7031 Q353.3438,312.125 352.75,311.8594 Q352.1563,311.5781 351.5313,311.5781 Q350.1875,311.5781 349.5,312.6563 Q348.8125,313.7188 348.8125,315.8125 Q348.8125,317.9063 349.5,318.9844 Q350.1875,320.0469 351.5313,320.0469 Q352.1563,320.0469 352.75,319.7813 Q353.3438,319.5 353.9688,318.9219 L353.9688,321.6406 Z " fill="#000000"/><text fill="#000000" font-family="sans-serif" font-size="14" lengthAdjust="spacing" textLength="37.7686" x="365" y="320.8467">Label</text><line style="stroke:#181818;stroke-width:0.5;" x1="337" x2="404.7686" y1="332" y2="332"/><line style="stroke:#181818;stroke-width:0.5;" x1="337" x2="404.7686" y1="340" y2="340"/></g><!--class Relation--><g id="elem_Relation"><rect codeLine="21" fill="#F1F1F1" height="48" id="Relation" rx="2.5" ry="2.5" style="stroke:#181818;stroke-width:0.5;" width="89.627" x="441" y="300"/><ellipse cx="456" cy="316" fill="#ADD1B2" rx="11" ry="11" style="stroke:#181818;stroke-width:1.0;"/><path d="M458.9688,321.6406 Q458.3906,321.9375 457.75,322.0781 Q457.1094,322.2344 456.4063,322.2344 Q453.9063,322.2344 452.5781,320.5938 Q451.2656,318.9375 451.2656,315.8125 Q451.2656,312.6875 452.5781,311.0313 Q453.9063,309.375 456.4063,309.375 Q457.1094,309.375 457.75,309.5313 Q458.4063,309.6875 458.9688,309.9844 L458.9688,312.7031 Q458.3438,312.125 457.75,311.8594 Q457.1563,311.5781 456.5313,311.5781 Q455.1875,311.5781 454.5,312.6563 Q453.8125,313.7188 453.8125,315.8125 Q453.8125,317.9063 454.5,318.9844 Q455.1875,320.0469 456.5313,320.0469 Q457.1563,320.0469 457.75,319.7813 Q458.3438,319.5 458.9688,318.9219 L458.9688,321.6406 Z " fill="#000000"/><text fill="#000000" font-family="sans-serif" font-size="14" lengthAdjust="spacing" textLength="57.627" x="470" y="320.8467">Relation</text><line style="stroke:#181818;stroke-width:0.5;" x1="442" x2="529.627" y1="332" y2="332"/><line style="stroke:#181818;stroke-width:0.5;" x1="442" x2="529.627" y1="340" y2="340"/></g><!--class Branch--><g id="elem_Branch"><rect codeLine="24" fill="#F1F1F1" height="48" id="Branch" rx="2.5" ry="2.5" style="stroke:#181818;stroke-width:0.5;" width="81.3828" x="528.5" y="192"/><ellipse cx="543.5" cy="208" fill="#ADD1B2" rx="11" ry="11" style="stroke:#181818;stroke-width:1.0;"/><path d="M546.4688,213.6406 Q545.8906,213.9375 545.25,214.0781 Q544.6094,214.2344 543.9063,214.2344 Q541.4063,214.2344 540.0781,212.5938 Q538.7656,210.9375 538.7656,207.8125 Q538.7656,204.6875 540.0781,203.0313 Q541.4063,201.375 543.9063,201.375 Q544.6094,201.375 545.25,201.5313 Q545.9063,201.6875 546.4688,201.9844 L546.4688,204.7031 Q545.8438,204.125 545.25,203.8594 Q544.6563,203.5781 544.0313,203.5781 Q542.6875,203.5781 542,204.6563 Q541.3125,205.7188 541.3125,207.8125 Q541.3125,209.9063 542,210.9844 Q542.6875,212.0469 544.0313,212.0469 Q544.6563,212.0469 545.25,211.7813 Q545.8438,211.5 546.4688,210.9219 L546.4688,213.6406 Z " fill="#000000"/><text fill="#000000" font-family="sans-serif" font-size="14" lengthAdjust="spacing" textLength="49.3828" x="557.5" y="212.8467">Branch</text><line style="stroke:#181818;stroke-width:0.5;" x1="529.5" x2="608.8828" y1="224" y2="224"/><line style="stroke:#181818;stroke-width:0.5;" x1="529.5" x2="608.8828" y1="232" y2="232"/></g><!--reverse link BaseEntity to Note--><g id="link_BaseEntity_Note"><path codeLine="27" d="M386.3256,143.271 C364.3356,160.931 348.13,173.94 326.04,191.68 " fill="none" id="BaseEntity-backto-Note" style="stroke:#181818;stroke-width:1.0;"/><polygon fill="none" points="400.36,132,382.5686,138.5928,390.0825,147.9491,400.36,132" style="stroke:#181818;stroke-width:1.0;"/></g><!--reverse link BaseEntity to BaseAttribute--><g id="link_BaseEntity_BaseAttribute"><path codeLine="28" d="M429,150 C429,167.66 429,173.94 429,191.68 " fill="none" id="BaseEntity-backto-BaseAttribute" style="stroke:#181818;stroke-width:1.0;"/><polygon fill="none" points="429,132,423,150,435,150,429,132" style="stroke:#181818;stroke-width:1.0;"/></g><!--reverse link BaseEntity to Branch--><g id="link_BaseEntity_Branch"><path codeLine="29" d="M473.7296,142.8668 C497.0496,160.5268 514.77,173.94 538.2,191.68 " fill="none" id="BaseEntity-backto-Branch" style="stroke:#181818;stroke-width:1.0;"/><polygon fill="none" points="459.38,132,470.1074,147.65,477.3519,138.0836,459.38,132" style="stroke:#181818;stroke-width:1.0;"/></g><!--reverse link Note to BaseDeclarativeNote--><g id="link_Note_BaseDeclarativeNote"><path codeLine="31" d="M256.6754,251.7515 C236.1854,269.4115 221.64,281.94 201.06,299.68 " fill="none" id="Note-backto-BaseDeclarativeNote" style="stroke:#181818;stroke-width:1.0;"/><polygon fill="none" points="270.31,240,252.7582,247.2066,260.5925,256.2963,270.31,240" style="stroke:#181818;stroke-width:1.0;"/></g><!--reverse link BaseDeclarativeMixin to BaseDeclarativeNote--><g id="link_BaseDeclarativeMixin_BaseDeclarativeNote"><path codeLine="32" d="M151.6004,257.0432 C157.6004,274.7032 160.06,281.94 166.08,299.68 " fill="none" id="BaseDeclarativeMixin-backto-BaseDeclarativeNote" style="stroke:#181818;stroke-width:1.0;"/><polygon fill="none" points="145.81,240,145.9194,258.9734,157.2815,255.1131,145.81,240" style="stroke:#181818;stroke-width:1.0;"/></g><!--reverse link BaseAttribute to Label--><g id="link_BaseAttribute_Label"><path codeLine="34" d="M407.7719,255.7919 C398.1119,273.4519 393.47,281.94 383.76,299.68 " fill="none" id="BaseAttribute-backto-Label" style="stroke:#181818;stroke-width:1.0;"/><polygon fill="none" points="416.41,240,402.5079,252.9125,413.0358,258.6712,416.41,240" style="stroke:#181818;stroke-width:1.0;"/></g><!--reverse link BaseAttribute to Relation--><g id="link_BaseAttribute_Relation"><path codeLine="35" d="M449.8904,255.8557 C459.3804,273.5157 463.92,281.94 473.46,299.68 " fill="none" id="BaseAttribute-backto-Relation" style="stroke:#181818;stroke-width:1.0;"/><polygon fill="none" points="441.37,240,444.6052,258.6958,455.1756,253.0155,441.37,240" style="stroke:#181818;stroke-width:1.0;"/></g><!--SRC=[ZOzB2i8m48RtEKKkK4yG2egwKXTUGAPXiC4y94t5ehsxQQYj9X7S3V-B-Qx0Bt16wgoGebKdaBn6rIsuiKWPsrfGM9RqGIZb4fg6hg31ZNR2TK7ioUGSZCDO6z9hzBS59sxuHsGlxaBdCaldVwpQT6075SfOFABqSoPTig1vFQiVEEnP504Y8tyzaFF3x30O4ATEn3us4zoV-R4miuTa8CvRRsxIanS0]--></g></svg>