<?xml version="1.0" encoding="us-ascii" standalone="no"?><svg xmlns="http://www.w3.org/2000/svg" xmlns:xlink="http://www.w3.org/1999/xlink" contentStyleType="text/css" height="1304px" preserveAspectRatio="none" style="width:1540px;height:1304px;background:#FFFFFF;" version="1.1" viewBox="0 0 1540 1304" width="1540px" zoomAndPan="magnify"><defs/><g><rect fill="#FFFFFF" height="1166.8594" style="stroke:#181818;stroke-width:1.0;" width="10" x="336.5" y="112.4297"/><rect fill="#FFFFFF" height="1123.7266" style="stroke:#181818;stroke-width:1.0;" width="10" x="527.5" y="141.5625"/><rect fill="#FFFFFF" height="860.7969" style="stroke:#181818;stroke-width:1.0;" width="10" x="797.5" y="369.4922"/><rect fill="#FFFFFF" height="571.7344" style="stroke:#181818;stroke-width:1.0;" width="10" x="981.5" y="422.7578"/><rect fill="#FFFFFF" height="89.2656" style="stroke:#181818;stroke-width:1.0;" width="10" x="981.5" y="1106.0234"/><rect fill="#FFFFFF" height="136.5313" style="stroke:#181818;stroke-width:1.0;" width="10" x="1213.5" y="476.0234"/><rect fill="#FFFFFF" height="136.5313" style="stroke:#181818;stroke-width:1.0;" width="10" x="1213.5" y="656.4922"/><rect fill="#FFFFFF" height="136.5313" style="stroke:#181818;stroke-width:1.0;" width="10" x="1213.5" y="836.9609"/><rect fill="#FFFFFF" height="43.1328" style="stroke:#181818;stroke-width:1.0;" width="10" x="1213.5" y="1138.1563"/><rect fill="none" height="969.3281" style="stroke:#000000;stroke-width:1.5;" width="1118.5" x="415.5" y="282.9609"/><rect fill="none" height="938.1953" style="stroke:#000000;stroke-width:1.5;" width="1098.5" x="425.5" y="307.0938"/><rect fill="none" height="907.0625" style="stroke:#000000;stroke-width:1.5;" width="1078.5" x="435.5" y="331.2266"/><rect fill="none" height="618" style="stroke:#000000;stroke-width:1.5;" width="761" x="743" y="384.4922"/><rect fill="none" height="543.7344" style="stroke:#000000;stroke-width:1.5;" width="596" x="898" y="437.7578"/><rect fill="none" height="108.5313" style="stroke:#000000;stroke-width:1.5;" width="377.5" x="1106.5" y="491.0234"/><rect fill="none" height="108.5313" style="stroke:#000000;stroke-width:1.5;" width="377.5" x="1106.5" y="671.4922"/><rect fill="none" height="108.5313" style="stroke:#000000;stroke-width:1.5;" width="377.5" x="1106.5" y="851.9609"/><rect fill="none" height="200.7969" style="stroke:#000000;stroke-width:1.5;" width="781" x="723" y="1016.4922"/><rect fill="none" height="169.6641" style="stroke:#000000;stroke-width:1.5;" width="761" x="733" y="1040.625"/><rect fill="none" height="138.5313" style="stroke:#000000;stroke-width:1.5;" width="741" x="743" y="1064.7578"/><line style="stroke:#181818;stroke-width:0.5;stroke-dasharray:5.0,5.0;" x1="23" x2="23" y1="81.2969" y2="1297.2891"/><line style="stroke:#181818;stroke-width:0.5;stroke-dasharray:5.0,5.0;" x1="341.5" x2="341.5" y1="81.2969" y2="1297.2891"/><line style="stroke:#181818;stroke-width:0.5;stroke-dasharray:5.0,5.0;" x1="532.5" x2="532.5" y1="81.2969" y2="1297.2891"/><line style="stroke:#181818;stroke-width:0.5;stroke-dasharray:5.0,5.0;" x1="802" x2="802" y1="81.2969" y2="1297.2891"/><line style="stroke:#181818;stroke-width:0.5;stroke-dasharray:5.0,5.0;" x1="986" x2="986" y1="81.2969" y2="1297.2891"/><line style="stroke:#181818;stroke-width:0.5;stroke-dasharray:5.0,5.0;" x1="1218.5" x2="1218.5" y1="81.2969" y2="1297.2891"/><line style="stroke:#181818;stroke-width:0.5;stroke-dasharray:5.0,5.0;" x1="1451" x2="1451" y1="81.2969" y2="1297.2891"/><text fill="#000000" font-family="sans-serif" font-size="14" lengthAdjust="spacing" textLength="31" x="5" y="77.9951">user</text><ellipse cx="23.5" cy="13.5" fill="#E2E2F0" rx="8" ry="8" style="stroke:#181818;stroke-width:0.5;"/><path d="M23.5,21.5 L23.5,48.5 M10.5,29.5 L36.5,29.5 M23.5,48.5 L10.5,63.5 M23.5,48.5 L36.5,63.5 " fill="none" style="stroke:#181818;stroke-width:0.5;"/><rect fill="#E2E2F0" height="30.2969" rx="2.5" ry="2.5" style="stroke:#181818;stroke-width:0.5;" width="132" x="275.5" y="50"/><text fill="#000000" font-family="sans-serif" font-size="14" lengthAdjust="spacing" textLength="118" x="282.5" y="69.9951">session: Session</text><rect fill="#E2E2F0" height="30.2969" rx="2.5" ry="2.5" style="stroke:#181818;stroke-width:0.5;" width="174" x="445.5" y="50"/><text fill="#000000" font-family="sans-serif" font-size="14" lengthAdjust="spacing" textLength="160" x="452.5" y="69.9951">session._cache: Cache</text><rect fill="#E2E2F0" height="30.2969" rx="2.5" ry="2.5" style="stroke:#181818;stroke-width:0.5;" width="99" x="753" y="50"/><text fill="#000000" font-family="sans-serif" font-size="14" lengthAdjust="spacing" textLength="85" x="760" y="69.9951">entity: Entity</text><rect fill="#E2E2F0" height="30.2969" rx="2.5" ry="2.5" style="stroke:#181818;stroke-width:0.5;" width="157" x="908" y="50"/><text fill="#000000" font-family="sans-serif" font-size="14" lengthAdjust="spacing" textLength="143" x="915" y="69.9951">entity._model: Model</text><rect fill="#E2E2F0" height="30.2969" rx="2.5" ry="2.5" style="stroke:#181818;stroke-width:0.5;" width="204" x="1116.5" y="50"/><text fill="#000000" font-family="sans-serif" font-size="14" lengthAdjust="spacing" textLength="190" x="1123.5" y="69.9951">entity._model._driver: Driver</text><text fill="#000000" font-family="sans-serif" font-size="14" lengthAdjust="spacing" textLength="39" x="1429" y="77.9951">ETAPI</text><path d="M1433.5,29 C1433.5,19 1451.5,19 1451.5,19 C1451.5,19 1469.5,19 1469.5,29 L1469.5,55 C1469.5,65 1451.5,65 1451.5,65 C1451.5,65 1433.5,65 1433.5,55 L1433.5,29 " fill="#E2E2F0" style="stroke:#181818;stroke-width:1.5;"/><path d="M1433.5,29 C1433.5,39 1451.5,39 1451.5,39 C1451.5,39 1469.5,39 1469.5,29 " fill="none" style="stroke:#181818;stroke-width:1.5;"/><rect fill="#FFFFFF" height="1166.8594" style="stroke:#181818;stroke-width:1.0;" width="10" x="336.5" y="112.4297"/><rect fill="#FFFFFF" height="1123.7266" style="stroke:#181818;stroke-width:1.0;" width="10" x="527.5" y="141.5625"/><rect fill="#FFFFFF" height="860.7969" style="stroke:#181818;stroke-width:1.0;" width="10" x="797.5" y="369.4922"/><rect fill="#FFFFFF" height="571.7344" style="stroke:#181818;stroke-width:1.0;" width="10" x="981.5" y="422.7578"/><rect fill="#FFFFFF" height="89.2656" style="stroke:#181818;stroke-width:1.0;" width="10" x="981.5" y="1106.0234"/><rect fill="#FFFFFF" height="136.5313" style="stroke:#181818;stroke-width:1.0;" width="10" x="1213.5" y="476.0234"/><rect fill="#FFFFFF" height="136.5313" style="stroke:#181818;stroke-width:1.0;" width="10" x="1213.5" y="656.4922"/><rect fill="#FFFFFF" height="136.5313" style="stroke:#181818;stroke-width:1.0;" width="10" x="1213.5" y="836.9609"/><rect fill="#FFFFFF" height="43.1328" style="stroke:#181818;stroke-width:1.0;" width="10" x="1213.5" y="1138.1563"/><polygon fill="#181818" points="324.5,108.4297,334.5,112.4297,324.5,116.4297,328.5,112.4297" style="stroke:#181818;stroke-width:1.0;"/><line style="stroke:#181818;stroke-width:1.0;" x1="23.5" x2="330.5" y1="112.4297" y2="112.4297"/><text fill="#000000" font-family="sans-serif" font-size="13" lengthAdjust="spacing" textLength="294" x="30.5" y="107.3638">session.flush(entities: Iterable[Entity] = None)</text><polygon fill="#181818" points="515.5,137.5625,525.5,141.5625,515.5,145.5625,519.5,141.5625" style="stroke:#181818;stroke-width:1.0;"/><line style="stroke:#181818;stroke-width:1.0;" x1="346.5" x2="521.5" y1="141.5625" y2="141.5625"/><text fill="#000000" font-family="sans-serif" font-size="13" lengthAdjust="spacing" textLength="162" x="353.5" y="136.4966">self._cache.flush(entities)</text><line style="stroke:#181818;stroke-width:1.0;" x1="537.5" x2="579.5" y1="170.6953" y2="170.6953"/><line style="stroke:#181818;stroke-width:1.0;" x1="579.5" x2="579.5" y1="170.6953" y2="183.6953"/><line style="stroke:#181818;stroke-width:1.0;" x1="538.5" x2="579.5" y1="183.6953" y2="183.6953"/><polygon fill="#181818" points="548.5,179.6953,538.5,183.6953,548.5,187.6953,544.5,183.6953" style="stroke:#181818;stroke-width:1.0;"/><text fill="#000000" font-family="sans-serif" font-size="13" lengthAdjust="spacing" textLength="103" x="544.5" y="165.6294">Validate entities</text><line style="stroke:#181818;stroke-width:1.0;" x1="537.5" x2="579.5" y1="212.8281" y2="212.8281"/><line style="stroke:#181818;stroke-width:1.0;" x1="579.5" x2="579.5" y1="212.8281" y2="225.8281"/><line style="stroke:#181818;stroke-width:1.0;" x1="538.5" x2="579.5" y1="225.8281" y2="225.8281"/><polygon fill="#181818" points="548.5,221.8281,538.5,225.8281,548.5,229.8281,544.5,225.8281" style="stroke:#181818;stroke-width:1.0;"/><text fill="#000000" font-family="sans-serif" font-size="13" lengthAdjust="spacing" textLength="218" x="544.5" y="207.7622">Collect and validate dependencies</text><line style="stroke:#181818;stroke-width:1.0;" x1="537.5" x2="579.5" y1="254.9609" y2="254.9609"/><line style="stroke:#181818;stroke-width:1.0;" x1="579.5" x2="579.5" y1="254.9609" y2="267.9609"/><line style="stroke:#181818;stroke-width:1.0;" x1="538.5" x2="579.5" y1="267.9609" y2="267.9609"/><polygon fill="#181818" points="548.5,263.9609,538.5,267.9609,548.5,271.9609,544.5,267.9609" style="stroke:#181818;stroke-width:1.0;"/><text fill="#000000" font-family="sans-serif" font-size="13" lengthAdjust="spacing" textLength="246" x="544.5" y="249.895">Create and populate topological sorter</text><path d="M415.5,282.9609 L492.5,282.9609 L492.5,290.0938 L482.5,300.0938 L415.5,300.0938 L415.5,282.9609 " fill="#EEEEEE" style="stroke:#000000;stroke-width:1.5;"/><rect fill="none" height="969.3281" style="stroke:#000000;stroke-width:1.5;" width="1118.5" x="415.5" y="282.9609"/><text fill="#000000" font-family="sans-serif" font-size="13" font-weight="bold" lengthAdjust="spacing" textLength="32" x="430.5" y="296.0278">loop</text><text fill="#000000" font-family="sans-serif" font-size="11" font-weight="bold" lengthAdjust="spacing" textLength="157" x="507.5" y="295.1714">[while sorter.is_active()]</text><path d="M425.5,307.0938 L502.5,307.0938 L502.5,314.2266 L492.5,324.2266 L425.5,324.2266 L425.5,307.0938 " fill="#EEEEEE" style="stroke:#000000;stroke-width:1.5;"/><rect fill="none" height="938.1953" style="stroke:#000000;stroke-width:1.5;" width="1098.5" x="425.5" y="307.0938"/><text fill="#000000" font-family="sans-serif" font-size="13" font-weight="bold" lengthAdjust="spacing" textLength="32" x="440.5" y="320.1606">loop</text><text fill="#000000" font-family="sans-serif" font-size="11" font-weight="bold" lengthAdjust="spacing" textLength="204" x="517.5" y="319.3042">[for entity in sorter.get_ready()]</text><path d="M435.5,331.2266 L499.5,331.2266 L499.5,338.3594 L489.5,348.3594 L435.5,348.3594 L435.5,331.2266 " fill="#EEEEEE" style="stroke:#000000;stroke-width:1.5;"/><rect fill="none" height="907.0625" style="stroke:#000000;stroke-width:1.5;" width="1078.5" x="435.5" y="331.2266"/><text fill="#000000" font-family="sans-serif" font-size="13" font-weight="bold" lengthAdjust="spacing" textLength="19" x="450.5" y="344.2935">alt</text><text fill="#000000" font-family="sans-serif" font-size="11" font-weight="bold" lengthAdjust="spacing" textLength="207" x="514.5" y="343.437">[entity.state is not State.CLEAN]</text><polygon fill="#181818" points="785.5,365.4922,795.5,369.4922,785.5,373.4922,789.5,369.4922" style="stroke:#181818;stroke-width:1.0;"/><line style="stroke:#181818;stroke-width:1.0;" x1="537.5" x2="791.5" y1="369.4922" y2="369.4922"/><text fill="#000000" font-family="sans-serif" font-size="13" lengthAdjust="spacing" textLength="125" x="544.5" y="364.4263">entity._flush(sorter)</text><path d="M743,384.4922 L807,384.4922 L807,391.625 L797,401.625 L743,401.625 L743,384.4922 " fill="#EEEEEE" style="stroke:#000000;stroke-width:1.5;"/><rect fill="none" height="618" style="stroke:#000000;stroke-width:1.5;" width="761" x="743" y="384.4922"/><text fill="#000000" font-family="sans-serif" font-size="13" font-weight="bold" lengthAdjust="spacing" textLength="19" x="758" y="397.5591">alt</text><text fill="#000000" font-family="sans-serif" font-size="11" font-weight="bold" lengthAdjust="spacing" textLength="123" x="822" y="396.7026">[Model is changed]</text><polygon fill="#181818" points="969.5,418.7578,979.5,422.7578,969.5,426.7578,973.5,422.7578" style="stroke:#181818;stroke-width:1.0;"/><line style="stroke:#181818;stroke-width:1.0;" x1="807.5" x2="975.5" y1="422.7578" y2="422.7578"/><text fill="#000000" font-family="sans-serif" font-size="13" lengthAdjust="spacing" textLength="155" x="814.5" y="417.6919">self._model.flush(sorter)</text><path d="M898,437.7578 L962,437.7578 L962,444.8906 L952,454.8906 L898,454.8906 L898,437.7578 " fill="#EEEEEE" style="stroke:#000000;stroke-width:1.5;"/><rect fill="none" height="543.7344" style="stroke:#000000;stroke-width:1.5;" width="596" x="898" y="437.7578"/><text fill="#000000" font-family="sans-serif" font-size="13" font-weight="bold" lengthAdjust="spacing" textLength="19" x="913" y="450.8247">alt</text><text fill="#000000" font-family="sans-serif" font-size="11" font-weight="bold" lengthAdjust="spacing" textLength="190" x="977" y="449.9683">[entity.state is State.CREATE]</text><polygon fill="#181818" points="1201.5,472.0234,1211.5,476.0234,1201.5,480.0234,1205.5,476.0234" style="stroke:#181818;stroke-width:1.0;"/><line style="stroke:#181818;stroke-width:1.0;" x1="991.5" x2="1207.5" y1="476.0234" y2="476.0234"/><text fill="#000000" font-family="sans-serif" font-size="13" lengthAdjust="spacing" textLength="199" x="998.5" y="470.9575">self._driver.flush_create(sorter)</text><path d="M1106.5,491.0234 L1170.5,491.0234 L1170.5,498.1563 L1160.5,508.1563 L1106.5,508.1563 L1106.5,491.0234 " fill="#EEEEEE" style="stroke:#000000;stroke-width:1.5;"/><rect fill="none" height="108.5313" style="stroke:#000000;stroke-width:1.5;" width="377.5" x="1106.5" y="491.0234"/><text fill="#000000" font-family="sans-serif" font-size="13" font-weight="bold" lengthAdjust="spacing" textLength="19" x="1121.5" y="504.0903">alt</text><polygon fill="#181818" points="1439.5,525.2891,1449.5,529.2891,1439.5,533.2891,1443.5,529.2891" style="stroke:#181818;stroke-width:1.0;"/><line style="stroke:#181818;stroke-width:1.0;" x1="1223.5" x2="1445.5" y1="529.2891" y2="529.2891"/><text fill="#000000" font-family="sans-serif" font-size="13" lengthAdjust="spacing" textLength="117" x="1230.5" y="524.2231">POST /create-note</text><line style="stroke:#000000;stroke-width:1.0;stroke-dasharray:2.0,2.0;" x1="1106.5" x2="1484" y1="538.2891" y2="538.2891"/><polygon fill="#181818" points="1439.5,556.4219,1449.5,560.4219,1439.5,564.4219,1443.5,560.4219" style="stroke:#181818;stroke-width:1.0;"/><line style="stroke:#181818;stroke-width:1.0;" x1="1223.5" x2="1445.5" y1="560.4219" y2="560.4219"/><text fill="#000000" font-family="sans-serif" font-size="13" lengthAdjust="spacing" textLength="104" x="1230.5" y="555.356">POST /attributes</text><line style="stroke:#000000;stroke-width:1.0;stroke-dasharray:2.0,2.0;" x1="1106.5" x2="1484" y1="569.4219" y2="569.4219"/><polygon fill="#181818" points="1439.5,587.5547,1449.5,591.5547,1439.5,595.5547,1443.5,591.5547" style="stroke:#181818;stroke-width:1.0;"/><line style="stroke:#181818;stroke-width:1.0;" x1="1223.5" x2="1445.5" y1="591.5547" y2="591.5547"/><text fill="#000000" font-family="sans-serif" font-size="13" lengthAdjust="spacing" textLength="101" x="1230.5" y="586.4888">POST /branches</text><polygon fill="#181818" points="1002.5,608.5547,992.5,612.5547,1002.5,616.5547,998.5,612.5547" style="stroke:#181818;stroke-width:1.0;"/><line style="stroke:#181818;stroke-width:1.0;stroke-dasharray:2.0,2.0;" x1="996.5" x2="1217.5" y1="612.5547" y2="612.5547"/><line style="stroke:#000000;stroke-width:1.0;stroke-dasharray:2.0,2.0;" x1="898" x2="1494" y1="621.5547" y2="621.5547"/><text fill="#000000" font-family="sans-serif" font-size="11" font-weight="bold" lengthAdjust="spacing" textLength="191" x="903" y="631.7651">[entity.state is State.UPDATE]</text><polygon fill="#181818" points="1201.5,652.4922,1211.5,656.4922,1201.5,660.4922,1205.5,656.4922" style="stroke:#181818;stroke-width:1.0;"/><line style="stroke:#181818;stroke-width:1.0;" x1="991.5" x2="1207.5" y1="656.4922" y2="656.4922"/><text fill="#000000" font-family="sans-serif" font-size="13" lengthAdjust="spacing" textLength="203" x="998.5" y="651.4263">self._driver.flush_update(sorter)</text><path d="M1106.5,671.4922 L1170.5,671.4922 L1170.5,678.625 L1160.5,688.625 L1106.5,688.625 L1106.5,671.4922 " fill="#EEEEEE" style="stroke:#000000;stroke-width:1.5;"/><rect fill="none" height="108.5313" style="stroke:#000000;stroke-width:1.5;" width="377.5" x="1106.5" y="671.4922"/><text fill="#000000" font-family="sans-serif" font-size="13" font-weight="bold" lengthAdjust="spacing" textLength="19" x="1121.5" y="684.5591">alt</text><polygon fill="#181818" points="1439.5,705.7578,1449.5,709.7578,1439.5,713.7578,1443.5,709.7578" style="stroke:#181818;stroke-width:1.0;"/><line style="stroke:#181818;stroke-width:1.0;" x1="1223.5" x2="1445.5" y1="709.7578" y2="709.7578"/><text fill="#000000" font-family="sans-serif" font-size="13" lengthAdjust="spacing" textLength="147" x="1230.5" y="704.6919">PATCH /notes/{noteId}</text><line style="stroke:#000000;stroke-width:1.0;stroke-dasharray:2.0,2.0;" x1="1106.5" x2="1484" y1="718.7578" y2="718.7578"/><polygon fill="#181818" points="1439.5,736.8906,1449.5,740.8906,1439.5,744.8906,1443.5,740.8906" style="stroke:#181818;stroke-width:1.0;"/><line style="stroke:#181818;stroke-width:1.0;" x1="1223.5" x2="1445.5" y1="740.8906" y2="740.8906"/><text fill="#000000" font-family="sans-serif" font-size="13" lengthAdjust="spacing" textLength="199" x="1230.5" y="735.8247">PATCH /attributes/{attributeId}</text><line style="stroke:#000000;stroke-width:1.0;stroke-dasharray:2.0,2.0;" x1="1106.5" x2="1484" y1="749.8906" y2="749.8906"/><polygon fill="#181818" points="1439.5,768.0234,1449.5,772.0234,1439.5,776.0234,1443.5,772.0234" style="stroke:#181818;stroke-width:1.0;"/><line style="stroke:#181818;stroke-width:1.0;" x1="1223.5" x2="1445.5" y1="772.0234" y2="772.0234"/><text fill="#000000" font-family="sans-serif" font-size="13" lengthAdjust="spacing" textLength="185" x="1230.5" y="766.9575">PATCH /branches/{branchId}</text><polygon fill="#181818" points="1002.5,789.0234,992.5,793.0234,1002.5,797.0234,998.5,793.0234" style="stroke:#181818;stroke-width:1.0;"/><line style="stroke:#181818;stroke-width:1.0;stroke-dasharray:2.0,2.0;" x1="996.5" x2="1217.5" y1="793.0234" y2="793.0234"/><line style="stroke:#000000;stroke-width:1.0;stroke-dasharray:2.0,2.0;" x1="898" x2="1494" y1="802.0234" y2="802.0234"/><text fill="#000000" font-family="sans-serif" font-size="11" font-weight="bold" lengthAdjust="spacing" textLength="189" x="903" y="812.2339">[entity.state is State.DELETE]</text><polygon fill="#181818" points="1201.5,832.9609,1211.5,836.9609,1201.5,840.9609,1205.5,836.9609" style="stroke:#181818;stroke-width:1.0;"/><line style="stroke:#181818;stroke-width:1.0;" x1="991.5" x2="1207.5" y1="836.9609" y2="836.9609"/><text fill="#000000" font-family="sans-serif" font-size="13" lengthAdjust="spacing" textLength="198" x="998.5" y="831.895">self._driver.flush_delete(sorter)</text><path d="M1106.5,851.9609 L1170.5,851.9609 L1170.5,859.0938 L1160.5,869.0938 L1106.5,869.0938 L1106.5,851.9609 " fill="#EEEEEE" style="stroke:#000000;stroke-width:1.5;"/><rect fill="none" height="108.5313" style="stroke:#000000;stroke-width:1.5;" width="377.5" x="1106.5" y="851.9609"/><text fill="#000000" font-family="sans-serif" font-size="13" font-weight="bold" lengthAdjust="spacing" textLength="19" x="1121.5" y="865.0278">alt</text><polygon fill="#181818" points="1439.5,886.2266,1449.5,890.2266,1439.5,894.2266,1443.5,890.2266" style="stroke:#181818;stroke-width:1.0;"/><line style="stroke:#181818;stroke-width:1.0;" x1="1223.5" x2="1445.5" y1="890.2266" y2="890.2266"/><text fill="#000000" font-family="sans-serif" font-size="13" lengthAdjust="spacing" textLength="152" x="1230.5" y="885.1606">DELETE /notes/{noteId}</text><line style="stroke:#000000;stroke-width:1.0;stroke-dasharray:2.0,2.0;" x1="1106.5" x2="1484" y1="899.2266" y2="899.2266"/><polygon fill="#181818" points="1439.5,917.3594,1449.5,921.3594,1439.5,925.3594,1443.5,921.3594" style="stroke:#181818;stroke-width:1.0;"/><line style="stroke:#181818;stroke-width:1.0;" x1="1223.5" x2="1445.5" y1="921.3594" y2="921.3594"/><text fill="#000000" font-family="sans-serif" font-size="13" lengthAdjust="spacing" textLength="204" x="1230.5" y="916.2935">DELETE /attributes/{attributeId}</text><line style="stroke:#000000;stroke-width:1.0;stroke-dasharray:2.0,2.0;" x1="1106.5" x2="1484" y1="930.3594" y2="930.3594"/><polygon fill="#181818" points="1439.5,948.4922,1449.5,952.4922,1439.5,956.4922,1443.5,952.4922" style="stroke:#181818;stroke-width:1.0;"/><line style="stroke:#181818;stroke-width:1.0;" x1="1223.5" x2="1445.5" y1="952.4922" y2="952.4922"/><text fill="#000000" font-family="sans-serif" font-size="13" lengthAdjust="spacing" textLength="190" x="1230.5" y="947.4263">DELETE /branches/{branchId}</text><polygon fill="#181818" points="1002.5,969.4922,992.5,973.4922,1002.5,977.4922,998.5,973.4922" style="stroke:#181818;stroke-width:1.0;"/><line style="stroke:#181818;stroke-width:1.0;stroke-dasharray:2.0,2.0;" x1="996.5" x2="1217.5" y1="973.4922" y2="973.4922"/><polygon fill="#181818" points="818.5,990.4922,808.5,994.4922,818.5,998.4922,814.5,994.4922" style="stroke:#181818;stroke-width:1.0;"/><line style="stroke:#181818;stroke-width:1.0;stroke-dasharray:2.0,2.0;" x1="812.5" x2="985.5" y1="994.4922" y2="994.4922"/><path d="M723,1016.4922 L787,1016.4922 L787,1023.625 L777,1033.625 L723,1033.625 L723,1016.4922 " fill="#EEEEEE" style="stroke:#000000;stroke-width:1.5;"/><rect fill="none" height="200.7969" style="stroke:#000000;stroke-width:1.5;" width="781" x="723" y="1016.4922"/><text fill="#000000" font-family="sans-serif" font-size="13" font-weight="bold" lengthAdjust="spacing" textLength="19" x="738" y="1029.5591">alt</text><text fill="#000000" font-family="sans-serif" font-size="11" font-weight="bold" lengthAdjust="spacing" textLength="214" x="802" y="1028.7026">[entity.state is not State.DELETE]</text><path d="M733,1040.625 L810,1040.625 L810,1047.7578 L800,1057.7578 L733,1057.7578 L733,1040.625 " fill="#EEEEEE" style="stroke:#000000;stroke-width:1.5;"/><rect fill="none" height="169.6641" style="stroke:#000000;stroke-width:1.5;" width="761" x="733" y="1040.625"/><text fill="#000000" font-family="sans-serif" font-size="13" font-weight="bold" lengthAdjust="spacing" textLength="32" x="748" y="1053.6919">loop</text><text fill="#000000" font-family="sans-serif" font-size="11" font-weight="bold" lengthAdjust="spacing" textLength="238" x="825" y="1052.8354">[for ext in entity._model._extensions]</text><path d="M743,1064.7578 L807,1064.7578 L807,1071.8906 L797,1081.8906 L743,1081.8906 L743,1064.7578 " fill="#EEEEEE" style="stroke:#000000;stroke-width:1.5;"/><rect fill="none" height="138.5313" style="stroke:#000000;stroke-width:1.5;" width="741" x="743" y="1064.7578"/><text fill="#000000" font-family="sans-serif" font-size="13" font-weight="bold" lengthAdjust="spacing" textLength="19" x="758" y="1077.8247">alt</text><text fill="#000000" font-family="sans-serif" font-size="11" font-weight="bold" lengthAdjust="spacing" textLength="112" x="822" y="1076.9683">[ext._is_changed]</text><polygon fill="#181818" points="969.5,1102.0234,979.5,1106.0234,969.5,1110.0234,973.5,1106.0234" style="stroke:#181818;stroke-width:1.0;"/><line style="stroke:#181818;stroke-width:1.0;" x1="807.5" x2="975.5" y1="1106.0234" y2="1106.0234"/><text fill="#000000" font-family="sans-serif" font-size="13" lengthAdjust="spacing" textLength="71" x="814.5" y="1100.9575">ext._flush()</text><path d="M996,1086.8906 L996,1111.8906 L1468,1111.8906 L1468,1096.8906 L1458,1086.8906 L996,1086.8906 " fill="#FEFFDD" style="stroke:#181818;stroke-width:0.5;"/><path d="M1458,1086.8906 L1458,1096.8906 L1468,1096.8906 L1458,1086.8906 " fill="#FEFFDD" style="stroke:#181818;stroke-width:0.5;"/><text fill="#000000" font-family="sans-serif" font-size="13" lengthAdjust="spacing" textLength="451" x="1002" y="1103.9575">Note content implemented as model extension and flushed separately</text><polygon fill="#181818" points="1201.5,1134.1563,1211.5,1138.1563,1201.5,1142.1563,1205.5,1138.1563" style="stroke:#181818;stroke-width:1.0;"/><line style="stroke:#181818;stroke-width:1.0;" x1="991.5" x2="1207.5" y1="1138.1563" y2="1138.1563"/><text fill="#000000" font-family="sans-serif" font-size="13" lengthAdjust="spacing" textLength="111" x="998.5" y="1133.0903">ext._driver.flush()</text><polygon fill="#181818" points="1439.5,1163.2891,1449.5,1167.2891,1439.5,1171.2891,1443.5,1167.2891" style="stroke:#181818;stroke-width:1.0;"/><line style="stroke:#181818;stroke-width:1.0;" x1="1223.5" x2="1445.5" y1="1167.2891" y2="1167.2891"/><text fill="#000000" font-family="sans-serif" font-size="13" lengthAdjust="spacing" textLength="182" x="1230.5" y="1162.2231">PUT /notes/{noteId}/content</text><polygon fill="#181818" points="1002.5,1177.2891,992.5,1181.2891,1002.5,1185.2891,998.5,1181.2891" style="stroke:#181818;stroke-width:1.0;"/><line style="stroke:#181818;stroke-width:1.0;stroke-dasharray:2.0,2.0;" x1="996.5" x2="1217.5" y1="1181.2891" y2="1181.2891"/><polygon fill="#181818" points="818.5,1191.2891,808.5,1195.2891,818.5,1199.2891,814.5,1195.2891" style="stroke:#181818;stroke-width:1.0;"/><line style="stroke:#181818;stroke-width:1.0;stroke-dasharray:2.0,2.0;" x1="812.5" x2="985.5" y1="1195.2891" y2="1195.2891"/><polygon fill="#181818" points="548.5,1226.2891,538.5,1230.2891,548.5,1234.2891,544.5,1230.2891" style="stroke:#181818;stroke-width:1.0;"/><line style="stroke:#181818;stroke-width:1.0;stroke-dasharray:2.0,2.0;" x1="542.5" x2="801.5" y1="1230.2891" y2="1230.2891"/><polygon fill="#181818" points="357.5,1261.2891,347.5,1265.2891,357.5,1269.2891,353.5,1265.2891" style="stroke:#181818;stroke-width:1.0;"/><line style="stroke:#181818;stroke-width:1.0;stroke-dasharray:2.0,2.0;" x1="351.5" x2="531.5" y1="1265.2891" y2="1265.2891"/><polygon fill="#181818" points="34.5,1275.2891,24.5,1279.2891,34.5,1283.2891,30.5,1279.2891" style="stroke:#181818;stroke-width:1.0;"/><line style="stroke:#181818;stroke-width:1.0;stroke-dasharray:2.0,2.0;" x1="28.5" x2="340.5" y1="1279.2891" y2="1279.2891"/><!--SRC=[nLPDQnin4BthLmmvnGIlxmir66UXWJGrjTDBAOky6ji2HLeaEKq8_U_LrpgEO- -QDdO5PhIZ9xqPwScZ5MS82wNiN3qHGYkhDAmDQg0cM59JRNd5QoejN1WqXYkPmpHsBZmiEVSYixAYrGfp67iJuC7n5epISlkSGn5iG4NNFbXMFYY68eSltWHmSBHWiv9f_eWwX-jWmwJe8enQEgS6uQAOZIOtaTpIcXFYy-yFKoPmTPKtgMOBiJQhoy31qUHmOr7JkS0VCOEVy0dkbCGUIHFwmv1rMaCiqhRihDCZ9BWJEeVlL70N7qA3s1aVAo6mia0bWyS6ox16oL1MU_0QFSB3QrMlXV-mgbP2BNb51HYbNIA42ALg-BNY0fChuwPqsd0RTjaZu5f0B9nMuZu3bmroYRPqDEmv8NsZmYPWPgmdvGQaiZ3r7zdujXZTRR2-fQZJsdxJckEC6nQfUc_cD3n15PwWMb6vHFOEv5jShZyCwjWwbQYMTfAsf592tuhHh3WuqRT0r1z63Mu541qnWh8AnzKPo5P0dHZV8eVRNg_o72PVfpCOHAw-EnNiN0I5mRzdejPgFbzRfyxJ4iqrbKv7Hz18rehHQDTQahOe3oZXVdBz8KfOr-mSIXZDnfzXu3LW1Y_UtB3VfpkaoFOgXy7Bfdy6taOTWvVOEuhoP4AvBcwBZn2AW-3fXHAZFPjI6hgpIwKX_XzQEJ3zmBHzyFQgswAur-B-P7rbttbBEIzA_wenxRNnoMQbUpUqrU73zJZCZeMuMyPUWA3vScLpz-vo_Kf95wCB_g4M-E1wo3RlHDZ47nv2WSCD6tJlHxSnuhcJxlrD3D5kNyGZWjxtrtG_sxrKWvHAvt8TUle7oUtpx_fsbcw6lVK_aiQJ-GC0]--></g></svg>