<svg xmlns="http://www.w3.org/2000/svg" xmlns:xlink="http://www.w3.org/1999/xlink" contentStyleType="text/css" data-diagram-type="SEQUENCE" height="1298px" preserveAspectRatio="none" style="width:1615px;height:1298px;background:#FFFFFF;" version="1.1" viewBox="0 0 1615 1298" width="1615px" zoomAndPan="magnify"><?plantuml 1.2026.6?><defs/><g><g><title>session. Session</title><rect fill="#FFFFFF" height="1166.8594" style="stroke:#181818;stroke-width:1;" width="10" x="344.3149" y="112.4297"/></g><g><title>session._cache. Cache</title><rect fill="#FFFFFF" height="1123.7266" style="stroke:#181818;stroke-width:1;" width="10" x="539.5474" y="141.5625"/></g><g><title>entity. BaseEntity</title><rect fill="#FFFFFF" height="860.7969" style="stroke:#181818;stroke-width:1;" width="10" x="825.3081" y="369.4922"/></g><g><title>entity._model. BaseEntityModel</title><rect fill="#FFFFFF" height="571.7344" style="stroke:#181818;stroke-width:1;" width="10" x="1022.6162" y="422.7578"/></g><g><title>entity._model. BaseEntityModel</title><rect fill="#FFFFFF" height="89.2656" style="stroke:#181818;stroke-width:1;" width="10" x="1022.6162" y="1106.0234"/></g><g><title>entity._model.driver. BaseDriver</title><rect fill="#FFFFFF" height="136.5313" style="stroke:#181818;stroke-width:1;" width="10" x="1271.3682" y="476.0234"/></g><g><title>entity._model.driver. BaseDriver</title><rect fill="#FFFFFF" height="136.5313" style="stroke:#181818;stroke-width:1;" width="10" x="1271.3682" y="656.4922"/></g><g><title>entity._model.driver. BaseDriver</title><rect fill="#FFFFFF" height="136.5313" style="stroke:#181818;stroke-width:1;" width="10" x="1271.3682" y="836.9609"/></g><g><title>entity._model.driver. BaseDriver</title><rect fill="#FFFFFF" height="43.1328" style="stroke:#181818;stroke-width:1;" width="10" x="1271.3682" y="1138.1563"/></g><rect fill="none" height="969.3281" style="stroke:#000000;stroke-width:1.5;" width="1170.8486" x="428.8281" y="282.9609"/><rect fill="none" height="938.1953" style="stroke:#000000;stroke-width:1.5;" width="1150.8486" x="438.8281" y="307.0938"/><rect fill="none" height="907.0625" style="stroke:#000000;stroke-width:1.5;" width="1130.8486" x="448.8281" y="331.2266"/><rect fill="none" height="618" style="stroke:#000000;stroke-width:1.5;" width="818.7534" x="750.9233" y="384.4922"/><rect fill="none" height="543.7344" style="stroke:#000000;stroke-width:1.5;" width="659.9839" x="899.6929" y="437.7578"/><rect fill="none" height="108.5313" style="stroke:#000000;stroke-width:1.5;" width="404.1372" x="1145.5396" y="491.0234"/><rect fill="none" height="108.5313" style="stroke:#000000;stroke-width:1.5;" width="404.1372" x="1145.5396" y="671.4922"/><rect fill="none" height="108.5313" style="stroke:#000000;stroke-width:1.5;" width="404.1372" x="1145.5396" y="851.9609"/><rect fill="none" height="200.7969" style="stroke:#000000;stroke-width:1.5;" width="838.7534" x="730.9233" y="1016.4922"/><rect fill="none" height="169.6641" style="stroke:#000000;stroke-width:1.5;" width="818.7534" x="740.9233" y="1040.625"/><rect fill="none" height="138.5313" style="stroke:#000000;stroke-width:1.5;" width="798.7534" x="750.9233" y="1064.7578"/><g class="participant-lifeline" data-entity-uid="part1" data-qualified-name="user" data-source-line="4" id="part1-lifeline"><g><title>user</title><rect fill="#000000" fill-opacity="0.00000" height="1215.9922" width="8" x="19.2681" y="81.2969"/><line style="stroke:#181818;stroke-width:0.5;stroke-dasharray:5,5;" x1="23" x2="23" y1="81.2969" y2="1297.2891"/></g></g><g class="participant-lifeline" data-entity-uid="part2" data-qualified-name="session" data-source-line="5" id="part2-lifeline"><g><title>session. Session</title><rect fill="#000000" fill-opacity="0.00000" height="1215.9922" width="8" x="345.3149" y="81.2969"/><line style="stroke:#181818;stroke-width:0.5;stroke-dasharray:5,5;" x1="349.1118" x2="349.1118" y1="81.2969" y2="1297.2891"/></g></g><g class="participant-lifeline" data-entity-uid="part3" data-qualified-name="cache" data-source-line="6" id="part3-lifeline"><g><title>session._cache. Cache</title><rect fill="#000000" fill-opacity="0.00000" height="1215.9922" width="8" x="540.5474" y="81.2969"/><line style="stroke:#181818;stroke-width:0.5;stroke-dasharray:5,5;" x1="543.8281" x2="543.8281" y1="81.2969" y2="1297.2891"/></g></g><g class="participant-lifeline" data-entity-uid="part4" data-qualified-name="entity" data-source-line="7" id="part4-lifeline"><g><title>entity. BaseEntity</title><rect fill="#000000" fill-opacity="0.00000" height="1215.9922" width="8" x="826.3081" y="81.2969"/><line style="stroke:#181818;stroke-width:0.5;stroke-dasharray:5,5;" x1="829.9233" x2="829.9233" y1="81.2969" y2="1297.2891"/></g></g><g class="participant-lifeline" data-entity-uid="part5" data-qualified-name="model" data-source-line="8" id="part5-lifeline"><g><title>entity._model. BaseEntityModel</title><rect fill="#000000" fill-opacity="0.00000" height="1215.9922" width="8" x="1023.6162" y="81.2969"/><line style="stroke:#181818;stroke-width:0.5;stroke-dasharray:5,5;" x1="1026.6929" x2="1026.6929" y1="81.2969" y2="1297.2891"/></g></g><g class="participant-lifeline" data-entity-uid="part6" data-qualified-name="driver" data-source-line="9" id="part6-lifeline"><g><title>entity._model.driver. BaseDriver</title><rect fill="#000000" fill-opacity="0.00000" height="1215.9922" width="8" x="1272.3682" y="81.2969"/><line style="stroke:#181818;stroke-width:0.5;stroke-dasharray:5,5;" x1="1275.5396" x2="1275.5396" y1="81.2969" y2="1297.2891"/></g></g><g class="participant-lifeline" data-entity-uid="part7" data-qualified-name="etapi" data-source-line="10" id="part7-lifeline"><g><title>ETAPI</title><rect fill="#000000" fill-opacity="0.00000" height="1215.9922" width="8" x="1512.9038" y="81.2969"/><line style="stroke:#181818;stroke-width:0.5;stroke-dasharray:5,5;" x1="1516.1309" x2="1516.1309" y1="81.2969" y2="1297.2891"/></g></g><g class="participant participant-head" data-entity-uid="part1" data-qualified-name="user" data-source-line="4" id="part1-head"><text fill="#000000" font-family="sans-serif" font-size="14" lengthAdjust="spacing" textLength="30.5361" x="5" y="77.9951">user</text><ellipse cx="23.2681" cy="13.5" fill="#E2E2F0" rx="8" ry="8" style="stroke:#181818;stroke-width:0.5;"/><path d="M23.2681,21.5 L23.2681,48.5 M10.2681,29.5 L36.2681,29.5 M23.2681,48.5 L10.2681,63.5 M23.2681,48.5 L36.2681,63.5" fill="none" style="stroke:#181818;stroke-width:0.5;"/></g><g class="participant participant-head" data-entity-uid="part2" data-qualified-name="session" data-source-line="5" id="part2-head"><rect fill="#E2E2F0" height="30.2969" rx="2.5" ry="2.5" style="stroke:#181818;stroke-width:0.5;" width="128.4063" x="285.1118" y="50"/><text fill="#000000" font-family="sans-serif" font-size="14" lengthAdjust="spacing" textLength="114.4063" x="292.1118" y="69.9951">session: Session</text></g><g class="participant participant-head" data-entity-uid="part3" data-qualified-name="cache" data-source-line="6" id="part3-head"><rect fill="#E2E2F0" height="30.2969" rx="2.5" ry="2.5" style="stroke:#181818;stroke-width:0.5;" width="171.4385" x="458.8281" y="50"/><text fill="#000000" font-family="sans-serif" font-size="14" lengthAdjust="spacing" textLength="157.4385" x="465.8281" y="69.9951">session._cache: Cache</text></g><g class="participant participant-head" data-entity-uid="part4" data-qualified-name="entity" data-source-line="7" id="part4-head"><rect fill="#E2E2F0" height="30.2969" rx="2.5" ry="2.5" style="stroke:#181818;stroke-width:0.5;" width="138.7695" x="760.9233" y="50"/><text fill="#000000" font-family="sans-serif" font-size="14" lengthAdjust="spacing" textLength="124.7695" x="767.9233" y="69.9951">entity: BaseEntity</text></g><g class="participant participant-head" data-entity-uid="part5" data-qualified-name="model" data-source-line="8" id="part5-head"><rect fill="#E2E2F0" height="30.2969" rx="2.5" ry="2.5" style="stroke:#181818;stroke-width:0.5;" width="235.8467" x="909.6929" y="50"/><text fill="#000000" font-family="sans-serif" font-size="14" lengthAdjust="spacing" textLength="221.8467" x="916.6929" y="69.9951">entity._model: BaseEntityModel</text></g><g class="participant participant-head" data-entity-uid="part6" data-qualified-name="driver" data-source-line="9" id="part6-head"><rect fill="#E2E2F0" height="30.2969" rx="2.5" ry="2.5" style="stroke:#181818;stroke-width:0.5;" width="241.6572" x="1155.5396" y="50"/><text fill="#000000" font-family="sans-serif" font-size="14" lengthAdjust="spacing" textLength="227.6572" x="1162.5396" y="69.9951">entity._model.driver: BaseDriver</text></g><g class="participant participant-head" data-entity-uid="part7" data-qualified-name="etapi" data-source-line="10" id="part7-head"><text fill="#000000" font-family="sans-serif" font-size="14" lengthAdjust="spacing" textLength="39.5459" x="1494.1309" y="77.9951">ETAPI</text><path d="M1498.9038,29 C1498.9038,19 1516.9038,19 1516.9038,19 C1516.9038,19 1534.9038,19 1534.9038,29 L1534.9038,55 C1534.9038,65 1516.9038,65 1516.9038,65 C1516.9038,65 1498.9038,65 1498.9038,55 L1498.9038,29" fill="#E2E2F0" style="stroke:#181818;stroke-width:0.5;"/><path d="M1498.9038,29 C1498.9038,39 1516.9038,39 1516.9038,39 C1516.9038,39 1534.9038,39 1534.9038,29" fill="none" style="stroke:#181818;stroke-width:0.5;"/></g><g><title>session. Session</title><rect fill="#FFFFFF" height="1166.8594" style="stroke:#181818;stroke-width:1;" width="10" x="344.3149" y="112.4297"/></g><g><title>session._cache. Cache</title><rect fill="#FFFFFF" height="1123.7266" style="stroke:#181818;stroke-width:1;" width="10" x="539.5474" y="141.5625"/></g><g><title>entity. BaseEntity</title><rect fill="#FFFFFF" height="860.7969" style="stroke:#181818;stroke-width:1;" width="10" x="825.3081" y="369.4922"/></g><g><title>entity._model. BaseEntityModel</title><rect fill="#FFFFFF" height="571.7344" style="stroke:#181818;stroke-width:1;" width="10" x="1022.6162" y="422.7578"/></g><g><title>entity._model. BaseEntityModel</title><rect fill="#FFFFFF" height="89.2656" style="stroke:#181818;stroke-width:1;" width="10" x="1022.6162" y="1106.0234"/></g><g><title>entity._model.driver. BaseDriver</title><rect fill="#FFFFFF" height="136.5313" style="stroke:#181818;stroke-width:1;" width="10" x="1271.3682" y="476.0234"/></g><g><title>entity._model.driver. BaseDriver</title><rect fill="#FFFFFF" height="136.5313" style="stroke:#181818;stroke-width:1;" width="10" x="1271.3682" y="656.4922"/></g><g><title>entity._model.driver. BaseDriver</title><rect fill="#FFFFFF" height="136.5313" style="stroke:#181818;stroke-width:1;" width="10" x="1271.3682" y="836.9609"/></g><g><title>entity._model.driver. BaseDriver</title><rect fill="#FFFFFF" height="43.1328" style="stroke:#181818;stroke-width:1;" width="10" x="1271.3682" y="1138.1563"/></g><g class="message" data-entity-1="part1" data-entity-2="part2" data-source-line="12" id="msg1"><polygon fill="#181818" points="332.3149,108.4297,342.3149,112.4297,332.3149,116.4297,336.3149,112.4297" style="stroke:#181818;stroke-width:1;stroke-linejoin:miter;stroke-miterlimit:10;"/><line style="stroke:#181818;stroke-width:1;" x1="23.2681" x2="338.3149" y1="112.4297" y2="112.4297"/><text fill="#000000" font-family="sans-serif" font-size="13" lengthAdjust="spacing" textLength="302.0469" x="30.2681" y="107.3638">session.flush(entities: Iterable[Entity] = None)</text></g><g class="message" data-entity-1="part2" data-entity-2="part3" data-source-line="13" id="msg2"><polygon fill="#181818" points="527.5474,137.5625,537.5474,141.5625,527.5474,145.5625,531.5474,141.5625" style="stroke:#181818;stroke-width:1;stroke-linejoin:miter;stroke-miterlimit:10;"/><line style="stroke:#181818;stroke-width:1;" x1="354.3149" x2="533.5474" y1="141.5625" y2="141.5625"/><text fill="#000000" font-family="sans-serif" font-size="13" lengthAdjust="spacing" textLength="166.2324" x="361.3149" y="136.4966">self._cache.flush(entities)</text></g><g class="message" data-entity-1="part3" data-entity-2="part3" data-source-line="15" id="msg3"><line style="stroke:#181818;stroke-width:1;" x1="549.5474" x2="591.5474" y1="170.6953" y2="170.6953"/><line style="stroke:#181818;stroke-width:1;" x1="591.5474" x2="591.5474" y1="170.6953" y2="183.6953"/><line style="stroke:#181818;stroke-width:1;" x1="550.5474" x2="591.5474" y1="183.6953" y2="183.6953"/><polygon fill="#181818" points="560.5474,179.6953,550.5474,183.6953,560.5474,187.6953,556.5474,183.6953" style="stroke:#181818;stroke-width:1;stroke-linejoin:miter;stroke-miterlimit:10;"/><text fill="#000000" font-family="sans-serif" font-size="13" lengthAdjust="spacing" textLength="105.9551" x="556.5474" y="165.6294">Validate entities</text></g><g class="message" data-entity-1="part3" data-entity-2="part3" data-source-line="16" id="msg4"><line style="stroke:#181818;stroke-width:1;" x1="549.5474" x2="591.5474" y1="212.8281" y2="212.8281"/><line style="stroke:#181818;stroke-width:1;" x1="591.5474" x2="591.5474" y1="212.8281" y2="225.8281"/><line style="stroke:#181818;stroke-width:1;" x1="550.5474" x2="591.5474" y1="225.8281" y2="225.8281"/><polygon fill="#181818" points="560.5474,221.8281,550.5474,225.8281,560.5474,229.8281,556.5474,225.8281" style="stroke:#181818;stroke-width:1;stroke-linejoin:miter;stroke-miterlimit:10;"/><text fill="#000000" font-family="sans-serif" font-size="13" lengthAdjust="spacing" textLength="224.3071" x="556.5474" y="207.7622">Collect and validate dependencies</text></g><g class="message" data-entity-1="part3" data-entity-2="part3" data-source-line="17" id="msg5"><line style="stroke:#181818;stroke-width:1;" x1="549.5474" x2="591.5474" y1="254.9609" y2="254.9609"/><line style="stroke:#181818;stroke-width:1;" x1="591.5474" x2="591.5474" y1="254.9609" y2="267.9609"/><line style="stroke:#181818;stroke-width:1;" x1="550.5474" x2="591.5474" y1="267.9609" y2="267.9609"/><polygon fill="#181818" points="560.5474,263.9609,550.5474,267.9609,560.5474,271.9609,556.5474,267.9609" style="stroke:#181818;stroke-width:1;stroke-linejoin:miter;stroke-miterlimit:10;"/><text fill="#000000" font-family="sans-serif" font-size="13" lengthAdjust="spacing" textLength="251.7607" x="556.5474" y="249.895">Create and populate topological sorter</text></g><path d="M428.8281,282.9609 L505.4521,282.9609 L505.4521,290.0938 L495.4521,300.0938 L428.8281,300.0938 L428.8281,282.9609" fill="#EEEEEE" style="stroke:#000000;stroke-width:1.5;"/><rect fill="none" height="969.3281" style="stroke:#000000;stroke-width:1.5;" width="1170.8486" x="428.8281" y="282.9609"/><text fill="#000000" font-family="sans-serif" font-size="13" font-weight="700" lengthAdjust="spacing" textLength="31.624" x="443.8281" y="296.0278">loop</text><text fill="#000000" font-family="sans-serif" font-size="11" font-weight="700" lengthAdjust="spacing" textLength="152.2061" x="520.4521" y="295.1714">[while sorter.is_active()]</text><path d="M438.8281,307.0938 L515.4521,307.0938 L515.4521,314.2266 L505.4521,324.2266 L438.8281,324.2266 L438.8281,307.0938" fill="#EEEEEE" style="stroke:#000000;stroke-width:1.5;"/><rect fill="none" height="938.1953" style="stroke:#000000;stroke-width:1.5;" width="1150.8486" x="438.8281" y="307.0938"/><text fill="#000000" font-family="sans-serif" font-size="13" font-weight="700" lengthAdjust="spacing" textLength="31.624" x="453.8281" y="320.1606">loop</text><text fill="#000000" font-family="sans-serif" font-size="11" font-weight="700" lengthAdjust="spacing" textLength="201.0132" x="530.4521" y="319.3042">[for entity in sorter.get_ready()]</text><path d="M448.8281,331.2266 L513.271,331.2266 L513.271,338.3594 L503.271,348.3594 L448.8281,348.3594 L448.8281,331.2266" fill="#EEEEEE" style="stroke:#000000;stroke-width:1.5;"/><rect fill="none" height="907.0625" style="stroke:#000000;stroke-width:1.5;" width="1130.8486" x="448.8281" y="331.2266"/><text fill="#000000" font-family="sans-serif" font-size="13" font-weight="700" lengthAdjust="spacing" textLength="19.4429" x="463.8281" y="344.2935">alt</text><text fill="#000000" font-family="sans-serif" font-size="11" font-weight="700" lengthAdjust="spacing" textLength="203.1992" x="528.271" y="343.437">[entity.state is not State.CLEAN]</text><g class="message" data-entity-1="part3" data-entity-2="part4" data-source-line="22" id="msg6"><polygon fill="#181818" points="813.3081,365.4922,823.3081,369.4922,813.3081,373.4922,817.3081,369.4922" style="stroke:#181818;stroke-width:1;stroke-linejoin:miter;stroke-miterlimit:10;"/><line style="stroke:#181818;stroke-width:1;" x1="549.5474" x2="819.3081" y1="369.4922" y2="369.4922"/><text fill="#000000" font-family="sans-serif" font-size="13" lengthAdjust="spacing" textLength="128.4639" x="556.5474" y="364.4263">entity._flush(sorter)</text></g><path d="M750.9233,384.4922 L815.3662,384.4922 L815.3662,391.625 L805.3662,401.625 L750.9233,401.625 L750.9233,384.4922" fill="#EEEEEE" style="stroke:#000000;stroke-width:1.5;"/><rect fill="none" height="618" style="stroke:#000000;stroke-width:1.5;" width="818.7534" x="750.9233" y="384.4922"/><text fill="#000000" font-family="sans-serif" font-size="13" font-weight="700" lengthAdjust="spacing" textLength="19.4429" x="765.9233" y="397.5591">alt</text><text fill="#000000" font-family="sans-serif" font-size="11" font-weight="700" lengthAdjust="spacing" textLength="118.4541" x="830.3662" y="396.7026">[Model is changed]</text><g class="message" data-entity-1="part4" data-entity-2="part5" data-source-line="24" id="msg7"><polygon fill="#181818" points="1010.6162,418.7578,1020.6162,422.7578,1010.6162,426.7578,1014.6162,422.7578" style="stroke:#181818;stroke-width:1;stroke-linejoin:miter;stroke-miterlimit:10;"/><line style="stroke:#181818;stroke-width:1;" x1="835.3081" x2="1016.6162" y1="422.7578" y2="422.7578"/><text fill="#000000" font-family="sans-serif" font-size="13" lengthAdjust="spacing" textLength="158.2979" x="842.3081" y="417.6919">self._model.flush(sorter)</text></g><path d="M899.6929,437.7578 L964.1357,437.7578 L964.1357,444.8906 L954.1357,454.8906 L899.6929,454.8906 L899.6929,437.7578" fill="#EEEEEE" style="stroke:#000000;stroke-width:1.5;"/><rect fill="none" height="543.7344" style="stroke:#000000;stroke-width:1.5;" width="659.9839" x="899.6929" y="437.7578"/><text fill="#000000" font-family="sans-serif" font-size="13" font-weight="700" lengthAdjust="spacing" textLength="19.4429" x="914.6929" y="450.8247">alt</text><text fill="#000000" font-family="sans-serif" font-size="11" font-weight="700" lengthAdjust="spacing" textLength="185.9956" x="979.1357" y="449.9683">[entity.state is State.CREATE]</text><g class="message" data-entity-1="part5" data-entity-2="part6" data-source-line="26" id="msg8"><polygon fill="#181818" points="1259.3682,472.0234,1269.3682,476.0234,1259.3682,480.0234,1263.3682,476.0234" style="stroke:#181818;stroke-width:1;stroke-linejoin:miter;stroke-miterlimit:10;"/><line style="stroke:#181818;stroke-width:1;" x1="1032.6162" x2="1265.3682" y1="476.0234" y2="476.0234"/><text fill="#000000" font-family="sans-serif" font-size="13" lengthAdjust="spacing" textLength="204.1152" x="1039.6162" y="470.9575">self._driver.flush_create(sorter)</text></g><path d="M1145.5396,491.0234 L1209.9824,491.0234 L1209.9824,498.1563 L1199.9824,508.1563 L1145.5396,508.1563 L1145.5396,491.0234" fill="#EEEEEE" style="stroke:#000000;stroke-width:1.5;"/><rect fill="none" height="108.5313" style="stroke:#000000;stroke-width:1.5;" width="404.1372" x="1145.5396" y="491.0234"/><text fill="#000000" font-family="sans-serif" font-size="13" font-weight="700" lengthAdjust="spacing" textLength="19.4429" x="1160.5396" y="504.0903">alt</text><g class="message" data-entity-1="part6" data-entity-2="part7" data-source-line="28" id="msg9"><polygon fill="#181818" points="1504.9038,525.2891,1514.9038,529.2891,1504.9038,533.2891,1508.9038,529.2891" style="stroke:#181818;stroke-width:1;stroke-linejoin:miter;stroke-miterlimit:10;"/><line style="stroke:#181818;stroke-width:1;" x1="1281.3682" x2="1510.9038" y1="529.2891" y2="529.2891"/><text fill="#000000" font-family="sans-serif" font-size="13" lengthAdjust="spacing" textLength="118.3076" x="1288.3682" y="524.2231">POST /create-note</text></g><line style="stroke:#000000;stroke-width:1;stroke-dasharray:2,2;" x1="1145.5396" x2="1549.6768" y1="538.2891" y2="538.2891"/><g class="message" data-entity-1="part6" data-entity-2="part7" data-source-line="30" id="msg10"><polygon fill="#181818" points="1504.9038,556.4219,1514.9038,560.4219,1504.9038,564.4219,1508.9038,560.4219" style="stroke:#181818;stroke-width:1;stroke-linejoin:miter;stroke-miterlimit:10;"/><line style="stroke:#181818;stroke-width:1;" x1="1281.3682" x2="1510.9038" y1="560.4219" y2="560.4219"/><text fill="#000000" font-family="sans-serif" font-size="13" lengthAdjust="spacing" textLength="106.2534" x="1288.3682" y="555.356">POST /attributes</text></g><line style="stroke:#000000;stroke-width:1;stroke-dasharray:2,2;" x1="1145.5396" x2="1549.6768" y1="569.4219" y2="569.4219"/><g class="message" data-entity-1="part6" data-entity-2="part7" data-source-line="32" id="msg11"><polygon fill="#181818" points="1504.9038,587.5547,1514.9038,591.5547,1504.9038,595.5547,1508.9038,591.5547" style="stroke:#181818;stroke-width:1;stroke-linejoin:miter;stroke-miterlimit:10;"/><line style="stroke:#181818;stroke-width:1;" x1="1281.3682" x2="1510.9038" y1="591.5547" y2="591.5547"/><text fill="#000000" font-family="sans-serif" font-size="13" lengthAdjust="spacing" textLength="102.7368" x="1288.3682" y="586.4888">POST /branches</text></g><g class="message" data-entity-1="part6" data-entity-2="part5" data-source-line="34" id="msg12"><polygon fill="#181818" points="1043.6162,608.5547,1033.6162,612.5547,1043.6162,616.5547,1039.6162,612.5547" style="stroke:#181818;stroke-width:1;stroke-linejoin:miter;stroke-miterlimit:10;"/><line style="stroke:#181818;stroke-width:1;stroke-dasharray:2,2;" x1="1037.6162" x2="1275.3682" y1="612.5547" y2="612.5547"/></g><line style="stroke:#000000;stroke-width:1;stroke-dasharray:2,2;" x1="899.6929" x2="1559.6768" y1="621.5547" y2="621.5547"/><text fill="#000000" font-family="sans-serif" font-size="11" font-weight="700" lengthAdjust="spacing" textLength="188.0635" x="904.6929" y="631.7651">[entity.state is State.UPDATE]</text><g class="message" data-entity-1="part5" data-entity-2="part6" data-source-line="36" id="msg13"><polygon fill="#181818" points="1259.3682,652.4922,1269.3682,656.4922,1259.3682,660.4922,1263.3682,656.4922" style="stroke:#181818;stroke-width:1;stroke-linejoin:miter;stroke-miterlimit:10;"/><line style="stroke:#181818;stroke-width:1;" x1="1032.6162" x2="1265.3682" y1="656.4922" y2="656.4922"/><text fill="#000000" font-family="sans-serif" font-size="13" lengthAdjust="spacing" textLength="208.3682" x="1039.6162" y="651.4263">self._driver.flush_update(sorter)</text></g><path d="M1145.5396,671.4922 L1209.9824,671.4922 L1209.9824,678.625 L1199.9824,688.625 L1145.5396,688.625 L1145.5396,671.4922" fill="#EEEEEE" style="stroke:#000000;stroke-width:1.5;"/><rect fill="none" height="108.5313" style="stroke:#000000;stroke-width:1.5;" width="404.1372" x="1145.5396" y="671.4922"/><text fill="#000000" font-family="sans-serif" font-size="13" font-weight="700" lengthAdjust="spacing" textLength="19.4429" x="1160.5396" y="684.5591">alt</text><g class="message" data-entity-1="part6" data-entity-2="part7" data-source-line="38" id="msg14"><polygon fill="#181818" points="1504.9038,705.7578,1514.9038,709.7578,1504.9038,713.7578,1508.9038,709.7578" style="stroke:#181818;stroke-width:1;stroke-linejoin:miter;stroke-miterlimit:10;"/><line style="stroke:#181818;stroke-width:1;" x1="1281.3682" x2="1510.9038" y1="709.7578" y2="709.7578"/><text fill="#000000" font-family="sans-serif" font-size="13" lengthAdjust="spacing" textLength="150.395" x="1288.3682" y="704.6919">PATCH /notes/{noteId}</text></g><line style="stroke:#000000;stroke-width:1;stroke-dasharray:2,2;" x1="1145.5396" x2="1549.6768" y1="718.7578" y2="718.7578"/><g class="message" data-entity-1="part6" data-entity-2="part7" data-source-line="40" id="msg15"><polygon fill="#181818" points="1504.9038,736.8906,1514.9038,740.8906,1504.9038,744.8906,1508.9038,740.8906" style="stroke:#181818;stroke-width:1;stroke-linejoin:miter;stroke-miterlimit:10;"/><line style="stroke:#181818;stroke-width:1;" x1="1281.3682" x2="1510.9038" y1="740.8906" y2="740.8906"/><text fill="#000000" font-family="sans-serif" font-size="13" lengthAdjust="spacing" textLength="205.2261" x="1288.3682" y="735.8247">PATCH /attributes/{attributeId}</text></g><line style="stroke:#000000;stroke-width:1;stroke-dasharray:2,2;" x1="1145.5396" x2="1549.6768" y1="749.8906" y2="749.8906"/><g class="message" data-entity-1="part6" data-entity-2="part7" data-source-line="42" id="msg16"><polygon fill="#181818" points="1504.9038,768.0234,1514.9038,772.0234,1504.9038,776.0234,1508.9038,772.0234" style="stroke:#181818;stroke-width:1;stroke-linejoin:miter;stroke-miterlimit:10;"/><line style="stroke:#181818;stroke-width:1;" x1="1281.3682" x2="1510.9038" y1="772.0234" y2="772.0234"/><text fill="#000000" font-family="sans-serif" font-size="13" lengthAdjust="spacing" textLength="190.1948" x="1288.3682" y="766.9575">PATCH /branches/{branchId}</text></g><g class="message" data-entity-1="part6" data-entity-2="part5" data-source-line="44" id="msg17"><polygon fill="#181818" points="1043.6162,789.0234,1033.6162,793.0234,1043.6162,797.0234,1039.6162,793.0234" style="stroke:#181818;stroke-width:1;stroke-linejoin:miter;stroke-miterlimit:10;"/><line style="stroke:#181818;stroke-width:1;stroke-dasharray:2,2;" x1="1037.6162" x2="1275.3682" y1="793.0234" y2="793.0234"/></g><line style="stroke:#000000;stroke-width:1;stroke-dasharray:2,2;" x1="899.6929" x2="1559.6768" y1="802.0234" y2="802.0234"/><text fill="#000000" font-family="sans-serif" font-size="11" font-weight="700" lengthAdjust="spacing" textLength="184.5938" x="904.6929" y="812.2339">[entity.state is State.DELETE]</text><g class="message" data-entity-1="part5" data-entity-2="part6" data-source-line="46" id="msg18"><polygon fill="#181818" points="1259.3682,832.9609,1269.3682,836.9609,1259.3682,840.9609,1263.3682,836.9609" style="stroke:#181818;stroke-width:1;stroke-linejoin:miter;stroke-miterlimit:10;"/><line style="stroke:#181818;stroke-width:1;" x1="1032.6162" x2="1265.3682" y1="836.9609" y2="836.9609"/><text fill="#000000" font-family="sans-serif" font-size="13" lengthAdjust="spacing" textLength="203.5186" x="1039.6162" y="831.895">self._driver.flush_delete(sorter)</text></g><path d="M1145.5396,851.9609 L1209.9824,851.9609 L1209.9824,859.0938 L1199.9824,869.0938 L1145.5396,869.0938 L1145.5396,851.9609" fill="#EEEEEE" style="stroke:#000000;stroke-width:1.5;"/><rect fill="none" height="108.5313" style="stroke:#000000;stroke-width:1.5;" width="404.1372" x="1145.5396" y="851.9609"/><text fill="#000000" font-family="sans-serif" font-size="13" font-weight="700" lengthAdjust="spacing" textLength="19.4429" x="1160.5396" y="865.0278">alt</text><g class="message" data-entity-1="part6" data-entity-2="part7" data-source-line="48" id="msg19"><polygon fill="#181818" points="1504.9038,886.2266,1514.9038,890.2266,1504.9038,894.2266,1508.9038,890.2266" style="stroke:#181818;stroke-width:1;stroke-linejoin:miter;stroke-miterlimit:10;"/><line style="stroke:#181818;stroke-width:1;" x1="1281.3682" x2="1510.9038" y1="890.2266" y2="890.2266"/><text fill="#000000" font-family="sans-serif" font-size="13" lengthAdjust="spacing" textLength="156.7046" x="1288.3682" y="885.1606">DELETE /notes/{noteId}</text></g><line style="stroke:#000000;stroke-width:1;stroke-dasharray:2,2;" x1="1145.5396" x2="1549.6768" y1="899.2266" y2="899.2266"/><g class="message" data-entity-1="part6" data-entity-2="part7" data-source-line="50" id="msg20"><polygon fill="#181818" points="1504.9038,917.3594,1514.9038,921.3594,1504.9038,925.3594,1508.9038,921.3594" style="stroke:#181818;stroke-width:1;stroke-linejoin:miter;stroke-miterlimit:10;"/><line style="stroke:#181818;stroke-width:1;" x1="1281.3682" x2="1510.9038" y1="921.3594" y2="921.3594"/><text fill="#000000" font-family="sans-serif" font-size="13" lengthAdjust="spacing" textLength="211.5356" x="1288.3682" y="916.2935">DELETE /attributes/{attributeId}</text></g><line style="stroke:#000000;stroke-width:1;stroke-dasharray:2,2;" x1="1145.5396" x2="1549.6768" y1="930.3594" y2="930.3594"/><g class="message" data-entity-1="part6" data-entity-2="part7" data-source-line="52" id="msg21"><polygon fill="#181818" points="1504.9038,948.4922,1514.9038,952.4922,1504.9038,956.4922,1508.9038,952.4922" style="stroke:#181818;stroke-width:1;stroke-linejoin:miter;stroke-miterlimit:10;"/><line style="stroke:#181818;stroke-width:1;" x1="1281.3682" x2="1510.9038" y1="952.4922" y2="952.4922"/><text fill="#000000" font-family="sans-serif" font-size="13" lengthAdjust="spacing" textLength="196.5044" x="1288.3682" y="947.4263">DELETE /branches/{branchId}</text></g><g class="message" data-entity-1="part6" data-entity-2="part5" data-source-line="54" id="msg22"><polygon fill="#181818" points="1043.6162,969.4922,1033.6162,973.4922,1043.6162,977.4922,1039.6162,973.4922" style="stroke:#181818;stroke-width:1;stroke-linejoin:miter;stroke-miterlimit:10;"/><line style="stroke:#181818;stroke-width:1;stroke-dasharray:2,2;" x1="1037.6162" x2="1275.3682" y1="973.4922" y2="973.4922"/></g><g class="message" data-entity-1="part5" data-entity-2="part4" data-source-line="56" id="msg23"><polygon fill="#181818" points="846.3081,990.4922,836.3081,994.4922,846.3081,998.4922,842.3081,994.4922" style="stroke:#181818;stroke-width:1;stroke-linejoin:miter;stroke-miterlimit:10;"/><line style="stroke:#181818;stroke-width:1;stroke-dasharray:2,2;" x1="840.3081" x2="1026.6162" y1="994.4922" y2="994.4922"/></g><path d="M730.9233,1016.4922 L795.3662,1016.4922 L795.3662,1023.625 L785.3662,1033.625 L730.9233,1033.625 L730.9233,1016.4922" fill="#EEEEEE" style="stroke:#000000;stroke-width:1.5;"/><rect fill="none" height="200.7969" style="stroke:#000000;stroke-width:1.5;" width="838.7534" x="730.9233" y="1016.4922"/><text fill="#000000" font-family="sans-serif" font-size="13" font-weight="700" lengthAdjust="spacing" textLength="19.4429" x="745.9233" y="1029.5591">alt</text><text fill="#000000" font-family="sans-serif" font-size="11" font-weight="700" lengthAdjust="spacing" textLength="209.0698" x="810.3662" y="1028.7026">[entity.state is not State.DELETE]</text><path d="M740.9233,1040.625 L817.5474,1040.625 L817.5474,1047.7578 L807.5474,1057.7578 L740.9233,1057.7578 L740.9233,1040.625" fill="#EEEEEE" style="stroke:#000000;stroke-width:1.5;"/><rect fill="none" height="169.6641" style="stroke:#000000;stroke-width:1.5;" width="818.7534" x="740.9233" y="1040.625"/><text fill="#000000" font-family="sans-serif" font-size="13" font-weight="700" lengthAdjust="spacing" textLength="31.624" x="755.9233" y="1053.6919">loop</text><text fill="#000000" font-family="sans-serif" font-size="11" font-weight="700" lengthAdjust="spacing" textLength="232.3159" x="832.5474" y="1052.8354">[for ext in entity._model._extensions]</text><path d="M750.9233,1064.7578 L815.3662,1064.7578 L815.3662,1071.8906 L805.3662,1081.8906 L750.9233,1081.8906 L750.9233,1064.7578" fill="#EEEEEE" style="stroke:#000000;stroke-width:1.5;"/><rect fill="none" height="138.5313" style="stroke:#000000;stroke-width:1.5;" width="798.7534" x="750.9233" y="1064.7578"/><text fill="#000000" font-family="sans-serif" font-size="13" font-weight="700" lengthAdjust="spacing" textLength="19.4429" x="765.9233" y="1077.8247">alt</text><text fill="#000000" font-family="sans-serif" font-size="11" font-weight="700" lengthAdjust="spacing" textLength="108.1792" x="830.3662" y="1076.9683">[ext._is_changed]</text><g class="message" data-entity-1="part4" data-entity-2="part5" data-source-line="61" id="msg24"><polygon fill="#181818" points="1010.6162,1102.0234,1020.6162,1106.0234,1010.6162,1110.0234,1014.6162,1106.0234" style="stroke:#181818;stroke-width:1;stroke-linejoin:miter;stroke-miterlimit:10;"/><line style="stroke:#181818;stroke-width:1;" x1="835.3081" x2="1016.6162" y1="1106.0234" y2="1106.0234"/><text fill="#000000" font-family="sans-serif" font-size="13" lengthAdjust="spacing" textLength="73.0044" x="842.3081" y="1100.9575">ext._flush()</text></g><path d="M1037,1086.8906 L1037,1111.8906 L1517,1111.8906 L1517,1096.8906 L1507,1086.8906 L1037,1086.8906" fill="#FEFFDD" style="stroke:#181818;stroke-width:0.5;"/><path d="M1507,1086.8906 L1507,1096.8906 L1517,1096.8906 L1507,1086.8906" fill="#FEFFDD" style="stroke:#181818;stroke-width:0.5;"/><text fill="#000000" font-family="sans-serif" font-size="13" lengthAdjust="spacing" textLength="459.6592" x="1043" y="1103.9575">Note content implemented as model extension and flushed separately</text><g class="message" data-entity-1="part5" data-entity-2="part6" data-source-line="63" id="msg26"><polygon fill="#181818" points="1259.3682,1134.1563,1269.3682,1138.1563,1259.3682,1142.1563,1263.3682,1138.1563" style="stroke:#181818;stroke-width:1;stroke-linejoin:miter;stroke-miterlimit:10;"/><line style="stroke:#181818;stroke-width:1;" x1="1032.6162" x2="1265.3682" y1="1138.1563" y2="1138.1563"/><text fill="#000000" font-family="sans-serif" font-size="13" lengthAdjust="spacing" textLength="115.3813" x="1039.6162" y="1133.0903">ext._driver.flush()</text></g><g class="message" data-entity-1="part6" data-entity-2="part7" data-source-line="64" id="msg27"><polygon fill="#181818" points="1504.9038,1163.2891,1514.9038,1167.2891,1504.9038,1171.2891,1508.9038,1167.2891" style="stroke:#181818;stroke-width:1;stroke-linejoin:miter;stroke-miterlimit:10;"/><line style="stroke:#181818;stroke-width:1;" x1="1281.3682" x2="1510.9038" y1="1167.2891" y2="1167.2891"/><text fill="#000000" font-family="sans-serif" font-size="13" lengthAdjust="spacing" textLength="186.3164" x="1288.3682" y="1162.2231">PUT /notes/{noteId}/content</text></g><g class="message" data-entity-1="part6" data-entity-2="part5" data-source-line="65" id="msg28"><polygon fill="#181818" points="1043.6162,1177.2891,1033.6162,1181.2891,1043.6162,1185.2891,1039.6162,1181.2891" style="stroke:#181818;stroke-width:1;stroke-linejoin:miter;stroke-miterlimit:10;"/><line style="stroke:#181818;stroke-width:1;stroke-dasharray:2,2;" x1="1037.6162" x2="1275.3682" y1="1181.2891" y2="1181.2891"/></g><g class="message" data-entity-1="part5" data-entity-2="part4" data-source-line="66" id="msg29"><polygon fill="#181818" points="846.3081,1191.2891,836.3081,1195.2891,846.3081,1199.2891,842.3081,1195.2891" style="stroke:#181818;stroke-width:1;stroke-linejoin:miter;stroke-miterlimit:10;"/><line style="stroke:#181818;stroke-width:1;stroke-dasharray:2,2;" x1="840.3081" x2="1026.6162" y1="1195.2891" y2="1195.2891"/></g><g class="message" data-entity-1="part4" data-entity-2="part3" data-source-line="70" id="msg30"><polygon fill="#181818" points="560.5474,1226.2891,550.5474,1230.2891,560.5474,1234.2891,556.5474,1230.2891" style="stroke:#181818;stroke-width:1;stroke-linejoin:miter;stroke-miterlimit:10;"/><line style="stroke:#181818;stroke-width:1;stroke-dasharray:2,2;" x1="554.5474" x2="829.3081" y1="1230.2891" y2="1230.2891"/></g><g class="message" data-entity-1="part3" data-entity-2="part2" data-source-line="75" id="msg31"><polygon fill="#181818" points="365.3149,1261.2891,355.3149,1265.2891,365.3149,1269.2891,361.3149,1265.2891" style="stroke:#181818;stroke-width:1;stroke-linejoin:miter;stroke-miterlimit:10;"/><line style="stroke:#181818;stroke-width:1;stroke-dasharray:2,2;" x1="359.3149" x2="543.5474" y1="1265.2891" y2="1265.2891"/></g><g class="message" data-entity-1="part2" data-entity-2="part1" data-source-line="76" id="msg32"><polygon fill="#181818" points="34.2681,1275.2891,24.2681,1279.2891,34.2681,1283.2891,30.2681,1279.2891" style="stroke:#181818;stroke-width:1;stroke-linejoin:miter;stroke-miterlimit:10;"/><line style="stroke:#181818;stroke-width:1;stroke-dasharray:2,2;" x1="28.2681" x2="348.3149" y1="1279.2891" y2="1279.2891"/></g><?plantuml-src nLPTQzim57tNhxZqgQ74UJSiaAM65RekhEbUnZ2ATPC85Cb8IjTIzj-dBwTfcjYbQp91aN9rhixHrN6b9MS8SwNiJ3qGGYkhDAmDQg0czAIcslAArrHQE3De35SoXziuEFEm5DoBpCgALalCOUox00-1bs2Kbjl773vJWqKO1sGCxuDcvKen5DiPNtqWf8MfbgoCQNwFEYPVXd78Ys72gAKpDmDdnNGqkOfABAqv8RuW_M7Q6bnSvCtUixbOc-LveE5eShYogEbCuCyexXTyWXibiKTIGdyOof3M4FDKfvrrUeI4S4Bdy8CAxlGXD8YT-R4I0YiBL3AuRx0CQvGCPRK7hz4ZFBnMzLhu7rRLIgW5hwW0exJR2252gHf-Bxd05CguAPrPNC7EUmHS2uYvCqyiDN3P81TeIqV37XFIDofi0cR6Ub9kG2eBj_v7DhukHZSRh6z9TLhR5wqvqLYmIDLxaTFm16DuWcf9vGBPAv1lSRd-C1XawrIYOTf9sZQLDlIz64sBWuc-1QB-C7fmIq0CH0Lb5OwhKyYMe4wCRv73bTUxF8V9jzif329NtvqATYw2mk3xcQYrci_Mrhdpk4GpJQNpqHje96l5QBHhBKcRoWDEk9jSVeWJrZKxXHD6q_4N67WFcC6JxwxOd-CTKcHxjiFWQJC-0M_ZZi5J7Bs9ycX6kIokYuymYeFWyOqIrPxCAGtToQtI4FyFhnn8Fv2s3zv-wxOuxlboVx3-Pd_vd2fT5AL_rPZsk_71PgLxDxJTmuVluv0TB-9k6ti3WkQBfStTkykDAoMTHYT-LGjSkH6opLCHDlh3GoXmk6c3xWdf2YCUE-bUVub1xVQ7-0RH-_urtKrtFwf1sahdSXr--WVBxOllndQMRgPzx_z8ca_TNm00?></g></svg>