<svg xmlns="http://www.w3.org/2000/svg" xmlns:xlink="http://www.w3.org/1999/xlink" contentStyleType="text/css" data-diagram-type="GANTT" height="174px" preserveAspectRatio="none" style="width:597px;height:174px;background:#FFFFFF;" version="1.1" viewBox="0 0 597 174" width="597px" zoomAndPan="magnify"><?plantuml 1.2026.6?><defs/><g><line style="stroke:#C0C0C0;stroke-width:1;" x1="0" x2="0" y1="6" y2="173.125"/><line style="stroke:#C0C0C0;stroke-width:1;" x1="16" x2="16" y1="6" y2="173.125"/><line style="stroke:#C0C0C0;stroke-width:1;" x1="32" x2="32" y1="6" y2="173.125"/><line style="stroke:#C0C0C0;stroke-width:1;" x1="48" x2="48" y1="6" y2="173.125"/><line style="stroke:#C0C0C0;stroke-width:1;" x1="64" x2="64" y1="6" y2="173.125"/><line style="stroke:#C0C0C0;stroke-width:1;" x1="80" x2="80" y1="6" y2="173.125"/><line style="stroke:#C0C0C0;stroke-width:1;" x1="96" x2="96" y1="6" y2="173.125"/><line style="stroke:#C0C0C0;stroke-width:1;" x1="112" x2="112" y1="6" y2="173.125"/><line style="stroke:#C0C0C0;stroke-width:1;" x1="128" x2="128" y1="6" y2="173.125"/><line style="stroke:#C0C0C0;stroke-width:1;" x1="144" x2="144" y1="6" y2="173.125"/><line style="stroke:#C0C0C0;stroke-width:1;" x1="160" x2="160" y1="6" y2="173.125"/><line style="stroke:#C0C0C0;stroke-width:1;" x1="176" x2="176" y1="6" y2="173.125"/><line style="stroke:#C0C0C0;stroke-width:1;" x1="192" x2="192" y1="6" y2="173.125"/><line style="stroke:#C0C0C0;stroke-width:1;" x1="208" x2="208" y1="6" y2="173.125"/><line style="stroke:#C0C0C0;stroke-width:1;" x1="224" x2="224" y1="6" y2="173.125"/><line style="stroke:#C0C0C0;stroke-width:1;" x1="240" x2="240" y1="6" y2="173.125"/><line style="stroke:#C0C0C0;stroke-width:1;" x1="256" x2="256" y1="6" y2="173.125"/><line style="stroke:#C0C0C0;stroke-width:1;" x1="272" x2="272" y1="6" y2="173.125"/><line style="stroke:#C0C0C0;stroke-width:1;" x1="288" x2="288" y1="6" y2="173.125"/><line style="stroke:#C0C0C0;stroke-width:1;" x1="304" x2="304" y1="6" y2="173.125"/><line style="stroke:#C0C0C0;stroke-width:1;" x1="320" x2="320" y1="6" y2="173.125"/><line style="stroke:#C0C0C0;stroke-width:1;" x1="336" x2="336" y1="6" y2="173.125"/><line style="stroke:#C0C0C0;stroke-width:1;" x1="352" x2="352" y1="6" y2="173.125"/><line style="stroke:#C0C0C0;stroke-width:1;" x1="368" x2="368" y1="6" y2="173.125"/><line style="stroke:#C0C0C0;stroke-width:1;" x1="384" x2="384" y1="6" y2="173.125"/><line style="stroke:#C0C0C0;stroke-width:1;" x1="400" x2="400" y1="6" y2="173.125"/><line style="stroke:#C0C0C0;stroke-width:1;" x1="416" x2="416" y1="6" y2="173.125"/><line style="stroke:#C0C0C0;stroke-width:1;" x1="432" x2="432" y1="6" y2="173.125"/><line style="stroke:#C0C0C0;stroke-width:1;" x1="448" x2="448" y1="6" y2="173.125"/><line style="stroke:#C0C0C0;stroke-width:1;" x1="464" x2="464" y1="6" y2="173.125"/><line style="stroke:#C0C0C0;stroke-width:1;" x1="480" x2="480" y1="6" y2="173.125"/><line style="stroke:#C0C0C0;stroke-width:1;" x1="496" x2="496" y1="6" y2="173.125"/><line style="stroke:#C0C0C0;stroke-width:1;" x1="512" x2="512" y1="6" y2="173.125"/><line style="stroke:#C0C0C0;stroke-width:1;" x1="528" x2="528" y1="6" y2="173.125"/><line style="stroke:#C0C0C0;stroke-width:1;" x1="544" x2="544" y1="6" y2="173.125"/><line style="stroke:#C0C0C0;stroke-width:1;" x1="560" x2="560" y1="6" y2="173.125"/><line style="stroke:#C0C0C0;stroke-width:1;" x1="576" x2="576" y1="6" y2="173.125"/><text fill="#000000" font-family="sans-serif" font-size="10" lengthAdjust="spacing" textLength="6.3623" x="4.8188" y="9.2822">1</text><text fill="#000000" font-family="sans-serif" font-size="10" lengthAdjust="spacing" textLength="6.3623" x="20.8188" y="9.2822">2</text><text fill="#000000" font-family="sans-serif" font-size="10" lengthAdjust="spacing" textLength="6.3623" x="36.8188" y="9.2822">3</text><text fill="#000000" font-family="sans-serif" font-size="10" lengthAdjust="spacing" textLength="6.3623" x="52.8188" y="9.2822">4</text><text fill="#000000" font-family="sans-serif" font-size="10" lengthAdjust="spacing" textLength="6.3623" x="68.8188" y="9.2822">5</text><text fill="#000000" font-family="sans-serif" font-size="10" lengthAdjust="spacing" textLength="6.3623" x="84.8188" y="9.2822">6</text><text fill="#000000" font-family="sans-serif" font-size="10" lengthAdjust="spacing" textLength="6.3623" x="100.8188" y="9.2822">7</text><text fill="#000000" font-family="sans-serif" font-size="10" lengthAdjust="spacing" textLength="6.3623" x="116.8188" y="9.2822">8</text><text fill="#000000" font-family="sans-serif" font-size="10" lengthAdjust="spacing" textLength="6.3623" x="132.8188" y="9.2822">9</text><text fill="#000000" font-family="sans-serif" font-size="10" lengthAdjust="spacing" textLength="12.7246" x="145.6377" y="9.2822">10</text><text fill="#000000" font-family="sans-serif" font-size="10" lengthAdjust="spacing" textLength="12.7246" x="161.6377" y="9.2822">11</text><text fill="#000000" font-family="sans-serif" font-size="10" lengthAdjust="spacing" textLength="12.7246" x="177.6377" y="9.2822">12</text><text fill="#000000" font-family="sans-serif" font-size="10" lengthAdjust="spacing" textLength="12.7246" x="193.6377" y="9.2822">13</text><text fill="#000000" font-family="sans-serif" font-size="10" lengthAdjust="spacing" textLength="12.7246" x="209.6377" y="9.2822">14</text><text fill="#000000" font-family="sans-serif" font-size="10" lengthAdjust="spacing" textLength="12.7246" x="225.6377" y="9.2822">15</text><text fill="#000000" font-family="sans-serif" font-size="10" lengthAdjust="spacing" textLength="12.7246" x="241.6377" y="9.2822">16</text><text fill="#000000" font-family="sans-serif" font-size="10" lengthAdjust="spacing" textLength="12.7246" x="257.6377" y="9.2822">17</text><text fill="#000000" font-family="sans-serif" font-size="10" lengthAdjust="spacing" textLength="12.7246" x="273.6377" y="9.2822">18</text><text fill="#000000" font-family="sans-serif" font-size="10" lengthAdjust="spacing" textLength="12.7246" x="289.6377" y="9.2822">19</text><text fill="#000000" font-family="sans-serif" font-size="10" lengthAdjust="spacing" textLength="12.7246" x="305.6377" y="9.2822">20</text><text fill="#000000" font-family="sans-serif" font-size="10" lengthAdjust="spacing" textLength="12.7246" x="321.6377" y="9.2822">21</text><text fill="#000000" font-family="sans-serif" font-size="10" lengthAdjust="spacing" textLength="12.7246" x="337.6377" y="9.2822">22</text><text fill="#000000" font-family="sans-serif" font-size="10" lengthAdjust="spacing" textLength="12.7246" x="353.6377" y="9.2822">23</text><text fill="#000000" font-family="sans-serif" font-size="10" lengthAdjust="spacing" textLength="12.7246" x="369.6377" y="9.2822">24</text><text fill="#000000" font-family="sans-serif" font-size="10" lengthAdjust="spacing" textLength="12.7246" x="385.6377" y="9.2822">25</text><text fill="#000000" font-family="sans-serif" font-size="10" lengthAdjust="spacing" textLength="12.7246" x="401.6377" y="9.2822">26</text><text fill="#000000" font-family="sans-serif" font-size="10" lengthAdjust="spacing" textLength="12.7246" x="417.6377" y="9.2822">27</text><text fill="#000000" font-family="sans-serif" font-size="10" lengthAdjust="spacing" textLength="12.7246" x="433.6377" y="9.2822">28</text><text fill="#000000" font-family="sans-serif" font-size="10" lengthAdjust="spacing" textLength="12.7246" x="449.6377" y="9.2822">29</text><text fill="#000000" font-family="sans-serif" font-size="10" lengthAdjust="spacing" textLength="12.7246" x="465.6377" y="9.2822">30</text><text fill="#000000" font-family="sans-serif" font-size="10" lengthAdjust="spacing" textLength="12.7246" x="481.6377" y="9.2822">31</text><text fill="#000000" font-family="sans-serif" font-size="10" lengthAdjust="spacing" textLength="12.7246" x="497.6377" y="9.2822">32</text><text fill="#000000" font-family="sans-serif" font-size="10" lengthAdjust="spacing" textLength="12.7246" x="513.6377" y="9.2822">33</text><text fill="#000000" font-family="sans-serif" font-size="10" lengthAdjust="spacing" textLength="12.7246" x="529.6377" y="9.2822">34</text><text fill="#000000" font-family="sans-serif" font-size="10" lengthAdjust="spacing" textLength="12.7246" x="545.6377" y="9.2822">35</text><text fill="#000000" font-family="sans-serif" font-size="10" lengthAdjust="spacing" textLength="12.7246" x="561.6377" y="9.2822">36</text><path d="M24,30.8047 L24,61.6836 L29,61.6836" fill="none" style="stroke:#181818;stroke-width:1.5;"/><polygon fill="#181818" points="28,57.6836,32,61.6836,28,65.6836,28,57.6836" style="stroke:#181818;stroke-width:1;stroke-linejoin:miter;stroke-miterlimit:10;"/><path d="M56,68.0859 L56,98.9648 L61,98.9648" fill="none" style="stroke:#181818;stroke-width:1.5;"/><polygon fill="#181818" points="60,94.9648,64,98.9648,60,102.9648,60,94.9648" style="stroke:#181818;stroke-width:1;stroke-linejoin:miter;stroke-miterlimit:10;"/><path d="M88,105.3672 L88,136.2461 L93,136.2461" fill="none" style="stroke:#181818;stroke-width:1.5;"/><polygon fill="#181818" points="92,132.2461,96,136.2461,92,140.2461,92,132.2461" style="stroke:#181818;stroke-width:1;stroke-linejoin:miter;stroke-miterlimit:10;"/><path d="M0,32.8047 L0,53.2813 L507.7251,53.2813 L507.7251,42.8047 L497.7251,32.8047 L0,32.8047" fill="#FEFFDD" style="stroke:#181818;stroke-width:0.5;"/><path d="M497.7251,32.8047 L497.7251,42.8047 L507.7251,42.8047 L497.7251,32.8047" fill="#FEFFDD" style="stroke:#181818;stroke-width:0.5;"/><text fill="#000000" font-family="sans-serif" font-size="9" lengthAdjust="spacing" textLength="486.7251" x="6" y="46.1587">Synchronizes a given note with a given template, useful if template changes were made after note creation</text><rect fill="#E2E2F0" height="12.8047" style="stroke:none;stroke-width:1;" width="28" x="2" y="18"/><rect fill="none" height="12.8047" style="stroke:#181818;stroke-width:1;" width="28" x="2" y="18"/><path d="M32,70.0859 L32,90.5625 L253.3291,90.5625 L253.3291,80.0859 L243.3291,70.0859 L32,70.0859" fill="#FEFFDD" style="stroke:#181818;stroke-width:0.5;"/><path d="M243.3291,70.0859 L243.3291,80.0859 L253.3291,80.0859 L243.3291,70.0859" fill="#FEFFDD" style="stroke:#181818;stroke-width:0.5;"/><text fill="#000000" font-family="sans-serif" font-size="9" lengthAdjust="spacing" textLength="200.3291" x="38" y="83.4399">Invoke template re-sync from command line</text><rect fill="#E2E2F0" height="12.8047" style="stroke:none;stroke-width:1;" width="28" x="34" y="55.2813"/><rect fill="none" height="12.8047" style="stroke:#181818;stroke-width:1;" width="28" x="34" y="55.2813"/><path d="M64,107.3672 L64,127.8438 L385.2036,127.8438 L385.2036,117.3672 L375.2036,107.3672 L64,107.3672" fill="#FEFFDD" style="stroke:#181818;stroke-width:0.5;"/><path d="M375.2036,107.3672 L375.2036,117.3672 L385.2036,117.3672 L375.2036,107.3672" fill="#FEFFDD" style="stroke:#181818;stroke-width:0.5;"/><text fill="#000000" font-family="sans-serif" font-size="9" lengthAdjust="spacing" textLength="300.2036" x="70" y="120.7212">Invoke backup and export/import functionality from command line</text><rect fill="#E2E2F0" height="12.8047" style="stroke:none;stroke-width:1;" width="28" x="66" y="92.5625"/><rect fill="none" height="12.8047" style="stroke:#181818;stroke-width:1;" width="28" x="66" y="92.5625"/><path d="M96,144.6484 L96,165.125 L425.25,165.125 L425.25,154.6484 L415.25,144.6484 L96,144.6484" fill="#FEFFDD" style="stroke:#181818;stroke-width:0.5;"/><path d="M415.25,144.6484 L415.25,154.6484 L425.25,154.6484 L415.25,144.6484" fill="#FEFFDD" style="stroke:#181818;stroke-width:0.5;"/><text fill="#000000" font-family="sans-serif" font-size="9" lengthAdjust="spacing" textLength="308.25" x="102" y="158.0024">Manage extensions, themes, etc from a local folder or Git repository</text><rect fill="#E2E2F0" height="12.8047" style="stroke:none;stroke-width:1;" width="476" x="98" y="129.8438"/><rect fill="none" height="12.8047" style="stroke:#181818;stroke-width:1;" width="476" x="98" y="129.8438"/><text fill="#000000" font-family="sans-serif" font-size="11" lengthAdjust="spacing" textLength="116.9771" x="34" y="28.2104">Template re-sync API</text><text fill="#000000" font-family="sans-serif" font-size="11" lengthAdjust="spacing" textLength="75.3135" x="66" y="65.4917">Initial CLI tool</text><text fill="#000000" font-family="sans-serif" font-size="11" lengthAdjust="spacing" textLength="126.6128" x="98" y="102.7729">CLI tool enhancements</text><text fill="#000000" font-family="sans-serif" font-size="11" lengthAdjust="spacing" textLength="175.8765" x="102" y="140.0542">CLI tool extension management</text><?plantuml-src ZPBBQiCm44Nt-ehvW2HDKyYof7HH32qKsbq8OIAFRH59OwJ9grzVnOdZc0OQRuJdTO_kQ1O5WvJeHI0mvWxhOVEdL6LoWe9PLhnNQlvDhhOe1866yU0rl7nc2y08Spbdbe6EYGLOZ19X0ZaUelASUbOimav1-hvIIHNOcn-AW52QBNbeYdP6gaka7Jg0JQHYOy4KbnZe2dsPsdSK21mcJYo4mccC3eHYs2loUHD9y9atOj32wti6mcnFuDgQfJbb_e7E_9RNr06q7XI17MXs3fEMDPwkHLin89zuDJdo4ZlbVlGU-HNgzQQ6enRjQmxoODpnW6BZzV7AQ8qSxeNQ2_cOcfA17ik6umgkpLxGdiQtsJwQxcvS781KQLewISuE8LZMoVw2RPxMn07UJ7flL7Cqmk5m3VZdDGsV-vjI_RsrwPwTweR3byBkQahDalBvlJ-E9kF9T3Jz1G00?></g></svg>