<svg xmlns="http://www.w3.org/2000/svg" xmlns:xlink="http://www.w3.org/1999/xlink" contentStyleType="text/css" height="1304px" preserveAspectRatio="none" style="width:1584px;height:1304px;background:#FFFFFF;" version="1.1" viewBox="0 0 1584 1304" width="1584px" zoomAndPan="magnify"><defs/><g><rect fill="#FFFFFF" height="1166.8594" style="stroke:#181818;stroke-width:1.0;" width="10" x="344.3149" y="112.4297"/><rect fill="#FFFFFF" height="1123.7266" style="stroke:#181818;stroke-width:1.0;" width="10" x="539.5474" y="141.5625"/><rect fill="#FFFFFF" height="860.7969" style="stroke:#181818;stroke-width:1.0;" width="10" x="825.3081" y="369.4922"/><rect fill="#FFFFFF" height="571.7344" style="stroke:#181818;stroke-width:1.0;" width="10" x="1012.606" y="422.7578"/><rect fill="#FFFFFF" height="89.2656" style="stroke:#181818;stroke-width:1.0;" width="10" x="1012.606" y="1106.0234"/><rect fill="#FFFFFF" height="136.5313" style="stroke:#181818;stroke-width:1.0;" width="10" x="1249.9741" y="476.0234"/><rect fill="#FFFFFF" height="136.5313" style="stroke:#181818;stroke-width:1.0;" width="10" x="1249.9741" y="656.4922"/><rect fill="#FFFFFF" height="136.5313" style="stroke:#181818;stroke-width:1.0;" width="10" x="1249.9741" y="836.9609"/><rect fill="#FFFFFF" height="43.1328" style="stroke:#181818;stroke-width:1.0;" width="10" x="1249.9741" y="1138.1563"/><rect fill="none" height="969.3281" style="stroke:#000000;stroke-width:1.5;" width="1149.4546" x="428.8281" y="282.9609"/><rect fill="none" height="938.1953" style="stroke:#000000;stroke-width:1.5;" width="1129.4546" x="438.8281" y="307.0938"/><rect fill="none" height="907.0625" style="stroke:#000000;stroke-width:1.5;" width="1109.4546" x="448.8281" y="331.2266"/><rect fill="none" height="618" style="stroke:#000000;stroke-width:1.5;" width="780.314" x="767.9688" y="384.4922"/><rect fill="none" height="543.7344" style="stroke:#000000;stroke-width:1.5;" width="611.1187" x="927.1641" y="437.7578"/><rect fill="none" height="108.5313" style="stroke:#000000;stroke-width:1.5;" width="390.5918" x="1137.6909" y="491.0234"/><rect fill="none" height="108.5313" style="stroke:#000000;stroke-width:1.5;" width="390.5918" x="1137.6909" y="671.4922"/><rect fill="none" height="108.5313" style="stroke:#000000;stroke-width:1.5;" width="390.5918" x="1137.6909" y="851.9609"/><rect fill="none" height="200.7969" style="stroke:#000000;stroke-width:1.5;" width="800.314" x="747.9688" y="1016.4922"/><rect fill="none" height="169.6641" style="stroke:#000000;stroke-width:1.5;" width="780.314" x="757.9688" y="1040.625"/><rect fill="none" height="138.5313" style="stroke:#000000;stroke-width:1.5;" width="760.314" x="767.9688" y="1064.7578"/><line style="stroke:#181818;stroke-width:0.5;stroke-dasharray:5.0,5.0;" x1="23" x2="23" y1="81.2969" y2="1297.2891"/><line style="stroke:#181818;stroke-width:0.5;stroke-dasharray:5.0,5.0;" x1="349.1118" x2="349.1118" y1="81.2969" y2="1297.2891"/><line style="stroke:#181818;stroke-width:0.5;stroke-dasharray:5.0,5.0;" x1="543.8281" x2="543.8281" y1="81.2969" y2="1297.2891"/><line style="stroke:#181818;stroke-width:0.5;stroke-dasharray:5.0,5.0;" x1="829.9688" x2="829.9688" y1="81.2969" y2="1297.2891"/><line style="stroke:#181818;stroke-width:0.5;stroke-dasharray:5.0,5.0;" x1="1017.1641" x2="1017.1641" y1="81.2969" y2="1297.2891"/><line style="stroke:#181818;stroke-width:0.5;stroke-dasharray:5.0,5.0;" x1="1254.6909" x2="1254.6909" y1="81.2969" y2="1297.2891"/><line style="stroke:#181818;stroke-width:0.5;stroke-dasharray:5.0,5.0;" x1="1494.7368" x2="1494.7368" y1="81.2969" y2="1297.2891"/><text fill="#000000" font-family="sans-serif" font-size="14" lengthAdjust="spacing" textLength="30.5361" x="5" y="77.9951">user</text><ellipse cx="23.2681" cy="13.5" fill="#E2E2F0" rx="8" ry="8" style="stroke:#181818;stroke-width:0.5;"/><path d="M23.2681,21.5 L23.2681,48.5 M10.2681,29.5 L36.2681,29.5 M23.2681,48.5 L10.2681,63.5 M23.2681,48.5 L36.2681,63.5 " fill="none" style="stroke:#181818;stroke-width:0.5;"/><rect fill="#E2E2F0" height="30.2969" rx="2.5" ry="2.5" style="stroke:#181818;stroke-width:0.5;" width="128.4063" x="285.1118" y="50"/><text fill="#000000" font-family="sans-serif" font-size="14" lengthAdjust="spacing" textLength="114.4063" x="292.1118" y="69.9951">session: Session</text><rect fill="#E2E2F0" height="30.2969" rx="2.5" ry="2.5" style="stroke:#181818;stroke-width:0.5;" width="171.4385" x="458.8281" y="50"/><text fill="#000000" font-family="sans-serif" font-size="14" lengthAdjust="spacing" textLength="157.4385" x="465.8281" y="69.9951">session._cache: Cache</text><rect fill="#E2E2F0" height="30.2969" rx="2.5" ry="2.5" style="stroke:#181818;stroke-width:0.5;" width="104.6787" x="777.9688" y="50"/><text fill="#000000" font-family="sans-serif" font-size="14" lengthAdjust="spacing" textLength="90.6787" x="784.9688" y="69.9951">entity: Entity</text><rect fill="#E2E2F0" height="30.2969" rx="2.5" ry="2.5" style="stroke:#181818;stroke-width:0.5;" width="160.8838" x="937.1641" y="50"/><text fill="#000000" font-family="sans-serif" font-size="14" lengthAdjust="spacing" textLength="146.8838" x="944.1641" y="69.9951">entity._model: Model</text><rect fill="#E2E2F0" height="30.2969" rx="2.5" ry="2.5" style="stroke:#181818;stroke-width:0.5;" width="214.5664" x="1147.6909" y="50"/><text fill="#000000" font-family="sans-serif" font-size="14" lengthAdjust="spacing" textLength="200.5664" x="1154.6909" y="69.9951">entity._model._driver: Driver</text><text fill="#000000" font-family="sans-serif" font-size="14" lengthAdjust="spacing" textLength="39.5459" x="1472.7368" y="77.9951">ETAPI</text><path d="M1477.5098,29 C1477.5098,19 1495.5098,19 1495.5098,19 C1495.5098,19 1513.5098,19 1513.5098,29 L1513.5098,55 C1513.5098,65 1495.5098,65 1495.5098,65 C1495.5098,65 1477.5098,65 1477.5098,55 L1477.5098,29 " fill="#E2E2F0" style="stroke:#181818;stroke-width:1.5;"/><path d="M1477.5098,29 C1477.5098,39 1495.5098,39 1495.5098,39 C1495.5098,39 1513.5098,39 1513.5098,29 " fill="none" style="stroke:#181818;stroke-width:1.5;"/><rect fill="#FFFFFF" height="1166.8594" style="stroke:#181818;stroke-width:1.0;" width="10" x="344.3149" y="112.4297"/><rect fill="#FFFFFF" height="1123.7266" style="stroke:#181818;stroke-width:1.0;" width="10" x="539.5474" y="141.5625"/><rect fill="#FFFFFF" height="860.7969" style="stroke:#181818;stroke-width:1.0;" width="10" x="825.3081" y="369.4922"/><rect fill="#FFFFFF" height="571.7344" style="stroke:#181818;stroke-width:1.0;" width="10" x="1012.606" y="422.7578"/><rect fill="#FFFFFF" height="89.2656" style="stroke:#181818;stroke-width:1.0;" width="10" x="1012.606" y="1106.0234"/><rect fill="#FFFFFF" height="136.5313" style="stroke:#181818;stroke-width:1.0;" width="10" x="1249.9741" y="476.0234"/><rect fill="#FFFFFF" height="136.5313" style="stroke:#181818;stroke-width:1.0;" width="10" x="1249.9741" y="656.4922"/><rect fill="#FFFFFF" height="136.5313" style="stroke:#181818;stroke-width:1.0;" width="10" x="1249.9741" y="836.9609"/><rect fill="#FFFFFF" height="43.1328" style="stroke:#181818;stroke-width:1.0;" width="10" x="1249.9741" y="1138.1563"/><polygon fill="#181818" points="332.3149,108.4297,342.3149,112.4297,332.3149,116.4297,336.3149,112.4297" style="stroke:#181818;stroke-width:1.0;"/><line style="stroke:#181818;stroke-width:1.0;" x1="23.2681" x2="338.3149" y1="112.4297" y2="112.4297"/><text fill="#000000" font-family="sans-serif" font-size="13" lengthAdjust="spacing" textLength="302.0469" x="30.2681" y="107.3638">session.flush(entities: Iterable[Entity] = None)</text><polygon fill="#181818" points="527.5474,137.5625,537.5474,141.5625,527.5474,145.5625,531.5474,141.5625" style="stroke:#181818;stroke-width:1.0;"/><line style="stroke:#181818;stroke-width:1.0;" x1="354.3149" x2="533.5474" y1="141.5625" y2="141.5625"/><text fill="#000000" font-family="sans-serif" font-size="13" lengthAdjust="spacing" textLength="166.2324" x="361.3149" y="136.4966">self._cache.flush(entities)</text><line style="stroke:#181818;stroke-width:1.0;" x1="549.5474" x2="591.5474" y1="170.6953" y2="170.6953"/><line style="stroke:#181818;stroke-width:1.0;" x1="591.5474" x2="591.5474" y1="170.6953" y2="183.6953"/><line style="stroke:#181818;stroke-width:1.0;" x1="550.5474" x2="591.5474" y1="183.6953" y2="183.6953"/><polygon fill="#181818" points="560.5474,179.6953,550.5474,183.6953,560.5474,187.6953,556.5474,183.6953" style="stroke:#181818;stroke-width:1.0;"/><text fill="#000000" font-family="sans-serif" font-size="13" lengthAdjust="spacing" textLength="105.9551" x="556.5474" y="165.6294">Validate entities</text><line style="stroke:#181818;stroke-width:1.0;" x1="549.5474" x2="591.5474" y1="212.8281" y2="212.8281"/><line style="stroke:#181818;stroke-width:1.0;" x1="591.5474" x2="591.5474" y1="212.8281" y2="225.8281"/><line style="stroke:#181818;stroke-width:1.0;" x1="550.5474" x2="591.5474" y1="225.8281" y2="225.8281"/><polygon fill="#181818" points="560.5474,221.8281,550.5474,225.8281,560.5474,229.8281,556.5474,225.8281" style="stroke:#181818;stroke-width:1.0;"/><text fill="#000000" font-family="sans-serif" font-size="13" lengthAdjust="spacing" textLength="224.3071" x="556.5474" y="207.7622">Collect and validate dependencies</text><line style="stroke:#181818;stroke-width:1.0;" x1="549.5474" x2="591.5474" y1="254.9609" y2="254.9609"/><line style="stroke:#181818;stroke-width:1.0;" x1="591.5474" x2="591.5474" y1="254.9609" y2="267.9609"/><line style="stroke:#181818;stroke-width:1.0;" x1="550.5474" x2="591.5474" y1="267.9609" y2="267.9609"/><polygon fill="#181818" points="560.5474,263.9609,550.5474,267.9609,560.5474,271.9609,556.5474,267.9609" style="stroke:#181818;stroke-width:1.0;"/><text fill="#000000" font-family="sans-serif" font-size="13" lengthAdjust="spacing" textLength="251.7607" x="556.5474" y="249.895">Create and populate topological sorter</text><path d="M428.8281,282.9609 L505.4521,282.9609 L505.4521,290.0938 L495.4521,300.0938 L428.8281,300.0938 L428.8281,282.9609 " fill="#EEEEEE" style="stroke:#000000;stroke-width:1.5;"/><rect fill="none" height="969.3281" style="stroke:#000000;stroke-width:1.5;" width="1149.4546" x="428.8281" y="282.9609"/><text fill="#000000" font-family="sans-serif" font-size="13" font-weight="bold" lengthAdjust="spacing" textLength="31.624" x="443.8281" y="296.0278">loop</text><text fill="#000000" font-family="sans-serif" font-size="11" font-weight="bold" lengthAdjust="spacing" textLength="152.2061" x="520.4521" y="295.1714">[while sorter.is_active()]</text><path d="M438.8281,307.0938 L515.4521,307.0938 L515.4521,314.2266 L505.4521,324.2266 L438.8281,324.2266 L438.8281,307.0938 " fill="#EEEEEE" style="stroke:#000000;stroke-width:1.5;"/><rect fill="none" height="938.1953" style="stroke:#000000;stroke-width:1.5;" width="1129.4546" x="438.8281" y="307.0938"/><text fill="#000000" font-family="sans-serif" font-size="13" font-weight="bold" lengthAdjust="spacing" textLength="31.624" x="453.8281" y="320.1606">loop</text><text fill="#000000" font-family="sans-serif" font-size="11" font-weight="bold" lengthAdjust="spacing" textLength="201.0132" x="530.4521" y="319.3042">[for entity in sorter.get_ready()]</text><path d="M448.8281,331.2266 L513.271,331.2266 L513.271,338.3594 L503.271,348.3594 L448.8281,348.3594 L448.8281,331.2266 " fill="#EEEEEE" style="stroke:#000000;stroke-width:1.5;"/><rect fill="none" height="907.0625" style="stroke:#000000;stroke-width:1.5;" width="1109.4546" x="448.8281" y="331.2266"/><text fill="#000000" font-family="sans-serif" font-size="13" font-weight="bold" lengthAdjust="spacing" textLength="19.4429" x="463.8281" y="344.2935">alt</text><text fill="#000000" font-family="sans-serif" font-size="11" font-weight="bold" lengthAdjust="spacing" textLength="203.1992" x="528.271" y="343.437">[entity.state is not State.CLEAN]</text><polygon fill="#181818" points="813.3081,365.4922,823.3081,369.4922,813.3081,373.4922,817.3081,369.4922" style="stroke:#181818;stroke-width:1.0;"/><line style="stroke:#181818;stroke-width:1.0;" x1="549.5474" x2="819.3081" y1="369.4922" y2="369.4922"/><text fill="#000000" font-family="sans-serif" font-size="13" lengthAdjust="spacing" textLength="128.4639" x="556.5474" y="364.4263">entity._flush(sorter)</text><path d="M767.9688,384.4922 L832.4116,384.4922 L832.4116,391.625 L822.4116,401.625 L767.9688,401.625 L767.9688,384.4922 " fill="#EEEEEE" style="stroke:#000000;stroke-width:1.5;"/><rect fill="none" height="618" style="stroke:#000000;stroke-width:1.5;" width="780.314" x="767.9688" y="384.4922"/><text fill="#000000" font-family="sans-serif" font-size="13" font-weight="bold" lengthAdjust="spacing" textLength="19.4429" x="782.9688" y="397.5591">alt</text><text fill="#000000" font-family="sans-serif" font-size="11" font-weight="bold" lengthAdjust="spacing" textLength="118.4541" x="847.4116" y="396.7026">[Model is changed]</text><polygon fill="#181818" points="1000.606,418.7578,1010.606,422.7578,1000.606,426.7578,1004.606,422.7578" style="stroke:#181818;stroke-width:1.0;"/><line style="stroke:#181818;stroke-width:1.0;" x1="835.3081" x2="1006.606" y1="422.7578" y2="422.7578"/><text fill="#000000" font-family="sans-serif" font-size="13" lengthAdjust="spacing" textLength="158.2979" x="842.3081" y="417.6919">self._model.flush(sorter)</text><path d="M927.1641,437.7578 L991.6069,437.7578 L991.6069,444.8906 L981.6069,454.8906 L927.1641,454.8906 L927.1641,437.7578 " fill="#EEEEEE" style="stroke:#000000;stroke-width:1.5;"/><rect fill="none" height="543.7344" style="stroke:#000000;stroke-width:1.5;" width="611.1187" x="927.1641" y="437.7578"/><text fill="#000000" font-family="sans-serif" font-size="13" font-weight="bold" lengthAdjust="spacing" textLength="19.4429" x="942.1641" y="450.8247">alt</text><text fill="#000000" font-family="sans-serif" font-size="11" font-weight="bold" lengthAdjust="spacing" textLength="185.9956" x="1006.6069" y="449.9683">[entity.state is State.CREATE]</text><polygon fill="#181818" points="1237.9741,472.0234,1247.9741,476.0234,1237.9741,480.0234,1241.9741,476.0234" style="stroke:#181818;stroke-width:1.0;"/><line style="stroke:#181818;stroke-width:1.0;" x1="1022.606" x2="1243.9741" y1="476.0234" y2="476.0234"/><text fill="#000000" font-family="sans-serif" font-size="13" lengthAdjust="spacing" textLength="204.1152" x="1029.606" y="470.9575">self._driver.flush_create(sorter)</text><path d="M1137.6909,491.0234 L1202.1338,491.0234 L1202.1338,498.1563 L1192.1338,508.1563 L1137.6909,508.1563 L1137.6909,491.0234 " fill="#EEEEEE" style="stroke:#000000;stroke-width:1.5;"/><rect fill="none" height="108.5313" style="stroke:#000000;stroke-width:1.5;" width="390.5918" x="1137.6909" y="491.0234"/><text fill="#000000" font-family="sans-serif" font-size="13" font-weight="bold" lengthAdjust="spacing" textLength="19.4429" x="1152.6909" y="504.0903">alt</text><polygon fill="#181818" points="1483.5098,525.2891,1493.5098,529.2891,1483.5098,533.2891,1487.5098,529.2891" style="stroke:#181818;stroke-width:1.0;"/><line style="stroke:#181818;stroke-width:1.0;" x1="1259.9741" x2="1489.5098" y1="529.2891" y2="529.2891"/><text fill="#000000" font-family="sans-serif" font-size="13" lengthAdjust="spacing" textLength="118.3076" x="1266.9741" y="524.2231">POST /create-note</text><line style="stroke:#000000;stroke-width:1.0;stroke-dasharray:2.0,2.0;" x1="1137.6909" x2="1528.2827" y1="538.2891" y2="538.2891"/><polygon fill="#181818" points="1483.5098,556.4219,1493.5098,560.4219,1483.5098,564.4219,1487.5098,560.4219" style="stroke:#181818;stroke-width:1.0;"/><line style="stroke:#181818;stroke-width:1.0;" x1="1259.9741" x2="1489.5098" y1="560.4219" y2="560.4219"/><text fill="#000000" font-family="sans-serif" font-size="13" lengthAdjust="spacing" textLength="106.2534" x="1266.9741" y="555.356">POST /attributes</text><line style="stroke:#000000;stroke-width:1.0;stroke-dasharray:2.0,2.0;" x1="1137.6909" x2="1528.2827" y1="569.4219" y2="569.4219"/><polygon fill="#181818" points="1483.5098,587.5547,1493.5098,591.5547,1483.5098,595.5547,1487.5098,591.5547" style="stroke:#181818;stroke-width:1.0;"/><line style="stroke:#181818;stroke-width:1.0;" x1="1259.9741" x2="1489.5098" y1="591.5547" y2="591.5547"/><text fill="#000000" font-family="sans-serif" font-size="13" lengthAdjust="spacing" textLength="102.7368" x="1266.9741" y="586.4888">POST /branches</text><polygon fill="#181818" points="1033.606,608.5547,1023.606,612.5547,1033.606,616.5547,1029.606,612.5547" style="stroke:#181818;stroke-width:1.0;"/><line style="stroke:#181818;stroke-width:1.0;stroke-dasharray:2.0,2.0;" x1="1027.606" x2="1253.9741" y1="612.5547" y2="612.5547"/><line style="stroke:#000000;stroke-width:1.0;stroke-dasharray:2.0,2.0;" x1="927.1641" x2="1538.2827" y1="621.5547" y2="621.5547"/><text fill="#000000" font-family="sans-serif" font-size="11" font-weight="bold" lengthAdjust="spacing" textLength="188.0635" x="932.1641" y="631.7651">[entity.state is State.UPDATE]</text><polygon fill="#181818" points="1237.9741,652.4922,1247.9741,656.4922,1237.9741,660.4922,1241.9741,656.4922" style="stroke:#181818;stroke-width:1.0;"/><line style="stroke:#181818;stroke-width:1.0;" x1="1022.606" x2="1243.9741" y1="656.4922" y2="656.4922"/><text fill="#000000" font-family="sans-serif" font-size="13" lengthAdjust="spacing" textLength="208.3682" x="1029.606" y="651.4263">self._driver.flush_update(sorter)</text><path d="M1137.6909,671.4922 L1202.1338,671.4922 L1202.1338,678.625 L1192.1338,688.625 L1137.6909,688.625 L1137.6909,671.4922 " fill="#EEEEEE" style="stroke:#000000;stroke-width:1.5;"/><rect fill="none" height="108.5313" style="stroke:#000000;stroke-width:1.5;" width="390.5918" x="1137.6909" y="671.4922"/><text fill="#000000" font-family="sans-serif" font-size="13" font-weight="bold" lengthAdjust="spacing" textLength="19.4429" x="1152.6909" y="684.5591">alt</text><polygon fill="#181818" points="1483.5098,705.7578,1493.5098,709.7578,1483.5098,713.7578,1487.5098,709.7578" style="stroke:#181818;stroke-width:1.0;"/><line style="stroke:#181818;stroke-width:1.0;" x1="1259.9741" x2="1489.5098" y1="709.7578" y2="709.7578"/><text fill="#000000" font-family="sans-serif" font-size="13" lengthAdjust="spacing" textLength="150.395" x="1266.9741" y="704.6919">PATCH /notes/{noteId}</text><line style="stroke:#000000;stroke-width:1.0;stroke-dasharray:2.0,2.0;" x1="1137.6909" x2="1528.2827" y1="718.7578" y2="718.7578"/><polygon fill="#181818" points="1483.5098,736.8906,1493.5098,740.8906,1483.5098,744.8906,1487.5098,740.8906" style="stroke:#181818;stroke-width:1.0;"/><line style="stroke:#181818;stroke-width:1.0;" x1="1259.9741" x2="1489.5098" y1="740.8906" y2="740.8906"/><text fill="#000000" font-family="sans-serif" font-size="13" lengthAdjust="spacing" textLength="205.2261" x="1266.9741" y="735.8247">PATCH /attributes/{attributeId}</text><line style="stroke:#000000;stroke-width:1.0;stroke-dasharray:2.0,2.0;" x1="1137.6909" x2="1528.2827" y1="749.8906" y2="749.8906"/><polygon fill="#181818" points="1483.5098,768.0234,1493.5098,772.0234,1483.5098,776.0234,1487.5098,772.0234" style="stroke:#181818;stroke-width:1.0;"/><line style="stroke:#181818;stroke-width:1.0;" x1="1259.9741" x2="1489.5098" y1="772.0234" y2="772.0234"/><text fill="#000000" font-family="sans-serif" font-size="13" lengthAdjust="spacing" textLength="190.1948" x="1266.9741" y="766.9575">PATCH /branches/{branchId}</text><polygon fill="#181818" points="1033.606,789.0234,1023.606,793.0234,1033.606,797.0234,1029.606,793.0234" style="stroke:#181818;stroke-width:1.0;"/><line style="stroke:#181818;stroke-width:1.0;stroke-dasharray:2.0,2.0;" x1="1027.606" x2="1253.9741" y1="793.0234" y2="793.0234"/><line style="stroke:#000000;stroke-width:1.0;stroke-dasharray:2.0,2.0;" x1="927.1641" x2="1538.2827" y1="802.0234" y2="802.0234"/><text fill="#000000" font-family="sans-serif" font-size="11" font-weight="bold" lengthAdjust="spacing" textLength="184.5938" x="932.1641" y="812.2339">[entity.state is State.DELETE]</text><polygon fill="#181818" points="1237.9741,832.9609,1247.9741,836.9609,1237.9741,840.9609,1241.9741,836.9609" style="stroke:#181818;stroke-width:1.0;"/><line style="stroke:#181818;stroke-width:1.0;" x1="1022.606" x2="1243.9741" y1="836.9609" y2="836.9609"/><text fill="#000000" font-family="sans-serif" font-size="13" lengthAdjust="spacing" textLength="203.5186" x="1029.606" y="831.895">self._driver.flush_delete(sorter)</text><path d="M1137.6909,851.9609 L1202.1338,851.9609 L1202.1338,859.0938 L1192.1338,869.0938 L1137.6909,869.0938 L1137.6909,851.9609 " fill="#EEEEEE" style="stroke:#000000;stroke-width:1.5;"/><rect fill="none" height="108.5313" style="stroke:#000000;stroke-width:1.5;" width="390.5918" x="1137.6909" y="851.9609"/><text fill="#000000" font-family="sans-serif" font-size="13" font-weight="bold" lengthAdjust="spacing" textLength="19.4429" x="1152.6909" y="865.0278">alt</text><polygon fill="#181818" points="1483.5098,886.2266,1493.5098,890.2266,1483.5098,894.2266,1487.5098,890.2266" style="stroke:#181818;stroke-width:1.0;"/><line style="stroke:#181818;stroke-width:1.0;" x1="1259.9741" x2="1489.5098" y1="890.2266" y2="890.2266"/><text fill="#000000" font-family="sans-serif" font-size="13" lengthAdjust="spacing" textLength="156.7046" x="1266.9741" y="885.1606">DELETE /notes/{noteId}</text><line style="stroke:#000000;stroke-width:1.0;stroke-dasharray:2.0,2.0;" x1="1137.6909" x2="1528.2827" y1="899.2266" y2="899.2266"/><polygon fill="#181818" points="1483.5098,917.3594,1493.5098,921.3594,1483.5098,925.3594,1487.5098,921.3594" style="stroke:#181818;stroke-width:1.0;"/><line style="stroke:#181818;stroke-width:1.0;" x1="1259.9741" x2="1489.5098" y1="921.3594" y2="921.3594"/><text fill="#000000" font-family="sans-serif" font-size="13" lengthAdjust="spacing" textLength="211.5356" x="1266.9741" y="916.2935">DELETE /attributes/{attributeId}</text><line style="stroke:#000000;stroke-width:1.0;stroke-dasharray:2.0,2.0;" x1="1137.6909" x2="1528.2827" y1="930.3594" y2="930.3594"/><polygon fill="#181818" points="1483.5098,948.4922,1493.5098,952.4922,1483.5098,956.4922,1487.5098,952.4922" style="stroke:#181818;stroke-width:1.0;"/><line style="stroke:#181818;stroke-width:1.0;" x1="1259.9741" x2="1489.5098" y1="952.4922" y2="952.4922"/><text fill="#000000" font-family="sans-serif" font-size="13" lengthAdjust="spacing" textLength="196.5044" x="1266.9741" y="947.4263">DELETE /branches/{branchId}</text><polygon fill="#181818" points="1033.606,969.4922,1023.606,973.4922,1033.606,977.4922,1029.606,973.4922" style="stroke:#181818;stroke-width:1.0;"/><line style="stroke:#181818;stroke-width:1.0;stroke-dasharray:2.0,2.0;" x1="1027.606" x2="1253.9741" y1="973.4922" y2="973.4922"/><polygon fill="#181818" points="846.3081,990.4922,836.3081,994.4922,846.3081,998.4922,842.3081,994.4922" style="stroke:#181818;stroke-width:1.0;"/><line style="stroke:#181818;stroke-width:1.0;stroke-dasharray:2.0,2.0;" x1="840.3081" x2="1016.606" y1="994.4922" y2="994.4922"/><path d="M747.9688,1016.4922 L812.4116,1016.4922 L812.4116,1023.625 L802.4116,1033.625 L747.9688,1033.625 L747.9688,1016.4922 " fill="#EEEEEE" style="stroke:#000000;stroke-width:1.5;"/><rect fill="none" height="200.7969" style="stroke:#000000;stroke-width:1.5;" width="800.314" x="747.9688" y="1016.4922"/><text fill="#000000" font-family="sans-serif" font-size="13" font-weight="bold" lengthAdjust="spacing" textLength="19.4429" x="762.9688" y="1029.5591">alt</text><text fill="#000000" font-family="sans-serif" font-size="11" font-weight="bold" lengthAdjust="spacing" textLength="209.0698" x="827.4116" y="1028.7026">[entity.state is not State.DELETE]</text><path d="M757.9688,1040.625 L834.5928,1040.625 L834.5928,1047.7578 L824.5928,1057.7578 L757.9688,1057.7578 L757.9688,1040.625 " fill="#EEEEEE" style="stroke:#000000;stroke-width:1.5;"/><rect fill="none" height="169.6641" style="stroke:#000000;stroke-width:1.5;" width="780.314" x="757.9688" y="1040.625"/><text fill="#000000" font-family="sans-serif" font-size="13" font-weight="bold" lengthAdjust="spacing" textLength="31.624" x="772.9688" y="1053.6919">loop</text><text fill="#000000" font-family="sans-serif" font-size="11" font-weight="bold" lengthAdjust="spacing" textLength="232.3159" x="849.5928" y="1052.8354">[for ext in entity._model._extensions]</text><path d="M767.9688,1064.7578 L832.4116,1064.7578 L832.4116,1071.8906 L822.4116,1081.8906 L767.9688,1081.8906 L767.9688,1064.7578 " fill="#EEEEEE" style="stroke:#000000;stroke-width:1.5;"/><rect fill="none" height="138.5313" style="stroke:#000000;stroke-width:1.5;" width="760.314" x="767.9688" y="1064.7578"/><text fill="#000000" font-family="sans-serif" font-size="13" font-weight="bold" lengthAdjust="spacing" textLength="19.4429" x="782.9688" y="1077.8247">alt</text><text fill="#000000" font-family="sans-serif" font-size="11" font-weight="bold" lengthAdjust="spacing" textLength="108.1792" x="847.4116" y="1076.9683">[ext._is_changed]</text><polygon fill="#181818" points="1000.606,1102.0234,1010.606,1106.0234,1000.606,1110.0234,1004.606,1106.0234" style="stroke:#181818;stroke-width:1.0;"/><line style="stroke:#181818;stroke-width:1.0;" x1="835.3081" x2="1006.606" y1="1106.0234" y2="1106.0234"/><text fill="#000000" font-family="sans-serif" font-size="13" lengthAdjust="spacing" textLength="73.0044" x="842.3081" y="1100.9575">ext._flush()</text><path d="M1027,1086.8906 L1027,1111.8906 L1507,1111.8906 L1507,1096.8906 L1497,1086.8906 L1027,1086.8906 " fill="#FEFFDD" style="stroke:#181818;stroke-width:0.5;"/><path d="M1497,1086.8906 L1497,1096.8906 L1507,1096.8906 L1497,1086.8906 " fill="#FEFFDD" style="stroke:#181818;stroke-width:0.5;"/><text fill="#000000" font-family="sans-serif" font-size="13" lengthAdjust="spacing" textLength="459.6592" x="1033" y="1103.9575">Note content implemented as model extension and flushed separately</text><polygon fill="#181818" points="1237.9741,1134.1563,1247.9741,1138.1563,1237.9741,1142.1563,1241.9741,1138.1563" style="stroke:#181818;stroke-width:1.0;"/><line style="stroke:#181818;stroke-width:1.0;" x1="1022.606" x2="1243.9741" y1="1138.1563" y2="1138.1563"/><text fill="#000000" font-family="sans-serif" font-size="13" lengthAdjust="spacing" textLength="115.3813" x="1029.606" y="1133.0903">ext._driver.flush()</text><polygon fill="#181818" points="1483.5098,1163.2891,1493.5098,1167.2891,1483.5098,1171.2891,1487.5098,1167.2891" style="stroke:#181818;stroke-width:1.0;"/><line style="stroke:#181818;stroke-width:1.0;" x1="1259.9741" x2="1489.5098" y1="1167.2891" y2="1167.2891"/><text fill="#000000" font-family="sans-serif" font-size="13" lengthAdjust="spacing" textLength="186.3164" x="1266.9741" y="1162.2231">PUT /notes/{noteId}/content</text><polygon fill="#181818" points="1033.606,1177.2891,1023.606,1181.2891,1033.606,1185.2891,1029.606,1181.2891" style="stroke:#181818;stroke-width:1.0;"/><line style="stroke:#181818;stroke-width:1.0;stroke-dasharray:2.0,2.0;" x1="1027.606" x2="1253.9741" y1="1181.2891" y2="1181.2891"/><polygon fill="#181818" points="846.3081,1191.2891,836.3081,1195.2891,846.3081,1199.2891,842.3081,1195.2891" style="stroke:#181818;stroke-width:1.0;"/><line style="stroke:#181818;stroke-width:1.0;stroke-dasharray:2.0,2.0;" x1="840.3081" x2="1016.606" y1="1195.2891" y2="1195.2891"/><polygon fill="#181818" points="560.5474,1226.2891,550.5474,1230.2891,560.5474,1234.2891,556.5474,1230.2891" style="stroke:#181818;stroke-width:1.0;"/><line style="stroke:#181818;stroke-width:1.0;stroke-dasharray:2.0,2.0;" x1="554.5474" x2="829.3081" y1="1230.2891" y2="1230.2891"/><polygon fill="#181818" points="365.3149,1261.2891,355.3149,1265.2891,365.3149,1269.2891,361.3149,1265.2891" style="stroke:#181818;stroke-width:1.0;"/><line style="stroke:#181818;stroke-width:1.0;stroke-dasharray:2.0,2.0;" x1="359.3149" x2="543.5474" y1="1265.2891" y2="1265.2891"/><polygon fill="#181818" points="34.2681,1275.2891,24.2681,1279.2891,34.2681,1283.2891,30.2681,1279.2891" style="stroke:#181818;stroke-width:1.0;"/><line style="stroke:#181818;stroke-width:1.0;stroke-dasharray:2.0,2.0;" x1="28.2681" x2="348.3149" y1="1279.2891" y2="1279.2891"/><!--SRC=[nLPDQnin4BthLmmvnGIlxmir66UXWJGrjTDBAOky6ji2HLeaEKq8_U_LrpgEO- -QDdO5PhIZ9xqPwScZ5MS82wNiN3qHGYkhDAmDQg0cM59JRNd5QoejN1WqXYkPmpHsBZmiEVSYixAYrGfp67iJuC7n5epISlkSGn5iG4NNFbXMFYY68eSltWHmSBHWiv9f_eWwX-jWmwJe8enQEgS6uQAOZIOtaTpIcXFYy-yFKoPmTPKtgMOBiJQhoy31qUHmOr7JkS0VCOEVy0dkbCGUIHFwmv1rMaCiqhRihDCZ9BWJEeVlL70N7qA3s1aVAo6mia0bWyS6ox16oL1MU_0QFSB3QrMlXV-mgbP2BNb51HYbNIA42ALg-BNY0fChuwPqsd0RTjaZu5f0B9nMuZu3bmroYRPqDEmv8NsZmYPWPgmdvGQaiZ3r7zdujXZTRR2-fQZJsdxJckEC6nQfUc_cD3n15PwWMb6vHFOEv5jShZyCwjWwbQYMTfAsf592tuhHh3WuqRT0r1z63Mu541qnWh8AnzKPo5P0dHZV8eVRNg_o72PVfpCOHAw-EnNiN0I5mRzdejPgFbzRfyxJ4iqrbKv7Hz18rehHQDTQahOe3oZXVdBz8KfOr-mSIXZDnfzXu3LW1Y_UtB3VfpkaoFOgXy7Bfdy6taOTWvVOEuhoP4AvBcwBZn2AW-3fXHAZFPjI6hgpIwKX_XzQEJ3zmBHzyFQgswAur-B-P7rbttbBEIzA_wenxRNnoMQbUpUqrU73zJZCZeMuMyPUWA3vScLpz-vo_Kf95wCB_g4M-E1wo3RlHDZ47nv2WSCD6tJlHxSnuhcJxlrD3D5kNyGZWjxtrtG_sxrKWvHAvt8TUle7oUtpx_fsbcw6lVK_aiQJ-GC0]--></g></svg>