<svg xmlns="http://www.w3.org/2000/svg" xmlns:xlink="http://www.w3.org/1999/xlink" contentStyleType="text/css" height="1304px" preserveAspectRatio="none" style="width:1609px;height:1304px;background:#FFFFFF;" version="1.1" viewBox="0 0 1609 1304" width="1609px" zoomAndPan="magnify"><defs/><g><rect fill="#FFFFFF" height="1166.8594" style="stroke:#181818;stroke-width:1.0;" width="10" x="344.3149" y="112.4297"/><rect fill="#FFFFFF" height="1123.7266" style="stroke:#181818;stroke-width:1.0;" width="10" x="539.5474" y="141.5625"/><rect fill="#FFFFFF" height="860.7969" style="stroke:#181818;stroke-width:1.0;" width="10" x="825.3081" y="369.4922"/><rect fill="#FFFFFF" height="571.7344" style="stroke:#181818;stroke-width:1.0;" width="10" x="1022.6162" y="422.7578"/><rect fill="#FFFFFF" height="89.2656" style="stroke:#181818;stroke-width:1.0;" width="10" x="1022.6162" y="1106.0234"/><rect fill="#FFFFFF" height="136.5313" style="stroke:#181818;stroke-width:1.0;" width="10" x="1274.8682" y="476.0234"/><rect fill="#FFFFFF" height="136.5313" style="stroke:#181818;stroke-width:1.0;" width="10" x="1274.8682" y="656.4922"/><rect fill="#FFFFFF" height="136.5313" style="stroke:#181818;stroke-width:1.0;" width="10" x="1274.8682" y="836.9609"/><rect fill="#FFFFFF" height="43.1328" style="stroke:#181818;stroke-width:1.0;" width="10" x="1274.8682" y="1138.1563"/><rect fill="none" height="969.3281" style="stroke:#000000;stroke-width:1.5;" width="1174.3486" x="428.8281" y="282.9609"/><rect fill="none" height="938.1953" style="stroke:#000000;stroke-width:1.5;" width="1154.3486" x="438.8281" y="307.0938"/><rect fill="none" height="907.0625" style="stroke:#000000;stroke-width:1.5;" width="1134.3486" x="448.8281" y="331.2266"/><rect fill="none" height="618" style="stroke:#000000;stroke-width:1.5;" width="822.2534" x="750.9233" y="384.4922"/><rect fill="none" height="543.7344" style="stroke:#000000;stroke-width:1.5;" width="663.4839" x="899.6929" y="437.7578"/><rect fill="none" height="108.5313" style="stroke:#000000;stroke-width:1.5;" width="407.6372" x="1145.5396" y="491.0234"/><rect fill="none" height="108.5313" style="stroke:#000000;stroke-width:1.5;" width="407.6372" x="1145.5396" y="671.4922"/><rect fill="none" height="108.5313" style="stroke:#000000;stroke-width:1.5;" width="407.6372" x="1145.5396" y="851.9609"/><rect fill="none" height="200.7969" style="stroke:#000000;stroke-width:1.5;" width="842.2534" x="730.9233" y="1016.4922"/><rect fill="none" height="169.6641" style="stroke:#000000;stroke-width:1.5;" width="822.2534" x="740.9233" y="1040.625"/><rect fill="none" height="138.5313" style="stroke:#000000;stroke-width:1.5;" width="802.2534" x="750.9233" y="1064.7578"/><line style="stroke:#181818;stroke-width:0.5;stroke-dasharray:5.0,5.0;" x1="23" x2="23" y1="81.2969" y2="1297.2891"/><line style="stroke:#181818;stroke-width:0.5;stroke-dasharray:5.0,5.0;" x1="349.1118" x2="349.1118" y1="81.2969" y2="1297.2891"/><line style="stroke:#181818;stroke-width:0.5;stroke-dasharray:5.0,5.0;" x1="543.8281" x2="543.8281" y1="81.2969" y2="1297.2891"/><line style="stroke:#181818;stroke-width:0.5;stroke-dasharray:5.0,5.0;" x1="829.9233" x2="829.9233" y1="81.2969" y2="1297.2891"/><line style="stroke:#181818;stroke-width:0.5;stroke-dasharray:5.0,5.0;" x1="1026.6929" x2="1026.6929" y1="81.2969" y2="1297.2891"/><line style="stroke:#181818;stroke-width:0.5;stroke-dasharray:5.0,5.0;" x1="1279.5396" x2="1279.5396" y1="81.2969" y2="1297.2891"/><line style="stroke:#181818;stroke-width:0.5;stroke-dasharray:5.0,5.0;" x1="1519.6309" x2="1519.6309" y1="81.2969" y2="1297.2891"/><text fill="#000000" font-family="sans-serif" font-size="14" lengthAdjust="spacing" textLength="30.5361" x="5" y="77.9951">user</text><ellipse cx="23.2681" cy="13.5" fill="#E2E2F0" rx="8" ry="8" style="stroke:#181818;stroke-width:0.5;"/><path d="M23.2681,21.5 L23.2681,48.5 M10.2681,29.5 L36.2681,29.5 M23.2681,48.5 L10.2681,63.5 M23.2681,48.5 L36.2681,63.5 " fill="none" style="stroke:#181818;stroke-width:0.5;"/><rect fill="#E2E2F0" height="30.2969" rx="2.5" ry="2.5" style="stroke:#181818;stroke-width:0.5;" width="128.4063" x="285.1118" y="50"/><text fill="#000000" font-family="sans-serif" font-size="14" lengthAdjust="spacing" textLength="114.4063" x="292.1118" y="69.9951">session: Session</text><rect fill="#E2E2F0" height="30.2969" rx="2.5" ry="2.5" style="stroke:#181818;stroke-width:0.5;" width="171.4385" x="458.8281" y="50"/><text fill="#000000" font-family="sans-serif" font-size="14" lengthAdjust="spacing" textLength="157.4385" x="465.8281" y="69.9951">session._cache: Cache</text><rect fill="#E2E2F0" height="30.2969" rx="2.5" ry="2.5" style="stroke:#181818;stroke-width:0.5;" width="138.7695" x="760.9233" y="50"/><text fill="#000000" font-family="sans-serif" font-size="14" lengthAdjust="spacing" textLength="124.7695" x="767.9233" y="69.9951">entity: BaseEntity</text><rect fill="#E2E2F0" height="30.2969" rx="2.5" ry="2.5" style="stroke:#181818;stroke-width:0.5;" width="235.8467" x="909.6929" y="50"/><text fill="#000000" font-family="sans-serif" font-size="14" lengthAdjust="spacing" textLength="221.8467" x="916.6929" y="69.9951">entity._model: BaseEntityModel</text><rect fill="#E2E2F0" height="30.2969" rx="2.5" ry="2.5" style="stroke:#181818;stroke-width:0.5;" width="248.6572" x="1155.5396" y="50"/><text fill="#000000" font-family="sans-serif" font-size="14" lengthAdjust="spacing" textLength="234.6572" x="1162.5396" y="69.9951">entity._model._driver: BaseDriver</text><text fill="#000000" font-family="sans-serif" font-size="14" lengthAdjust="spacing" textLength="39.5459" x="1497.6309" y="77.9951">ETAPI</text><path d="M1502.4038,29 C1502.4038,19 1520.4038,19 1520.4038,19 C1520.4038,19 1538.4038,19 1538.4038,29 L1538.4038,55 C1538.4038,65 1520.4038,65 1520.4038,65 C1520.4038,65 1502.4038,65 1502.4038,55 L1502.4038,29 " fill="#E2E2F0" style="stroke:#181818;stroke-width:1.5;"/><path d="M1502.4038,29 C1502.4038,39 1520.4038,39 1520.4038,39 C1520.4038,39 1538.4038,39 1538.4038,29 " fill="none" style="stroke:#181818;stroke-width:1.5;"/><rect fill="#FFFFFF" height="1166.8594" style="stroke:#181818;stroke-width:1.0;" width="10" x="344.3149" y="112.4297"/><rect fill="#FFFFFF" height="1123.7266" style="stroke:#181818;stroke-width:1.0;" width="10" x="539.5474" y="141.5625"/><rect fill="#FFFFFF" height="860.7969" style="stroke:#181818;stroke-width:1.0;" width="10" x="825.3081" y="369.4922"/><rect fill="#FFFFFF" height="571.7344" style="stroke:#181818;stroke-width:1.0;" width="10" x="1022.6162" y="422.7578"/><rect fill="#FFFFFF" height="89.2656" style="stroke:#181818;stroke-width:1.0;" width="10" x="1022.6162" y="1106.0234"/><rect fill="#FFFFFF" height="136.5313" style="stroke:#181818;stroke-width:1.0;" width="10" x="1274.8682" y="476.0234"/><rect fill="#FFFFFF" height="136.5313" style="stroke:#181818;stroke-width:1.0;" width="10" x="1274.8682" y="656.4922"/><rect fill="#FFFFFF" height="136.5313" style="stroke:#181818;stroke-width:1.0;" width="10" x="1274.8682" y="836.9609"/><rect fill="#FFFFFF" height="43.1328" style="stroke:#181818;stroke-width:1.0;" width="10" x="1274.8682" y="1138.1563"/><polygon fill="#181818" points="332.3149,108.4297,342.3149,112.4297,332.3149,116.4297,336.3149,112.4297" style="stroke:#181818;stroke-width:1.0;"/><line style="stroke:#181818;stroke-width:1.0;" x1="23.2681" x2="338.3149" y1="112.4297" y2="112.4297"/><text fill="#000000" font-family="sans-serif" font-size="13" lengthAdjust="spacing" textLength="302.0469" x="30.2681" y="107.3638">session.flush(entities: Iterable[Entity] = None)</text><polygon fill="#181818" points="527.5474,137.5625,537.5474,141.5625,527.5474,145.5625,531.5474,141.5625" style="stroke:#181818;stroke-width:1.0;"/><line style="stroke:#181818;stroke-width:1.0;" x1="354.3149" x2="533.5474" y1="141.5625" y2="141.5625"/><text fill="#000000" font-family="sans-serif" font-size="13" lengthAdjust="spacing" textLength="166.2324" x="361.3149" y="136.4966">self._cache.flush(entities)</text><line style="stroke:#181818;stroke-width:1.0;" x1="549.5474" x2="591.5474" y1="170.6953" y2="170.6953"/><line style="stroke:#181818;stroke-width:1.0;" x1="591.5474" x2="591.5474" y1="170.6953" y2="183.6953"/><line style="stroke:#181818;stroke-width:1.0;" x1="550.5474" x2="591.5474" y1="183.6953" y2="183.6953"/><polygon fill="#181818" points="560.5474,179.6953,550.5474,183.6953,560.5474,187.6953,556.5474,183.6953" style="stroke:#181818;stroke-width:1.0;"/><text fill="#000000" font-family="sans-serif" font-size="13" lengthAdjust="spacing" textLength="105.9551" x="556.5474" y="165.6294">Validate entities</text><line style="stroke:#181818;stroke-width:1.0;" x1="549.5474" x2="591.5474" y1="212.8281" y2="212.8281"/><line style="stroke:#181818;stroke-width:1.0;" x1="591.5474" x2="591.5474" y1="212.8281" y2="225.8281"/><line style="stroke:#181818;stroke-width:1.0;" x1="550.5474" x2="591.5474" y1="225.8281" y2="225.8281"/><polygon fill="#181818" points="560.5474,221.8281,550.5474,225.8281,560.5474,229.8281,556.5474,225.8281" style="stroke:#181818;stroke-width:1.0;"/><text fill="#000000" font-family="sans-serif" font-size="13" lengthAdjust="spacing" textLength="224.3071" x="556.5474" y="207.7622">Collect and validate dependencies</text><line style="stroke:#181818;stroke-width:1.0;" x1="549.5474" x2="591.5474" y1="254.9609" y2="254.9609"/><line style="stroke:#181818;stroke-width:1.0;" x1="591.5474" x2="591.5474" y1="254.9609" y2="267.9609"/><line style="stroke:#181818;stroke-width:1.0;" x1="550.5474" x2="591.5474" y1="267.9609" y2="267.9609"/><polygon fill="#181818" points="560.5474,263.9609,550.5474,267.9609,560.5474,271.9609,556.5474,267.9609" style="stroke:#181818;stroke-width:1.0;"/><text fill="#000000" font-family="sans-serif" font-size="13" lengthAdjust="spacing" textLength="251.7607" x="556.5474" y="249.895">Create and populate topological sorter</text><path d="M428.8281,282.9609 L505.4521,282.9609 L505.4521,290.0938 L495.4521,300.0938 L428.8281,300.0938 L428.8281,282.9609 " fill="#EEEEEE" style="stroke:#000000;stroke-width:1.5;"/><rect fill="none" height="969.3281" style="stroke:#000000;stroke-width:1.5;" width="1174.3486" x="428.8281" y="282.9609"/><text fill="#000000" font-family="sans-serif" font-size="13" font-weight="bold" lengthAdjust="spacing" textLength="31.624" x="443.8281" y="296.0278">loop</text><text fill="#000000" font-family="sans-serif" font-size="11" font-weight="bold" lengthAdjust="spacing" textLength="152.2061" x="520.4521" y="295.1714">[while sorter.is_active()]</text><path d="M438.8281,307.0938 L515.4521,307.0938 L515.4521,314.2266 L505.4521,324.2266 L438.8281,324.2266 L438.8281,307.0938 " fill="#EEEEEE" style="stroke:#000000;stroke-width:1.5;"/><rect fill="none" height="938.1953" style="stroke:#000000;stroke-width:1.5;" width="1154.3486" x="438.8281" y="307.0938"/><text fill="#000000" font-family="sans-serif" font-size="13" font-weight="bold" lengthAdjust="spacing" textLength="31.624" x="453.8281" y="320.1606">loop</text><text fill="#000000" font-family="sans-serif" font-size="11" font-weight="bold" lengthAdjust="spacing" textLength="201.0132" x="530.4521" y="319.3042">[for entity in sorter.get_ready()]</text><path d="M448.8281,331.2266 L513.271,331.2266 L513.271,338.3594 L503.271,348.3594 L448.8281,348.3594 L448.8281,331.2266 " fill="#EEEEEE" style="stroke:#000000;stroke-width:1.5;"/><rect fill="none" height="907.0625" style="stroke:#000000;stroke-width:1.5;" width="1134.3486" x="448.8281" y="331.2266"/><text fill="#000000" font-family="sans-serif" font-size="13" font-weight="bold" lengthAdjust="spacing" textLength="19.4429" x="463.8281" y="344.2935">alt</text><text fill="#000000" font-family="sans-serif" font-size="11" font-weight="bold" lengthAdjust="spacing" textLength="203.1992" x="528.271" y="343.437">[entity.state is not State.CLEAN]</text><polygon fill="#181818" points="813.3081,365.4922,823.3081,369.4922,813.3081,373.4922,817.3081,369.4922" style="stroke:#181818;stroke-width:1.0;"/><line style="stroke:#181818;stroke-width:1.0;" x1="549.5474" x2="819.3081" y1="369.4922" y2="369.4922"/><text fill="#000000" font-family="sans-serif" font-size="13" lengthAdjust="spacing" textLength="128.4639" x="556.5474" y="364.4263">entity._flush(sorter)</text><path d="M750.9233,384.4922 L815.3662,384.4922 L815.3662,391.625 L805.3662,401.625 L750.9233,401.625 L750.9233,384.4922 " fill="#EEEEEE" style="stroke:#000000;stroke-width:1.5;"/><rect fill="none" height="618" style="stroke:#000000;stroke-width:1.5;" width="822.2534" x="750.9233" y="384.4922"/><text fill="#000000" font-family="sans-serif" font-size="13" font-weight="bold" lengthAdjust="spacing" textLength="19.4429" x="765.9233" y="397.5591">alt</text><text fill="#000000" font-family="sans-serif" font-size="11" font-weight="bold" lengthAdjust="spacing" textLength="118.4541" x="830.3662" y="396.7026">[Model is changed]</text><polygon fill="#181818" points="1010.6162,418.7578,1020.6162,422.7578,1010.6162,426.7578,1014.6162,422.7578" style="stroke:#181818;stroke-width:1.0;"/><line style="stroke:#181818;stroke-width:1.0;" x1="835.3081" x2="1016.6162" y1="422.7578" y2="422.7578"/><text fill="#000000" font-family="sans-serif" font-size="13" lengthAdjust="spacing" textLength="158.2979" x="842.3081" y="417.6919">self._model.flush(sorter)</text><path d="M899.6929,437.7578 L964.1357,437.7578 L964.1357,444.8906 L954.1357,454.8906 L899.6929,454.8906 L899.6929,437.7578 " fill="#EEEEEE" style="stroke:#000000;stroke-width:1.5;"/><rect fill="none" height="543.7344" style="stroke:#000000;stroke-width:1.5;" width="663.4839" x="899.6929" y="437.7578"/><text fill="#000000" font-family="sans-serif" font-size="13" font-weight="bold" lengthAdjust="spacing" textLength="19.4429" x="914.6929" y="450.8247">alt</text><text fill="#000000" font-family="sans-serif" font-size="11" font-weight="bold" lengthAdjust="spacing" textLength="185.9956" x="979.1357" y="449.9683">[entity.state is State.CREATE]</text><polygon fill="#181818" points="1262.8682,472.0234,1272.8682,476.0234,1262.8682,480.0234,1266.8682,476.0234" style="stroke:#181818;stroke-width:1.0;"/><line style="stroke:#181818;stroke-width:1.0;" x1="1032.6162" x2="1268.8682" y1="476.0234" y2="476.0234"/><text fill="#000000" font-family="sans-serif" font-size="13" lengthAdjust="spacing" textLength="204.1152" x="1039.6162" y="470.9575">self._driver.flush_create(sorter)</text><path d="M1145.5396,491.0234 L1209.9824,491.0234 L1209.9824,498.1563 L1199.9824,508.1563 L1145.5396,508.1563 L1145.5396,491.0234 " fill="#EEEEEE" style="stroke:#000000;stroke-width:1.5;"/><rect fill="none" height="108.5313" style="stroke:#000000;stroke-width:1.5;" width="407.6372" x="1145.5396" y="491.0234"/><text fill="#000000" font-family="sans-serif" font-size="13" font-weight="bold" lengthAdjust="spacing" textLength="19.4429" x="1160.5396" y="504.0903">alt</text><polygon fill="#181818" points="1508.4038,525.2891,1518.4038,529.2891,1508.4038,533.2891,1512.4038,529.2891" style="stroke:#181818;stroke-width:1.0;"/><line style="stroke:#181818;stroke-width:1.0;" x1="1284.8682" x2="1514.4038" y1="529.2891" y2="529.2891"/><text fill="#000000" font-family="sans-serif" font-size="13" lengthAdjust="spacing" textLength="118.3076" x="1291.8682" y="524.2231">POST /create-note</text><line style="stroke:#000000;stroke-width:1.0;stroke-dasharray:2.0,2.0;" x1="1145.5396" x2="1553.1768" y1="538.2891" y2="538.2891"/><polygon fill="#181818" points="1508.4038,556.4219,1518.4038,560.4219,1508.4038,564.4219,1512.4038,560.4219" style="stroke:#181818;stroke-width:1.0;"/><line style="stroke:#181818;stroke-width:1.0;" x1="1284.8682" x2="1514.4038" y1="560.4219" y2="560.4219"/><text fill="#000000" font-family="sans-serif" font-size="13" lengthAdjust="spacing" textLength="106.2534" x="1291.8682" y="555.356">POST /attributes</text><line style="stroke:#000000;stroke-width:1.0;stroke-dasharray:2.0,2.0;" x1="1145.5396" x2="1553.1768" y1="569.4219" y2="569.4219"/><polygon fill="#181818" points="1508.4038,587.5547,1518.4038,591.5547,1508.4038,595.5547,1512.4038,591.5547" style="stroke:#181818;stroke-width:1.0;"/><line style="stroke:#181818;stroke-width:1.0;" x1="1284.8682" x2="1514.4038" y1="591.5547" y2="591.5547"/><text fill="#000000" font-family="sans-serif" font-size="13" lengthAdjust="spacing" textLength="102.7368" x="1291.8682" y="586.4888">POST /branches</text><polygon fill="#181818" points="1043.6162,608.5547,1033.6162,612.5547,1043.6162,616.5547,1039.6162,612.5547" style="stroke:#181818;stroke-width:1.0;"/><line style="stroke:#181818;stroke-width:1.0;stroke-dasharray:2.0,2.0;" x1="1037.6162" x2="1278.8682" y1="612.5547" y2="612.5547"/><line style="stroke:#000000;stroke-width:1.0;stroke-dasharray:2.0,2.0;" x1="899.6929" x2="1563.1768" y1="621.5547" y2="621.5547"/><text fill="#000000" font-family="sans-serif" font-size="11" font-weight="bold" lengthAdjust="spacing" textLength="188.0635" x="904.6929" y="631.7651">[entity.state is State.UPDATE]</text><polygon fill="#181818" points="1262.8682,652.4922,1272.8682,656.4922,1262.8682,660.4922,1266.8682,656.4922" style="stroke:#181818;stroke-width:1.0;"/><line style="stroke:#181818;stroke-width:1.0;" x1="1032.6162" x2="1268.8682" y1="656.4922" y2="656.4922"/><text fill="#000000" font-family="sans-serif" font-size="13" lengthAdjust="spacing" textLength="208.3682" x="1039.6162" y="651.4263">self._driver.flush_update(sorter)</text><path d="M1145.5396,671.4922 L1209.9824,671.4922 L1209.9824,678.625 L1199.9824,688.625 L1145.5396,688.625 L1145.5396,671.4922 " fill="#EEEEEE" style="stroke:#000000;stroke-width:1.5;"/><rect fill="none" height="108.5313" style="stroke:#000000;stroke-width:1.5;" width="407.6372" x="1145.5396" y="671.4922"/><text fill="#000000" font-family="sans-serif" font-size="13" font-weight="bold" lengthAdjust="spacing" textLength="19.4429" x="1160.5396" y="684.5591">alt</text><polygon fill="#181818" points="1508.4038,705.7578,1518.4038,709.7578,1508.4038,713.7578,1512.4038,709.7578" style="stroke:#181818;stroke-width:1.0;"/><line style="stroke:#181818;stroke-width:1.0;" x1="1284.8682" x2="1514.4038" y1="709.7578" y2="709.7578"/><text fill="#000000" font-family="sans-serif" font-size="13" lengthAdjust="spacing" textLength="150.395" x="1291.8682" y="704.6919">PATCH /notes/{noteId}</text><line style="stroke:#000000;stroke-width:1.0;stroke-dasharray:2.0,2.0;" x1="1145.5396" x2="1553.1768" y1="718.7578" y2="718.7578"/><polygon fill="#181818" points="1508.4038,736.8906,1518.4038,740.8906,1508.4038,744.8906,1512.4038,740.8906" style="stroke:#181818;stroke-width:1.0;"/><line style="stroke:#181818;stroke-width:1.0;" x1="1284.8682" x2="1514.4038" y1="740.8906" y2="740.8906"/><text fill="#000000" font-family="sans-serif" font-size="13" lengthAdjust="spacing" textLength="205.2261" x="1291.8682" y="735.8247">PATCH /attributes/{attributeId}</text><line style="stroke:#000000;stroke-width:1.0;stroke-dasharray:2.0,2.0;" x1="1145.5396" x2="1553.1768" y1="749.8906" y2="749.8906"/><polygon fill="#181818" points="1508.4038,768.0234,1518.4038,772.0234,1508.4038,776.0234,1512.4038,772.0234" style="stroke:#181818;stroke-width:1.0;"/><line style="stroke:#181818;stroke-width:1.0;" x1="1284.8682" x2="1514.4038" y1="772.0234" y2="772.0234"/><text fill="#000000" font-family="sans-serif" font-size="13" lengthAdjust="spacing" textLength="190.1948" x="1291.8682" y="766.9575">PATCH /branches/{branchId}</text><polygon fill="#181818" points="1043.6162,789.0234,1033.6162,793.0234,1043.6162,797.0234,1039.6162,793.0234" style="stroke:#181818;stroke-width:1.0;"/><line style="stroke:#181818;stroke-width:1.0;stroke-dasharray:2.0,2.0;" x1="1037.6162" x2="1278.8682" y1="793.0234" y2="793.0234"/><line style="stroke:#000000;stroke-width:1.0;stroke-dasharray:2.0,2.0;" x1="899.6929" x2="1563.1768" y1="802.0234" y2="802.0234"/><text fill="#000000" font-family="sans-serif" font-size="11" font-weight="bold" lengthAdjust="spacing" textLength="184.5938" x="904.6929" y="812.2339">[entity.state is State.DELETE]</text><polygon fill="#181818" points="1262.8682,832.9609,1272.8682,836.9609,1262.8682,840.9609,1266.8682,836.9609" style="stroke:#181818;stroke-width:1.0;"/><line style="stroke:#181818;stroke-width:1.0;" x1="1032.6162" x2="1268.8682" y1="836.9609" y2="836.9609"/><text fill="#000000" font-family="sans-serif" font-size="13" lengthAdjust="spacing" textLength="203.5186" x="1039.6162" y="831.895">self._driver.flush_delete(sorter)</text><path d="M1145.5396,851.9609 L1209.9824,851.9609 L1209.9824,859.0938 L1199.9824,869.0938 L1145.5396,869.0938 L1145.5396,851.9609 " fill="#EEEEEE" style="stroke:#000000;stroke-width:1.5;"/><rect fill="none" height="108.5313" style="stroke:#000000;stroke-width:1.5;" width="407.6372" x="1145.5396" y="851.9609"/><text fill="#000000" font-family="sans-serif" font-size="13" font-weight="bold" lengthAdjust="spacing" textLength="19.4429" x="1160.5396" y="865.0278">alt</text><polygon fill="#181818" points="1508.4038,886.2266,1518.4038,890.2266,1508.4038,894.2266,1512.4038,890.2266" style="stroke:#181818;stroke-width:1.0;"/><line style="stroke:#181818;stroke-width:1.0;" x1="1284.8682" x2="1514.4038" y1="890.2266" y2="890.2266"/><text fill="#000000" font-family="sans-serif" font-size="13" lengthAdjust="spacing" textLength="156.7046" x="1291.8682" y="885.1606">DELETE /notes/{noteId}</text><line style="stroke:#000000;stroke-width:1.0;stroke-dasharray:2.0,2.0;" x1="1145.5396" x2="1553.1768" y1="899.2266" y2="899.2266"/><polygon fill="#181818" points="1508.4038,917.3594,1518.4038,921.3594,1508.4038,925.3594,1512.4038,921.3594" style="stroke:#181818;stroke-width:1.0;"/><line style="stroke:#181818;stroke-width:1.0;" x1="1284.8682" x2="1514.4038" y1="921.3594" y2="921.3594"/><text fill="#000000" font-family="sans-serif" font-size="13" lengthAdjust="spacing" textLength="211.5356" x="1291.8682" y="916.2935">DELETE /attributes/{attributeId}</text><line style="stroke:#000000;stroke-width:1.0;stroke-dasharray:2.0,2.0;" x1="1145.5396" x2="1553.1768" y1="930.3594" y2="930.3594"/><polygon fill="#181818" points="1508.4038,948.4922,1518.4038,952.4922,1508.4038,956.4922,1512.4038,952.4922" style="stroke:#181818;stroke-width:1.0;"/><line style="stroke:#181818;stroke-width:1.0;" x1="1284.8682" x2="1514.4038" y1="952.4922" y2="952.4922"/><text fill="#000000" font-family="sans-serif" font-size="13" lengthAdjust="spacing" textLength="196.5044" x="1291.8682" y="947.4263">DELETE /branches/{branchId}</text><polygon fill="#181818" points="1043.6162,969.4922,1033.6162,973.4922,1043.6162,977.4922,1039.6162,973.4922" style="stroke:#181818;stroke-width:1.0;"/><line style="stroke:#181818;stroke-width:1.0;stroke-dasharray:2.0,2.0;" x1="1037.6162" x2="1278.8682" y1="973.4922" y2="973.4922"/><polygon fill="#181818" points="846.3081,990.4922,836.3081,994.4922,846.3081,998.4922,842.3081,994.4922" style="stroke:#181818;stroke-width:1.0;"/><line style="stroke:#181818;stroke-width:1.0;stroke-dasharray:2.0,2.0;" x1="840.3081" x2="1026.6162" y1="994.4922" y2="994.4922"/><path d="M730.9233,1016.4922 L795.3662,1016.4922 L795.3662,1023.625 L785.3662,1033.625 L730.9233,1033.625 L730.9233,1016.4922 " fill="#EEEEEE" style="stroke:#000000;stroke-width:1.5;"/><rect fill="none" height="200.7969" style="stroke:#000000;stroke-width:1.5;" width="842.2534" x="730.9233" y="1016.4922"/><text fill="#000000" font-family="sans-serif" font-size="13" font-weight="bold" lengthAdjust="spacing" textLength="19.4429" x="745.9233" y="1029.5591">alt</text><text fill="#000000" font-family="sans-serif" font-size="11" font-weight="bold" lengthAdjust="spacing" textLength="209.0698" x="810.3662" y="1028.7026">[entity.state is not State.DELETE]</text><path d="M740.9233,1040.625 L817.5474,1040.625 L817.5474,1047.7578 L807.5474,1057.7578 L740.9233,1057.7578 L740.9233,1040.625 " fill="#EEEEEE" style="stroke:#000000;stroke-width:1.5;"/><rect fill="none" height="169.6641" style="stroke:#000000;stroke-width:1.5;" width="822.2534" x="740.9233" y="1040.625"/><text fill="#000000" font-family="sans-serif" font-size="13" font-weight="bold" lengthAdjust="spacing" textLength="31.624" x="755.9233" y="1053.6919">loop</text><text fill="#000000" font-family="sans-serif" font-size="11" font-weight="bold" lengthAdjust="spacing" textLength="232.3159" x="832.5474" y="1052.8354">[for ext in entity._model._extensions]</text><path d="M750.9233,1064.7578 L815.3662,1064.7578 L815.3662,1071.8906 L805.3662,1081.8906 L750.9233,1081.8906 L750.9233,1064.7578 " fill="#EEEEEE" style="stroke:#000000;stroke-width:1.5;"/><rect fill="none" height="138.5313" style="stroke:#000000;stroke-width:1.5;" width="802.2534" x="750.9233" y="1064.7578"/><text fill="#000000" font-family="sans-serif" font-size="13" font-weight="bold" lengthAdjust="spacing" textLength="19.4429" x="765.9233" y="1077.8247">alt</text><text fill="#000000" font-family="sans-serif" font-size="11" font-weight="bold" lengthAdjust="spacing" textLength="108.1792" x="830.3662" y="1076.9683">[ext._is_changed]</text><polygon fill="#181818" points="1010.6162,1102.0234,1020.6162,1106.0234,1010.6162,1110.0234,1014.6162,1106.0234" style="stroke:#181818;stroke-width:1.0;"/><line style="stroke:#181818;stroke-width:1.0;" x1="835.3081" x2="1016.6162" y1="1106.0234" y2="1106.0234"/><text fill="#000000" font-family="sans-serif" font-size="13" lengthAdjust="spacing" textLength="73.0044" x="842.3081" y="1100.9575">ext._flush()</text><path d="M1037,1086.8906 L1037,1111.8906 L1517,1111.8906 L1517,1096.8906 L1507,1086.8906 L1037,1086.8906 " fill="#FEFFDD" style="stroke:#181818;stroke-width:0.5;"/><path d="M1507,1086.8906 L1507,1096.8906 L1517,1096.8906 L1507,1086.8906 " fill="#FEFFDD" style="stroke:#181818;stroke-width:0.5;"/><text fill="#000000" font-family="sans-serif" font-size="13" lengthAdjust="spacing" textLength="459.6592" x="1043" y="1103.9575">Note content implemented as model extension and flushed separately</text><polygon fill="#181818" points="1262.8682,1134.1563,1272.8682,1138.1563,1262.8682,1142.1563,1266.8682,1138.1563" style="stroke:#181818;stroke-width:1.0;"/><line style="stroke:#181818;stroke-width:1.0;" x1="1032.6162" x2="1268.8682" y1="1138.1563" y2="1138.1563"/><text fill="#000000" font-family="sans-serif" font-size="13" lengthAdjust="spacing" textLength="115.3813" x="1039.6162" y="1133.0903">ext._driver.flush()</text><polygon fill="#181818" points="1508.4038,1163.2891,1518.4038,1167.2891,1508.4038,1171.2891,1512.4038,1167.2891" style="stroke:#181818;stroke-width:1.0;"/><line style="stroke:#181818;stroke-width:1.0;" x1="1284.8682" x2="1514.4038" y1="1167.2891" y2="1167.2891"/><text fill="#000000" font-family="sans-serif" font-size="13" lengthAdjust="spacing" textLength="186.3164" x="1291.8682" y="1162.2231">PUT /notes/{noteId}/content</text><polygon fill="#181818" points="1043.6162,1177.2891,1033.6162,1181.2891,1043.6162,1185.2891,1039.6162,1181.2891" style="stroke:#181818;stroke-width:1.0;"/><line style="stroke:#181818;stroke-width:1.0;stroke-dasharray:2.0,2.0;" x1="1037.6162" x2="1278.8682" y1="1181.2891" y2="1181.2891"/><polygon fill="#181818" points="846.3081,1191.2891,836.3081,1195.2891,846.3081,1199.2891,842.3081,1195.2891" style="stroke:#181818;stroke-width:1.0;"/><line style="stroke:#181818;stroke-width:1.0;stroke-dasharray:2.0,2.0;" x1="840.3081" x2="1026.6162" y1="1195.2891" y2="1195.2891"/><polygon fill="#181818" points="560.5474,1226.2891,550.5474,1230.2891,560.5474,1234.2891,556.5474,1230.2891" style="stroke:#181818;stroke-width:1.0;"/><line style="stroke:#181818;stroke-width:1.0;stroke-dasharray:2.0,2.0;" x1="554.5474" x2="829.3081" y1="1230.2891" y2="1230.2891"/><polygon fill="#181818" points="365.3149,1261.2891,355.3149,1265.2891,365.3149,1269.2891,361.3149,1265.2891" style="stroke:#181818;stroke-width:1.0;"/><line style="stroke:#181818;stroke-width:1.0;stroke-dasharray:2.0,2.0;" x1="359.3149" x2="543.5474" y1="1265.2891" y2="1265.2891"/><polygon fill="#181818" points="34.2681,1275.2891,24.2681,1279.2891,34.2681,1283.2891,30.2681,1279.2891" style="stroke:#181818;stroke-width:1.0;"/><line style="stroke:#181818;stroke-width:1.0;stroke-dasharray:2.0,2.0;" x1="28.2681" x2="348.3149" y1="1279.2891" y2="1279.2891"/><!--SRC=[nLPTQzim57tNhxZqgQ74UJSia2M65RgkhEbUnZ2ATPC8LCb8IjTIzj-dBwTfcjYXQp91aN9rhixHrN6b9MS8SwNiJ3qIGYkhDAmCQg0czAIcslAArrHQE3De35SoXziuEFEm5Do9pCgALalCOUox00-1rs2Kbjkd73vJWqKO1sGCxu9cvRrYA3Opllf0I0jJBLbPoJH_G1sp9s4S4cEOC6hfpCt0MJ4TtLn6APRMd11VaVumxGqkBl9cyzbShCpoFF1mD3bSMjHq9l1dLFSBFi6rajWZAQ4_37L8QuXvAjJMEZr2GZYXS_X11NVw41h4rlnO2O6L1IePF3HOXZLAXhBQWTVe4HvUgteb_0-hQYNKWbTKW57QROGGeLGDlvTSO0fbt9JEBQvWvpq2hWN4tBadrXguR90BjAMZOKy9wHiLDW4pOpqfDo2LXLl_8njV5QFhDTQtf3gjxOlM76aiMAJglSffU88pF46rf7A1x0t8jxXSVnWSid4gqJ7j96sRIXlwNeocnTv4tm9HVnWzk24W1gA2iWh7rIbaGr0dnhV8uShhNPx3pRVRAGmYLz-T2dOkWiBW-vcejPhFLjQvyxX4Cqsbyz41D9ArOZJQbPQaJUKU9zpTJ3x42QkQdS89e-du2moy1ypWsNUNxC_n3YcolTXXyBmUdu2tSSVWEOuEeZoQKIR5LV4HHd4GFBvHejgJEQMXExbL6kB_uPKzwNlITi7RRzqMnxrSxe_Mt-nRxoaNHUbVDQRzRdoqMUdU3MttyFxxE6J7YxZRnjw0eFbYQNFtxdBZIacdqOc_hmNUkn6ozLiHrlh3GoXmk6c3xWtf2YEUEkdUVeb1xUQ7U83eNV-QxgRR7zKWRQLpkGu__OFbTiMtOrjBDzE-ztyapQVkBm00]--></g></svg>